<mxfile host="Electron" agent="Mozilla/5.0 (Windows NT 10.0; Win64; x64) AppleWebKit/537.36 (KHTML, like Gecko) draw.io/28.1.2 Chrome/138.0.7204.243 Electron/37.4.0 Safari/537.36" version="28.1.2">
  <diagram name="Page-1" id="1Jh0eK6QQDRw8iCSyj6d">
    <mxGraphModel dx="3453" dy="2898" grid="1" gridSize="10" guides="1" tooltips="1" connect="1" arrows="1" fold="1" page="1" pageScale="1" pageWidth="850" pageHeight="1100" math="0" shadow="0">
      <root>
        <mxCell id="0" />
        <mxCell id="1" parent="0" />
        <mxCell id="phIce4MepkweM39JQGYu-3" value="" style="shape=image;verticalLabelPosition=bottom;labelBackgroundColor=default;verticalAlign=top;aspect=fixed;imageAspect=0;image=data:image/png,iVBORw0KGgoAAAANSUhEUgAABUIAAAOZCAIAAABUcM2MAAAgAElEQVR4Aey9eXwVRd7vz++P+7qv172/3+v+7r2/Z57nmeWJDs44MhDHfXkGRp0Zj4goLiDoICAECKgohEVxGUUho8KgKIiObAEU2QNhF2QngBGQVQwayEhCgmQDsvfvdldXdZ0+fU7OOTlJzkne55UXVFdXV33rXUv3p6q6ut1p65eXl/fdd98dO3Zs7969W7duXbt27arIf5n8mp3ACn4QCI/Acn4QgAAEIAABCLQBAuE9FxAKAitWNuUvtCqaPHlyZmbmhrb32+j/W7t2bXp6ejDZfcfYPreOeviGUT06pt3XfpTvJ6Pu+B+jfv8/0jr/j9HmX7vTp09///3333333b59+7LWrN2+7/jeI2cPnrp4+EwdfxCAAAQgAAEIQAACEIAABCAAAQgcPlP3/X9Jaua/nP/5qyW/vvat39/2++ceunLU3baST+vcTmj4L774YvP2vQdyyykeCEAAAhCAAAQgAAEIQAACEIAABFwEmlnD68nt/pdfD3v4T53Sugsl307Mw2/ettdlIocQgAAEIAABCEAAAhCAAAQgAAEICAK6rm4R97CH/yTm5NsdO3ZsddYa5uGpmhCAAAQgAAEIQAACEIAABCAAgWAEWkS664nu/pdf//65h34y8o522dnZ2/cdD2Yo/hCAAAQgAAEIQAACEIAABCAAAQjoirql3G/9/rb2I33tvvjii72HzzZYJLmFdfnn686V1heX158P8ldcXn+utD7/fF1uYZTb4/3zx/rSS/U1tQY/CLQsgepao/RSff75+gabRjgBvj5T97XcM1J3h3MtYSAAAQhAAAIQgAAEIACBeCDQUtJdT3fJr6/dvH1ruzVr1oTelz630FTvwaR7MP9zpfURiflvC+pq61pWuJE6BDwI1NYZJ89GOSx1OL+hUYAGA0jxHw/dFjZAAAIQgAAEIAABCECgLRPQ5XRLub/512t7vjGsXWZmZoiSOF1cF0yoh+N/ujgs/VNUVu+hn/CCQNwQKCprSJBrevtIfljVXm93UVyiX44bAhCAAAQgAAEIQAACEGhqAi0l3V3p3jrqoXZ//OMfg+W2kRpe6PwGlXxxORo+btQqhgQnUByJkg/WpvCHAAQgAAEIQAACEIAABBKUgEtOt9Th+vXr261cudITYm5ho+bh9bn6EKvrvy1gJX1w4ciZOCMQ/ep6ba7es7nhCQEIQAACEIAABCAAAQjEOYGW0u2udG8d+VBQGR/F+/C6dNfd50qDLkjmffg4E6qYE4pAbZ0RomeJycL4mEQSwkhOQQACEIAABCAAAQhAAALREXDJ6ZY6DCrjYzgVL/S854R8XjFT8aFEI+fikMD3RRG/9x5dH8FVEIAABCAAAQhAAAIQgEBcEWgp3e5KN6iMzz8fsxX1Qsbnn/cQPxcuNvxW/IXS0vS3pgweNqL/oNT+g1IHDxuR/taUC6WlcSjwMKktEPixIujSkrjqYjAGAhCAAAQgAAEIQAACEIgtAZecbqnDoDI+hivqhYz3XFdfVdOA7lu/8fOBg4f3Gzh0QErqiJFjnhv9Qv9Bqf0GDh04ePj6jZ83cDGnIdAEBKpqgqyrj+Gn42IYFe/kQwACEIAABCAAAQhAAAIxItBSut2VbtAt7orLI/5QvP4yfKC7uNxjDjO0yFq/8fP+g1IHpAxbuSqrvt6ctz92/Jt+A4eKv/6DUlHyoQFytikI1BtBZHwYXcPAwcMHDn4qtiOCxAYBCEAAAhCAAAQgAAEIuAj0fiK1XZBf7ydSXYHDP3TJ6XAOjfr64kFpgSGLB6UZ9fWB/uH4BJ2ND9ThjfcJpBNCZV0oLX0yZfiAlGFnzxaIYJ9+tnTEqLFKxos5+QZX13fu3DlJ/jp37hwiRdep6dYvHE9XmEgPf/jhh/ANGz9+vMxN0vjx48NJq2/fvvv37w8npAjzww8/qCSSksJNRVw7fvx4V146d+78ww8/hJ+6CDl9+nRlw9mzZyO9PJzwH3zwwcSJE/WQEydOnDlzpu4TzB1Yk8P0QcaHCYpgEIAABCAAAQhAAAIQaAyBdu3aBbs8xKlglyj/cDS2K0zRgJFGXV3RgJG6v6enHiC0O0oZP3f+4n0HTujCPjvn2LyFS3WfQLfKvHIEk0mGYaS/NaXfwKErV2WJMKe++14X8Mqd/taUEJEYhqHLSCEOw1SV062fK3JPT1eYSA8jlfGZmZkRJRGFjNeleN++ffXDwKSnWz/hL0YZpk+froLp/JWncOzfv79v374uT8Mwxo8fr/u/8sorgWEa7zNx4sSkpKQ33nhDRCUOX3/99XBiVhVYOb4OYyr+8Jm68GV8mBEqA3BAAAIQgAAEIAABCEAAAopACK0e4pS6PJgjtLoOdtYl2l2Hwa4K4R+NjM89c759+/a/+911Xx3OFVo95+tvf/e766666qpvTxcHqnflE8gihGRKGfr0gJRUsZbeMIzjJ7554aVXX3jp1ZShTysN32/g0MHDRoSIxCXjDcOYPn16mJPY062fK3JPT1eYSA/jXMYbhtG3b98QYwc6k/Hjx2dmZiYlJamxkkhlfDBtHynVcMIrJR+Rhje8FtWHqbqR8YGdAD4QgAAEIAABCEAAAhCIOYEQWj3EqQbNCCGtQ59S0l05QocPfdaU8bc89UCguUp7ezpWZG1q3779DTfedOh43tcnTl9/w43/R9ivyNrkGVh5BqYSQmv1H2TuaRcYYPrMfygZP3DI8P6DUgPD6D4uGalUolCbYuW2WHO+f/9+cSgmn6dbP7EmX01H655JSUkqob59++rXGoYRGL+4Vi1TV+vGp0+fruJXEQZzCJ2sn1VmJyUlKbGdlJSklh6o2Xh9Xl0tWRd5120LHFYQZw3DCExL5UJId2FeZmammk7X+euJBkYlMhWYQZXZ+++///HHHx86dOjSpUuF57p16/Ly8tauXbtjx478/HzhWVPT0MaJKkbDEAJen5bXTgZ1BtbkED6pT6epv/sf6HH/Az3UYerTaSEu5BQEIAABCEAAAhCAAAQSi0CQt9Ft7+bMSwitHuJUgxaGVtehzxYPGSsEhuer8qGvdZ21ZPzwiGX8+fL6lVmft2/f/rbb/vPmW25t37595prNSq4HcwRCCaqTDEPsSC8U+4CUYaPHvbQic3V9fX1padlnS5bPmpOxd9+XI0aOiVTGB2pUJex1wSnm7dWsspqOVtpYBBBidbz1E3mZPn26UrDCR8UvrhWemZmZSroHvk8eAov+bnxmZqZ4j11NfSclJQlZLmS8iEfIeN1IPadqzEKNSgQiyszMHD9+fLC0pls/kZYS4YqYSks5xBIJMSjgYiVW1Hu+yf/YY49t3bpVpPLRRx/t3LnTMIx169ZlZdmvXRw8eLCmpqaysrK2tlYEC+ffZpDxPv/fvfd2Q8YHdgX4QAACEIAABCAAAQhAIIYEQmj1EKcaNMAlpyM6LB44qq60vK6krHjgqIguDAx868gH261YsSLQ3GBSXPfPWr+1vfXLWr9V9w/mDkwlhNByLZ4Xen7nrj3qkvr6+gEp5mfklY+nQ1ePLumodr9TalxJWaHS1Tve062fy9MwDBHelYSKxBW/ikSIVTVzHiib9U3mlEQXuVM6WRwKgS3cunnKBrEkvm/fvupVAj1yMT3+ww8/6LYF2iPOBktLv1aZJ1JRLzV4JqoGOJT9LjLKv6Cg4LHHHlOH33333YIFC4SMLy4uFv6nTp26fPlyXV1dVVWVChna0SKL6nv26hPYEAJ9wlylH3ghPhCAAAQgAAEIQAACEIBACK0e4lSD3AIVdZg+ai29coR5oWewFStWRC/jz5fXr1q7ZdXaLcF0u8s/EEoIlSW2uFPr54Vj9jxTvInfylVZ/QYOjWiLO6EShTjv3LmzWkuvzwknJSWpCeoGZbwI6ZLxytMV/3TrJ4wfP368mnMOlM0ijOe/SieLs4HSWowOuGR8Z+snLvFMbrr1CxZAsAqWln6tbp7w79u37w/WT2ARSYh/PWW8viBfBQ6U8WISft26dS4Zry5p0KE0vAgpDpthiztkfGA/gA8EIAABCEAAAhCAAARiSyCEVg9xqkEbPEV1g54u6e46bPDywACmjF+yZEmguS4FHpPDwFRCaC3xwTkl42fNnb9p8xdHjx0Xl5w9WzAgZdjAwcPD+eCcmtDWl68r7e3aF11NIE+3fiI55dbfY1fL1JVDzIeLee/A+FUkIpgaO9CtEsmF+FfXyYZhiFlulUH1FoBLxu/fv19f7d+5c2e1FkCkpdvm0vmdO3cWOQqWli7vXeaJMRFhXmCiroRUrlWKwkfsVO9aVH/48GHP2XgVSYOOlvrgXJgyPrCx4AMBCEAAAhCAAAQgAAEIhEkghFYPcarByAMVdYM+nqLd07PBqFSAJUuWtFu3bl2gucXl9TGR7iqS4vL6wFRCa631Gz9Xb8jv+zJHBK6vr1+5KmtAyrD+g1LXb/w8dAxCk6ud1dTCciGkhb+S8WoNvJiEn279RPzKLTa6Fxfq08tqizslztXebyp+FYmIU12iDw2IUyH+delk17ZzaoY/UMaLlQhC5+tL3IXBum36WX3bvGBpqfA//PCDyzx913oVLCkpSVESzF1jCuJFAFVqioba4m7Lli3CM3A2vrKyMvxF9SrmSB2BNTlMn4GDhyPjw2RFMAhAAAIQgAAEIAABCERNoPcTqcH22+v9RGrU0SohHb7DqK8vThkdGN7c8a6+PtA/HJ9169Z5y/hzpTGW8edKI5bx5nTrhk0DBw/vN3Dok4OHPZs2dsTIMQNSUvsNHDpw8PBwNHyk8ozwEAiHgHezz/eo4d4hG/zIfAyjajAtAkAAAhCAAAQgAAEIQAAC4REIR2M3Q5igMj7/fJ2aSI+JI/98XaCkCUcyXSgtTX9ryuBhI/oPSu0/yNzTLv2tKQ2upQ8nZsJAIDoCgTUZHwhAAAIQgAAEIAABCECg1RNoBokeThJBZXxuYYxlfG5hlDI+OqHFVRBoOgKtvnsigxCAAAQgAAEIQAACEIBAIIFwNHYzhAkq4w+fqYvhunrPFfVH8+uaTmgRMwSajsDRfI8xqcNn6o4E8Q9s/yF8YhJJiPg5BQEIQAACEIAABCAAAQhER6AZJHo4SYSS8TGckPeciv/mLDK+6ZQmMTchgRNnvWV8dH0BV0EAAhCAAAQgAAEIQAACCUEgHI3dDGFCyfjDZ+pOF8dgaf3pYm/Nc7q4vgmVFlFDoMkI5BXHbje78PbSSIhODSMhAAEIQAACEIAABCDQugk0g0QPJ4kGZHzjlXwwDX/4TN35CmR8kwlNIm5KAue9vp6od1hRLIyP4hI9RdwQgAAEIAABCEAAAhCAQFMTCEdjN0OYhmX84TN1uYXRvCd/rrTecy29IltV05RKi7gh0GQEKmsMVY0bcDT46bgGAzBdDwEIQAACEIAABCAAAQjEB4FmkOjhJBGWjBdCJbewLv+8qeeLy4N+Ur64vP5caX3+eVP5h5Y33xcxFd9kKpOIm57Ad+ciW1f/9Zm6r2XXo7tDNxPOQgACEIAABCAAAQhAAALxQyAcjd0MYSKQ8TFkdzS/rrq26ZUWKUCgyQhU1Rgsg49hn0BUEIAABCAAAQhAAAIQiH8CzSDRw0miZWR86SWm4ptMXxJxcxEouRjZhHz890pYCAEIQAACEIAABCAAAQiEIBCOxm6GMC0g44vL0fDNJTRJp4kJFDe0112ILoBTEIAABCAAAQhAAAIQgEBiEWgGiR5OEs0q44/+s678Mhq+iZUl0TcvgfLL9UfzG9gJIrH6JqyFAAQgAAEIQAACEIAABDwJhKOxmyFM88n474vqeR++eQUmqTUTgepa4/siFtgzlgEBCEAAAhCAAAQgAIFWTqAZJHo4STShjD+aX3eyoO77InPv+orKZhJUJAOBliJQUWmcK63/vqj+5Nk65uc9By/xhAAEIAABCEAAAhCAQEITCEdjN0MYDxmfW1j3Y0X9xUqjtq6lBBHpQgACEIAABCAAAQhAAAIQgAAE2jSB2jrjYqXxY0W964PufjL+SH5dUVk9L6+36ZpC5iEAAQhAAAIQgAAEIAABCEAgngjUG0ZRWb364rUj478tqKusiSdLsQUCEIAABCAAAQhAAAIQgAAEIAABi8DlauPbAnP3AUfGF5UxDU/tgAAEIAABCEAAAhCAAAQgAAEIxCmBojJza21Txv/pxVmnCnkPPk7LCbMgAAEIQAACEIAABCAAAQhAAAKCwLcFloyfkrH8xwqm4qkVEIAABCAAAQhAAAIQgAAEIACBuCbwY0W9ORs/JWP5paq4NrTtGFdXb1RW11Vcri2pqPmxvPp8GX8QgAAEIAABCEAAAhCAQOsk8GN5dUlFTcXl2srqujrmVduO6mtcTisqDXtRPd+WaxzJGFxdXVNXdqkG3Q4BCEAAAhCAAAQgAAEItE0CZZdqqmt42TkG2qp1R1FTa8n4devWte58xnnuauvqEfBts6cm1xCAAAQgAAEIQAACEHARKLtUU8vUfJxLuJY2z96pvqXNaLvpV1bXudothxCAAAQgAAEIQAACEIBAGydQWc20fNsViQ3mfN6nq9sxG98gpiYKcKkKDd86X3Nq43cdsg8BCEAAAhCAAAQg0HgCl6pQ8k2kwxI+2sGvfIaMb5lSDKbhSypqLlXWVtfUq6U0dfVGdU39pUpz37vGdwfEAAEIQAACEIAABCAAAQgkBAGUfMtItbhPtdtTC5HxLVBKnmvpSypqqhpaPFNVXYeYT4g+FyMhAAEIQAACEIAABCDQeAKsrm8BtRb3SfZ7YREyvrlLqbauPrA9V1yuDd+Oisu1gTHgAwEIQAACEIAABCAAAQi0PgLseBe+UIooZE1pXuU/s2tPbvxh+fsrRw5cPn7EPzcvrb7wfUSRtEjgD+auQsY3N/nAfekvVUag4YW5lypR8rxXDwEIQAACEIAABCAAgdZPoOxSTXMrltilt2vXrieffDIlJWXXrl2xi7WxMVUUHC7MmVuw7u9F774w/w93PvZ//+TP/9d/u6Pdf3/2fyfN+/Ofv3r39YsFJxubRlNez071TUnXK+7qGve2dhHNw+tRMiff+oZayREEIAABCEAAAhCAQCsjsDfn8N6cw43MVGO+J184b3bOjdfu73BVg385N15bOG+Orjga7+7du7fP+j3++OONj03EkFtYn1tYH3Vsxbn78nYvPZD5/omsDw598s6UAT1/3e6/3P1f/98H/+v/7tLuv/Vo99/6tPvvb1xzbcnxnVEn0dQXIuObmrA7ftdUfEmF99BadXV1Tk7O3Llz582bl5OTU11d7Y7IOuY9+UZ2iFwOAQhAAAIQgAAEIACBJiUw4fVJE16f1MgkGjMhn3ND8pdhaPj9Ha76ssNVOTcke+qO8D2XL1/eo0cPId1D/DtnTvTjBYfP1B0+E+U2/hs/X7Pm0/cObZizZubL6z56ZfOcSWvfeeH1h+/eOvmFbe++ljlx3DsD+gz5eftn2/0/U35/2+WCg+FnPJyQ586d69mzZ69evYqLi8MJHyxMbGT8kSNHvv7662BpxNb/66+/PnLkSGzjdMVWU1OzcuXK/v37+3y+3r17v/jii0uWLKmrq8vIyPD5fK7AER3W1RuuBhy4p11dXd2bb7559dVXJycn97J+ycnJV199dXp6el2du7JW8dn5sta/jMpVZziEAAQgAAEIQAACEEgUAqdOF95r/U6dLmykzeo7VhEJEMMwGpyEdwWINH5X+G7duqWlpWWE/KWlpd13332uC8M/jFrGnzl9bMmyf6xbMXPlRxPefT7ljdTeb414bMmbzx5a+W7ezoyCL1ec+yrrbPayg5++u2bsU3//4x0H56RXFJ4K37AGQy5dulQMbaxYsaLBwCECmDL+/vu7hwjR4KkTJ04sXrw4JyenwZAxCZCTk7N48eITJ07EJLbASIqKilJTU30+39ixY2fMmPHOO++kpKT4fL4RI0a8++67jZTxrg3qPafix44de+21137yySfl5eXCvNLS0rlz53bq1On5558PNDjkhPypqX9KGpoZG6F76J27kp7aYPY+mU8l/WnGoSbRz7kfm7Dl77WtsrNz/J+clSs9q89vmiiDTlzn2BMksBMgNkAcM4gZAhCAAAQgAAEIQAACXgQ+/Mecrtbvo4/nNvLpMeot602Vfk37/b/99f4OV+27pv2+a9oL3a67bSVvnQpUHBH5+Hy+jIyM0Jc0cn40ahmfvWNpVuYHmcv+8dncKR+98ez4Jx94NeXBZZNH710y9fDamSe3zDv5ecaJDXNOfD7v1PaF2Z+8fWjp1NO7G6W3XRwKCwsfeeSR3r17x2A2PisryxV7+IfNrOGFYU2n5GtqalJTU3v27PnVV1/pELKzs7t37y4Uo+4fqdv1Nnvgznaffvpphw4djh49KmIus37CfeTIkQ4dOixatMiVaMi97uJXxq98KumOd04F9GVbX/MN+viYW2ave83nsyX9VtO5yQpwLONJGfjQrEG+lAwxsuAd2KtXDUjdnS4BIAABCEAAAhCAAAQgEDWBcxcu93q09/iXXnlh/Eu9Hu197sLlqKM6X1Yd9Y5atm7/7a+FkjcVe4B7X4df7evwa/Pfa9q75Eakhz6fb+bMmaGvahEZ/33esYyMqYsXvfvxh+lLl7y7bsnkRdNf/njCs5nTXsx65/k1017eOPONTR9O2DbnzS/mpG+bO3HXwje/XDr1+LpZZWdjOSEfmkyYZ83Z+KhlvNDw+/btCzOxGAbbt29fU8zJr1ixwufzuTZRFOtB0tLSGi/jXTPn1TV+GzNcvHixU6dOeqUfN26cPgM/c+bMTp06Xbx4USdZXePx+TrZQSSijNfn1YWu9tP2pmK3JL1yWJlVYZTDvNY/DCodAhCAAAQgAAEIQAACTUhgx56cpSuyZs1d8M60Ga9NmPjU0yN8Pt+W7Xs2b9vt8/meenrEaxMmvjNtxqy5C5auyNqxJ0c+tIdlkudKXl0XBHObk/C/+eXeK3+enfTTfb/55b5r2u+94md7r/jpvl9dsb/DVXuv+One9v+x+3/991OvvnK0/+PZP/3/gsUTpr8QTXPnzg0RvkVkfMaCj156beSrk155ddK4F1579q9/fXrL4plzXx81rd+Diwf/ZeXwJ5YNffzD3vdNfuz+D8ekLH57zKK3Ri6c9MzGma/+8+CWEHlpkVPRy/gW1PCCVFMo+WHDhj399NOukpDLtu3/XWcjOvyx3K+Jut5vWb9+ffv27UtLS4PFWVpa2r59+w0bNugBAt+317oDfxmf+VSS+onl8WKO+vCMO6S/PUOuhVRz5q5F9Svfucu+SI9Ku9BegW8lsVKlbK7GN62Sv7umHq525s/NCfYAGb9popppN7NmhzFXztvT8lYS617zmevtvQP7Ydf44A8BCEAAAhCAAAQgAIGYEdj31ZGePXsJ2fDggw890a//8y+8VFxaVVxaNXbc+Cf69X/wwYfE2Z69Ht331ZGInkt/LPfe9FqXBp5uU7p3+NXRfo9/M2L4/uRr9l51xdEBfb959qn913XMbv8fR5/se3LUiOyf/yTvzfQTQwbu+bf/7RlJ+J55eXl//etffT7f6dOng10lZPzAgQN3794dLEwI/+gW1Rfl7v7hxOaTBzecOLhh+6bPNmfOy5z995f/8tBzd9zwqq/zJ088/Pa9d/ZN7tD3ut8OvPW65+67851R/T9+5an5bzybu3VxCGMiPZWZmblq1apIr3KFN2X86tWrXb4NHh49enSx9duyZcsXQX4NRhJmgCDRf7FlyxZhg1qCHmaEIYJ179793XffDRGgkadcDdUV2/vvv3/bbbfpnlOtn+5z6623Tp8+XfcxDPe2eVoqmow3Bbapma2zpr+tz00Nr/w3TLUWuq986qmVQuGbV9luPxmfpF8uX78PloT2Lv2hzA1i6bu+qN5fxtvDJY5091bmyPiY3W+0CkOcEIAABCAAAQhAAAKNInDi1D/79R9wX/fuG7fsCHzK2rhlx33duz85cNCJU/8MPNugj0sFhHmY/bOfHO7zSF1llWEYJ8eMPNTNJ5YEf/vi8wfv+VNdrbmL9rdjR337wtgTwwZn/3tjZ+MNwyguLvb5fCF2cRMy3ufzRfcVuuhk/JltHxXtn19+dGlV7qq6wi0VJ1c/P/DBUQ/86bH/vM53TfvHru94xxU/u/c3v3zg2o49OnW4Oek//nRdh+f7PbTordEnNoRaWRBmKYhgW7duFWpn585Gfc1u7dq10cj4I0eOxI+Mj+HG9ffff/+0adOClcTOnTsDX00PFtjT39UyXWHef//9W265Rfccbv10n5tvvjk6Ga/LZtMMKa3d/kK9O/9uGCpFvp+M17a4UzEoh51NmYSZlhwLUATcgZ0U7X7T1PbidXdkfAAchREHBCAAAQhAAAIQgEC8EThTcOGZEc/dc889c+d/qts2b8Gie+6557lRo88UXND9w3fruiB8t5TxlVLG323L+PHjDt7z57raWuHfIjK+b9++4WdEhYxOxu+cPWL7x8N2/GP4zlnP7F7w9PaMYZ9MSvnw2b8M+cNNaX/6/T96de9zbcfn7rjlweuuffT66/5w9S9vu+oXD/7h+k8mPXN8XfTfxlM2C8cXX3whZPz27dtdpyI6jFLGG4Zx8ODBxYsXZ2dnR5ReDAOLRfUHD8byU36pqanPPvtsMCP79+8f4mywq3T/0Ivqs7KykpKS9E0LXTK+qKgoKSlp48aNepzhLarXpuWFJjQn4Z9aaa1v99jKXltmr+bwG5LxwZKwZLmp5JNUVOfLqhuU8efL5FvugTLelPces/HmGnvvwI0aUg2/YyUkBCAAAQhAAAIQgAAEzpdVF/54aWjq8Ece6anT6NmzV+qwp4pKKnXP8N2NXlT/2DcjhpmL6n+VdGTAX8wF9mJR/YC/fDPymT2/iNmi+tra2okTze9J5VQoUCYAACAASURBVOXl6bJFd4vZ+K5du27dulX3D9MdnYyvOrXu8vFlFUeXlh1a/uNXS0sOL/9y2ZRP0gZkDOj1+XMpy/r2fP622969/570++58sesfnvvDzfcl/+aPna7a/PHr3+9cGqZh4QRbsWJF1JvTqfijl/FKybfgFnex1fCGYSxZssTn8+3Zs0cBUo7Vq1f7fL7PPvtM+UThCL3FXUVFRadOndLT01XMLhk/adKkqLe4c8vmwzPusGbU3f5l1edthS+kbyNm42USTt+kLeD3SNc957z1NfGevP8L82rXOvtlePsqqfmDBHZscKeCwocABCAAAQhAAAIQgEDsCfTt+8T4l14pLq2a/8ni+Z8sLi6tevmvrz3xRL+on0tjuMVd9hU/dba4S/rp3va/sLa4ezmGW9zNmRNqBrtFtrir+G5bycH5Fw58UnJw0Y9fLSo/unL/krczRw1c2OfhBY/3fKnL7akdfvtJ7/sX/OX+t7r9YUTnW2+/8hdPd+2Sv/PTvP3rlECLE0ejZHxLKfmmmIcX5VFVVTVkyJBevXrt379flVBVVdXChQvvvffe4cOH19TUKP8oHA1+cG7+/PlXXnnlgQMHROTfWD/hPnDgwJVXXhk4jhDuB+dCvLgul82fL7PejVeL4cXae3m2odl4a6G+DHzemucXr98feucp+U6+Myigy3jn3fhNGeprc45nmbYHnjlFL3e2MxW7/XU6U9vzwTlGKCAAAQhAAAIQgAAE4oNAbl6Bz+d7++/vjnh2pFhE/cyI5yb/fZrP5zt1ujA6Jd+kH5wzd7Pv8Kt9HX61v/V+cK7qfO6FAwsvHFx0LufT8wc+u3xsxf7FU6b07jr+7v9M7XLLnUn/MeS6a2fcf9f0h/780p9+3/u6Tn+++oqsd8YU5yw7n3csCunXpJc0VsYrJZ+Tk9OkhqrIxUfjYz4Pr+IvKioaMmSIz+cbO3bsBx98MGHChAceeMDn8/Xp06egoEAFi85RWV2nN9rAEbX6+vpHH320U6dOruUlGzdu7Nix42uvvRaYrmuGX49faGlnzby9st1c3a72nzfDa/5WYHN5vP176qnw3413ReUk4Y7fGuy01+3771S/yVx+Y//sD8WLkVFzCb346bvTm0voxU9qeCv7QQLHR5/uX0CxH/clfghAAAIQgAAEIACBFieweu3n4in1sccf37hlx8YtOx57/HHhk7Vuc3TmVVabe9FF8TM/FH9Ne/HR+H3XtLc/I9/hKt1thhHBOlwVRRL6JT6fLyMjQ/cJdLfIbLxhGCVHlp7PWXD52PLvt36Ut23WkilpqXfe9PiNv3n2P296PLnDfVf/smenq17z3f7EzZ26/+43aY/ccWzt1MIvVwbaH7XPuXPnevbs2atXL/1N6ihii4GMNwzj8OHDX3/9dRTJR3HJ119/3XQaXthTXV2dmZnZt29f0dJ69uw5bdq0kpKSKKx1XRL4HntVQGusqqpKT0+/+uqru3Tp0sv63X777R07dvR8g6LKf1wguh6BqyAAAQhAAAIQgAAEIACBGBJ4e8o7991334wPZxUUV4hoC4orZnw4q1u3blOmvhddQq6PVbuERohDW6ILoR7GvyGiCudUt27d0tLSMkL+0tLS7rvvvnBi8wwT3bvxhmFcLj5ZduiTWelP39LxygfvvH7MgPvu6fjL1x760/Pd7xj2+xufueW6h37zq343dvJ1an//TR0/fvHJCwcWVhSc9LQhOs+lS5cKjRliG/9wYo6NjA8nJcIIAmWXavR2GzghL4KVl5fPnz//79Zv3rx55eXlngBDTsUz0wsBCEAAAhCAAAQgAAEItACBd6bNOHLie/2xX7iPnPh+2vszA/0b9Cm7FP27vTk3JH8Zhnrf3+GqLztclXNDsqfuCN9z6dKlPXr0EGI12L8PPPDA8uXLw4/TFTJqGW9+q/vkzluS2w94+E+3dGr/4B9vGfzQ3TNGD5w2vPd7Qx99+7Hu/W793Q0///ebr/pFtxt/u3bGmIrTMd7QvbCw8JFHHundu3dczMa7sHIYgkB1jd+6+vNl1VG/5eJ6077Bxk8ACEAAAhCAAAQgAAEIQCARCVTXRLmi3jCMwnmzc268Npw5+Zwbry2cNzuElomTU7mF9bmF4qt50Vi0Ydns+++86eGut8/524jXhvf924j+r6Y8NPYv3VLvv+ueG37b8Wf/dsMvf9HrzusLjm6OJvZmucacjb///u7NkhaJ2ARcE/Lny6ovVZpfa4zoF3JnuxYYcUzE3hCbIQABCEAAAhCAAAQgEP8EGjMVH5HEaDuBvzm4+6t1M4v2zpk+ut8Td986oFuX7rd3urPTVbe2v+LW9lc+2PnWY/ui+RJeswE0ZfzatWubLT0SMgyjtq4+sLOIaE6eefhAgPhAAAIQgAAEIAABCECgVRKojfq1eNRXSALnvju4Z8E7bz35UO/bf9fjhmue+GOXF1MHb1i2OORFcXHywQcfRMa3QEm4tqwX3U1JRU3gjncu46qq63gfvlX2zmQKAhCAAAQgAAEIQAACgQSi3qDepSM4bE0E/va3vyHjW6ZAL1W5X5IXjbakouZSZW11Tb0adKurN6pr6i9V1iLgA/s1fCAAAQhAAAIQgAAEINBaCVyqiv6V+JYROaTaLATuuusuZHyzkPZKJJiSb63dEPmCAAQgAAEIQAACEIAABMIkgIb3klD4mQR4N76F64Hn6vowGzbBIAABCEAAAhCAAAQgAIFWSYC19C2s0+I7eWR8y5dPbV194N71rbIzIlMQgAAEIAABCEAAAhCAQGgCZZdq2NOu5UVafFvAovp4KZ/qmjrEfOgejbMQgAAEIAABCEAAAhBoxQTKLtU05vvw8SJssKPpCTAb3/SMI0mhrt6orK6ruGzuZvdjOZ9/hwAEIAABCEAAAhCAAARaLYEfy6tLKmoqLtdWVtep/a0jUQ+EbaMEkPFttODJNgQgAAEIQAACEIAABCAAAQgkIgFkfCKWGjZDAAIQgAAEIAABCEAAAhCAQBslgIxvowVPtiEAAQhAAAIQgAAEIAABCEAgEQkg4xOx1LAZAhCAAAQgAAEIQAACEIAABNooAWR8Gy14sg0BCEAAAhCAAAQgAAEIQAACiUgAGZ+IpYbNEIAABCAAAQhAAAIQgAAEINBGCSDj22jBk20IQAACEIAABCAAAQhAAAIQSEQCyPhELDVshgAEIAABCEAAAhCAAAQgAIE2SgAZ30YLnmxDAAIQgAAEIAABCEAAAhCAQCISMGX8Zy8+mIimYzMEIAABCEAAAhCAAAQgAAEIQKCtETBl/NIpz7W1bJNfCEAAAhCAAAQgAAEIQAACEIBAIhIwZfzq1asT0XRshgAEIAABCEAAAhCAAAQgAAEItDUCpoxfOe+9ls12bmF9bmF9pDaUVFT9qu+cnzz0YYi/X/WdE2m0hIcABNoggWP55ekrcgd9cGjQB4fSV+Qeyy9vgxDIctQEqmrqCy5UFpdVF5VWnQv8K6kqKq0uuFBZU1sXdRJcCAEIQAACCUHgQrefBf4ZhvHG+n8N/EuIHGFkfBIwZfzCp24I0zhfwE9cGODtCzNCEezwmbrDZyJ+uCmpqLrjs0LXX8o3husvIksIDAEItDUC9YYxY913T7731ahZB5bv+efi7bkfbfxuwLv7Z6z7LuLBxbbGjvxaBKpq6oZ9dPT6MXtuHL3r+rRdN4/bfdNYv7+bx+2+5fk914/ZM+yjI5XVEd/swBwTAlVV9aVltSWltVVVtOyYECWSpiJwoaRk0puTU1Kf6T8otf+g1JTUZya9OflCSUlTpUe8sSYQqOEvdPsZMj7WmInPMGX8kgnhbnHn8/nS0tIyrF9aWprPZ8v1YP5hAo5OxhuG4dLwd3xW6NLwKd+EaQLBWpjAypUrH3jgAX08aN68eS1sUyTJJ7r9wfLaWvOl53f/yQv9/75/xurjuud3P5QOeXfvqr1ndU/csSXQamrXudKqa0ft/Hnqnutf2HvD+P0/H7w9adjOpNSd5r/qL3XHFU9lJ4/cWVhSGVuMxNYggdKy2i92ls2YU/DG1Pw3pubPmFOweUdpWXltgxcSIK4ItJoeIzTVdRs2PTl4eL+BQ/sPSn1m5JjnRj/ff1Bqv4FDnxw8fN2GTaGv5WycEEDGx0lBtHozrNn4EbeFmU+fz5eRkSECZ2Rk6DLe0z/MaCOV8R2e3fizwWs9/654eqNLyQexIW/hEEczpu8MEiqkd96CFN+kHYZh5C1ISVmQFzKsfjJv4ZCUhad1H929I92XbkYa9m/HJJ9mv5kv5/D0wpQIYws72RgH7NatW1pa2jz5++tf/+rz+aJS8i6ALtpauVtlZxiu8FHmK37sd9fG0wtT7JxGk7XY5ctVEGarcSpqNKbF5prauvq/vJU94oMvDcP4vvDiG58em7L8m+8LLxqGMeKDL//yVnZtXUMTd2Yrs38iR6pnCGZigwGMnemibxEx+If3b+PB0jAM/54heLiWOxO72hVlHmKFqLis+obRu2588cui0urCkqobXtjz85Qvrhy27YqhW69I3WY6zH+3Xzl81y3jdheVVgUxV5XsjnRZo3xDFuZZRel1i9F6M5/W7QeJ3dvbv6aZYU4vTLES1cJ7NF69fmohTWfEVJUNyuGKsXGHPxRUv/fx2ZEvf+/6e3/W2X+eDVYWIsloCKseeMckn1epeWQmYmIecUTh5b73+fczUUTY5JfErsfwLlmTgP8j045J2tOa1tWLhikyrErczn/j7rnrNmzqPyh1QMqwlauy6urMlTvHjp/oN3Co+Os/KDWkknc31SYvEhIIQiBmMl6rdc30yLTTuf/o9TxIRsPy3jFJ3dJ8Ie4doeMym6f73hT6iuY7W1NTU1npDNCXlzffW5nWu/EfvxVmXuNExusC/lfPbrzu+S90n5vSJulKPkjWYtnZuTvxIElK79BJu++s8qrg/+uPPlaDdx4d9FN+Eeg26G6/QM154BLt9fX1kydP1tq9n3P27NnBbXMB1HJnwXH6wZ0LrcEUV/jgEYc8Ez/2u2tj4x4pYpcvrSAskvEg42vr6jcfLHxs4q4l288YhjF5yfHHJu56bOKuyUvMmfkl2888NnHX5oOFIZS867FvxwJTdDm/oA3QCRLEpVdL64nTuXvpp4JcbXm3kDYIZZLrXOxqV+TSMaaIisuqr0/bdf34/YUlVWcvVF43bvfPBm1OGrpV/P1i8BdJlp5PSt1xcwgZr2qLh5D2LHR3m3LhDetQJapCe6QeWUIRVzxlg3IoYxrtqKquP/nd5Tem5rs0vDh8f9bZkHPyWsbN20dYI+zuHjhYFrTMRkwsWJyR+XtWqsiiaObQsesxvEvWLLsh9vSMyJoj480KoEl6U+rY9cFd4o24514oKXkyZdiAlGFnzxYIAz5ZtGTEyLFKxos5+eCr67V8BS2bcMJoF2sVVfNNEKdHb9ZMlsdExjfwgNFEWYlxiZsPMI4qMfIWTvJ/TAo3F3kLh6Sn+01bhntlM4RLT09/4YUXampqDMOoqalJSUmZOXNmM6RrGNai+rVr14aZWLDF88H8w4w20tl4Ido7T9hx6HSZSCKv+FLnCTuE//VPv9K2ZLzWT5m3k0npai4l+MOB3o/r7jBLLPbBXLdnwzDq6+uXL18up+ed/9PS0u67777gFrgeTZzcBaHhCh884pBn4sf+GD5SGIYRu3w5BSFAtriMr6quG/5O9qOvbX94/PpFm781DKPvhE0Pj1//8Pj1fSeYCxcXbf724fHrH31t+/B3sn8s85y1a6jyRH871HCZDTw9XS3hCTvOIBU+ZD1u3pOxq10tLOPPlVTdNHbXzwdv/93Y3cmjd/1s0Jafp3zxs0Fb/m3A5p8O3HLV09v+/cnNvxj8xRXDdt40Zte5ILPxfoIhYAWNV2lqlSTqggusTtoNRcYaWUJepsqYPP9XNiiHZ7CoPA8du7h6w49fH7806R1vJb91l/0U4RW9nnHd7RVW+rl7YOnv/l/LbMTE3HFFd9xQ9xVdrE15Vex6DL00HbdVdjv09ZKyVZpSxJkDsPKoClo57Kw3QsZPenNyv4FDV67KElGd+u57XcAr96Q3JwfB7OQlSABz/aieweDB5BmtokqvxPnfozdrJuNjIeNbqIXGtMTdrSNq/KJZxdS2qG0JvPDQoUPdu3d/8cUXa2vNd7VWrlzp8/k++uijwJAx9zFn4yOS8X6zotq78Z7+YZobnYzfdvx8ycWax97/stvb2XnFl/KKLzVOxlsNxl5Mkr7D7OmsPKlJMGediT0iq2qncoSXX60PteaHBTp5h9DNkLcNqyfaYS738vn08WA7PSdC65ajDqXDbbnMms/nm7TcebnAfHBUizm1UefwctXIUIG352ARzps3T73N4RXG1fFJCEEXz7vCe0UZhl/82O+ujY14pPCU8cFgNFQuqiDsCHQZ7yy4ks3NysUOUTnNcVxZh2UzsZb+ipYjp0SCGRbM/6V/fNnz5S2f7zPn4UP89nx9tufLW176h7nq3v0Lckexi0DaLNqs5bnQXKw2aYcsox3psjmbg+7+yk2GMYyd6SkL8tShcpiLn20CsqOwKvlCs6Mw26/SBhZec+LIGtq3rrHSsgLIJq+RV7Gqt3tUAdlj6k7SYc1PurnJ41i1GmWeveLOMU+R0SuM4ykROV2iU8GkkeH8X1RadUParmtG7Vm679zi7MJfPb397ay8DYfPD/7H0XWHik/8cHHBzrPJY0ydf9PY3ee8343XOiL/mmMb4FHZ3G3KDKmulQVqPbXLpmK/Pqbym7Jwgd/rG2YMHg++7oRUJbQcdjtVyx0lVbMGyhlLlaKCr3w0G1QeG7jlhVMmZpiamvr8H6qWrCrOXBdUyc+YUxB8xzst4xoWpx05nY9sR770hfIlO8VBLwK7maticpqqjMHpBxQiG5pF2+5DnIKWfYgoOPmcIC5xehjxsoM2J2Z6uN7gC12sei7sZuKfC/mCobQw3FKKIFysegw/KetfsvbtRjYfKePdrEyjZXVV3OycNOKem5L6dP9BqWItvbWc/pvnX3r1+ZdeHTT0aaXh+w0cmpL6TBBqWo21Q8h65RMzok6lcldFO8tOALOUA4pYxOrZ8N01RAOrvWCyI91KyGlEToX3y5MrgOfdStRqu3eTReY0k5cmBdwibfP9n3v90o3VQQxkvKxgbpMCCiWs4vC6O5hUF5gPEn49Q2C63h2yqipaH+62NbBCyhBWnAvFPcIvfnWPkCGt/+UTo9MSnRpi1oBGPYr4pRTtQU5OTrdu3V599VXRfhcvXuzz+RYuXBhtfOFeF5mMDzfWCMNFJ+MNw5i46lsh3SeuMifThDup52i19d1NU/Zf2+1VL3NU/VPC2OrsrA7FqhxCx5rB3A92soqrvls5vBIK9JPV2nzWVGpZ3W4dM8wOVHRM1lOpaGambQG9nuwi7fptPz1ofahthLTc7x6mDc1GmJHArEXvE7vbs9PILWs02rKX97fSFd7/ZNhH8WO/f9dm3eACKkzY2fKYjQ92bRgy3r7bqv9EyzKf9aWFqnprbTBIi1Cl6dTqYKZ5+z88ftPD481Z9083nRLuwH/fXXLUMAwV0hVRsPbi+Gu2WTkKWIQpAgQ2VXHHtfJoN2c7Kq0+B+k91P1YXKiQBj61ayrLVFzqQpFNlQstBuuMbq2WQReccA5j12qcMQtrdCOgX/XubOVVjcuFYRjmovpROzuO2VtbV19dU/ebZ3d8cfRHi0B9ycUa8VLGkr3nfjZ4+83jdnvPxutUFTvzcU0+nXgECLiLaRmRxScrjBmnc4OQLc6KQbY+O1nvhBRSM5SMXAwMue+VARUvbBuU/Q3d8hSh0I7yirqFS4sOHrm4bPX5YEr+jan5pWXB9rrTCKsOR0tScjCDyeZj9lfCbbdca0pAntUamsqstZuALGj1JOABTe9DHCtUPBo0qxWYNUda6JS+c6GsD8pHBbYSchWrhz3qQl3Qyow4J2Poil2P4V2yioDqD20Z79EonAEvC5e6rTXqniv2tAskNv2DfygZP3DIU/0HpQaGsXz0YnIFUY86WhhVeVRV0Xzs6wN97BHhBmuISnFH+pAUe5WoHZs65TJSHboDeN6tgj88hOg2VRKRL0zQL216t6qNQZOSRePVYLWuRlwvA+sduAkwsGdzhgnks5nWt5hpWbcMDb7XfcQ2Wi9H61nOJ1O04rTllRa/6rv8c+3EI/tV53ygj3OueV179+7t2rXrxIkT6+vNPZXmz5/v8/lWrlzZpFa0Whl/6/TDHZ5b/ptRWde8vMeLoNaR2aedWqLuSWKoT8p4d7+v2phyqISsHsfszdXNW51yJLQ1yab8ZSSaGeouq99CdLe6WLRPNQYsDp1G67bcscGMQUNhtV6ZXxW7CGPfpbzO6iGjdMfu9qwD1HPn8ld2BvNXAcJyxI/9siJJs1WtkB4R/R+7fGnVzLJAjq2a7zupWV+lNLRcaBeqyq/fZtRdIaKMGcYDY9Y/MGa9IR3i8KMVRzftPfPRiqPiUA/gEb3TxPxOOsZrARxP9cBkXWT1FX4aScYlaqbiIw5ldW2497Du4n7veVr9gHbP9rv5KbZmtyN/5t1a4y8siwV8EVPsapcU5Nbwh97r2ti9ccmr9GcIST+i/4tKq65P2/Xb0dk/VlQXl1VdPWL76q+KauvqP/4i/8ohXwz+x9Hq2rqCkqoOadnXp+0sKq32iNzhr5/U4HsE0M5aF7nlhFl8Wmlad6SFp1WNsq7RqqidcHgJCcietdqUQH4VL2wblDG6DbpbZxOe++g3lz6aX3joaFAl/8bU/JLSEDJetE2lrkWqWo4EZK1ZKSayfdnTj268KrP+mwI6V8lWaP1vmqFitqIKuK37g7LjUZ5acpKc7EzksYpfObQnfi3LdkXyezAQYkC/UMYay/9j12OotuNXspr9NpxQs/Hy3qpdZWVW+keRc7EjvVDsA1KGpY17cfnK1XV1daWlpZ8tWfbxnIy9+758ZuSYiGS81i0o4W3fcbRTVi2btMMSUf4Prh41x68qyux71BC7Eprd7w5xo9fu+1LOeWMK527l35XJB2ZpjywLrW06SWl3sSZ6pv3dwh8D/wzDqF77PwP/HMN0lxd567y77etZlm6P1u3Xo0gp7pH9wHRVN+Is11ItyLIo8BI7I/7BTE/ZH3rEaV8j+0D70PxPj193B9zxtWtawLlv375777339ddfFzJ+4cKFPp9v2bJlTWpKZDLerxJYB8K4YP5hmh7dbHxe8SWxqP6x978suViz7fh5MRv/iwdGdHp+3dXPLOv4xpfXvnvq2ndPeZnhVbfUvIdWS2R9MpuNXd1l5ZOtxa9H80rL5Se7Hu8nS73tSbdM0YxIdzsRmyHVWj4RZqG9FYSH5f6P5m4UwXWFk17MXU1wexY2qtxpHPysl5D9PCM+iB/7VbW089CIR4pmWVQvm4Ntrl0cWi5UCWqVX2uhEReVvKD7yDXdR64xDEM4xL8F5y8ZhlFw/pLyVAHkddr/pvzTxyDsU47xmp2Op7+Mtx6k7IcqLWrTaXY+C9S24RYHtQS64d5DynjXQ4wlWdVounMLtzsW7aHWNj6ggWiZchkc6WHsWo0U5AE3dRu7Ny7tKnt+SXbyEeZEbHHXccze0ks1Fyqqr352x5qDxfX19d3fzvmXPhuuGbnzQkV1ycXqjmP2Xj9qZ7HnPgveHbtX5Xds085annodk6ECik8+7NoBAkvTw5KgCekpKrct452KF7YNyhjdBt0tcxXm/7W19d+cuvzV4YshlPz02eEtqle2mQBlgxWe/hbqHKz2JR9bhdEqsBOhXz2UjxyB0PQnDe12piJUDishGY8hhKiUozo5dxLKcuXwl/Guvs7DBv1CPaVYuWPXY2hVWisI3X6zZ560Q3LTMiszowIrh32mEffclFS/xfNCz+/YuVumadTV1YnPyCsff4eWL+uEyIVwylfinTBuy2VcQt7bdweNjzyvV0XldlcnM7B1bd6CdDEIlb7T/3av3YxUzH4OLYCqz2YAu6r7xyZ7Nr9M+TcKO3K10NV/BM0v6UYfBGr43y00l2gFavjqtf/TOzXvBwytKsrc6Vm23fKUilkPozz9qCrfwBLXY7Pd/sUdeImMTS1sUR7irQpZiJa3Hr9XoaiZUSk2ZV/kf6FMomX+/+qrr7p16/bKK6+IRfXLli2Lx0X1wbayC+YfJsvoZHznCTvyis1nbvNOo21x979u6vXbl7cLAR87Ge/cuc0OznpAUa1COcLKr6p2ZhOVTwPOk4HeNqRbXeL0X66kzH45RW2CZU2gyUMPy0PLeO3O7UpFHqrORXc4D20yWCT/x+72bD4SySWj5g3GWTJkjr8q4Ia4tajp30iM9QgbP/a7a2MjHimaRcYHlJc1SKzlwnnmcPp9v7bjURzheHV7elW3p1cZhiEc4t/XPtxrGMZrH+5VniqAZ5xmZXNqvr0Fq2O8dm9zPHUZLwLoDVxLxrxkiPMxS79DPwKqjcsew4pE3KH9moAduR1Mbyn2vVa1aOtWqtS+alBmBH5Ja+ZG7oxtq3GGWZ1mLsn42Sw9Ax8XtPKKKDdqNv7Cxerz5VW/HrF9zcGi+vr6B/9+4N/6bUoes+t8edWFiurfjs6+Pm1XkA/O+ZWdnbr2uOk3HWGf1pqG8DG7OPl844Txn1uzci0XLJhPhH6F632LcSekKrNy6HeNgIpnpiJTtM3Snu00GxR/vUXobvvqCP7buqts7ecXDh4NquQ37ygNHp2ecfn07NFG5CkzInNOUmRWPiL7Zd/JuMqsfz30vEpYqNF26rDTwPVKrhlpba6x0H509suqu8qp+JVDK1a/XFjReNigX2jWWNE36g6re/ezIpKD2PUYXiWr98ymVWYY+Rwl3hLXnx+cT9P55Vq0oGizKba4U+vnhWP23PkK0spVWf0GqCPFSwAAIABJREFUDg1/izunvjnVQ8u7R48hk1L1UznkGa1WWJjszSACa4iYek1PFzuTmw05JeDzt+5KqCUinMHvVtpNSpgkujK/4vDqPcwmYxeQ2VrNG4dqL7rDubMHGBWGRwxkvMigY4Z4wGig3cnsBxSHV1nL3sY/P4ElrmOUbqdqmS3Fvo94RSgh24nIYU0Zj+ntVE6tLByj3JVEJu3yN82wHgN0h9NmnfiawHX48OHu3buPHz9ebHG3atUqn883a9asJkjKHWXEs/Ge34cP9iE6d2pBjqOT8WLuPfDff/nTUF3DB5+Nl8M69k1XqxBaJVaV0mz51k9tBS9bixqMDJI9x9uszbqSNO9z8mc/g8oBResiaZKrujut2onauZeLKzV1EWi53eVZu23pbhVSUyZOEo5L7+nEU6NuoRMuAlfsbs9mhpz9S1wPtabl9k8+VopCsT1lKURguQgaP/aramnnIe5lvF95ybqt5UJ75tCrmdZ2ZFFGVmr3pK64J3WFYRjCof51+ajDYLE7rUaqR814p8lrnrLH0G5duqJ2EtICmJ5mlrV7kkZA1lvZY1hR+PddKQtPO1VdhDcDTJJdkHzuNC2xfuYp29NpUDZqLeno4Is8xrLVCJNE/dHMk2QEPZk1e6c3OQvqhHdpYKcoQruKy2tuSNvVcczeisrasks1Vz+7Y8PXxYZhPPT3A//ad2PymF1ll2oqLtd2HLP3hrRdxeVei+otzWB9AtMafJSWqvdNVGlqlmhNQ/pqtVGtLHDKXXbsysdrayK9ldnROhVAvCmmKrNyiPuIqAzKVMsYUWNVimrYS/loNqg7r26D7pbZDP//ktLa6bMLsjb+GKjk35ia/97HZ4O/GC9uJa4WZ9YQjzbi3FmcZXGKg9+rDbKhSU8zfi2k7laIbGgu2qKOqAcSa5QzPV1szat3FNbIgtMQHHZa/JaYUfErh16s0mArWauhqcqmbNAvTBwZLzoHs2T97A/scp1SVtXYpOm+qhH3XPHBOSXjZ83J2LT5i6PHzA+gGoZx9mzBgJRhTw4eHvKDc3bfYb/UqWzWPndiF5xVFVUhmruE+e1ppzpDUU+0huCfZS37Wo2St3KpuERr8uiUrJrpmle3h8NETkTVNdtIwN2qoYcHO1E7awKi+a+yU37AzKRk5Vd3yCw410XiiomMF7VLlqhdBKrIPNudZ3EIhupCBUTveZzMOTdEuXWc3gk7boXR6cO9I3SAm1kRxlj9lfzynBmnZ99lGaXuC8pEa2RwhXxWsfikWO+LichbQManp6ePHz9e/+Bc82xTb39wbs0ac2VpOL9gcj2YfzhxGoYRqYzv8OzGQPVu+6Ss+okv9bdv7O00+ZgS82GaQbAWJNCtW7e0tDTns3LBXQ19cK5lMpHo9gej1lrz9X+e0P6csvTPKUsNw5iz4tDIv33++OhVd/WfLzzv6j//8dGrRv7t8zkrDukhg1FKUP8gd9zmy02rqV3FZdU3jt7Vacze785dzi289JtndyzeW1heWXv/5K/+vf/nyWN25RZe+u7c5U5j9t44eldxmaeMt7SEo/FcpeA3QOM6F+ND5yktxhG3VHT5P1TNmFOw9vMLYnX9wSMXl6wqXr3hx5PfXf6hIEhZtJStjUk3aME1Y+VpjP1hXNtqeowQeV23YZN6Q37f/hwRsq6ubuWqrAEpw/oPSl23wdyZtXX9dqQH7frsjLb43SpS4LGS8ZGm2yLhtbGDqNIP2ndFFVtLXFRTU1NZWalSLi8vV+6mdqxZs6ZdRDI+LS0tw/qlpaWp734186J6ASWp52jPv2tfWXH7nLzkN7/sOOnL5L9/E2Q2vqnBEn9kBJYtW3b//ffLQcdQ/z/wwAPLly+PLPamD53o9gcj1FrzZRjG42mr/9j/s2/zLgTLu/D/Nu/CH/t/9nja6tDBEvFsiz8YtZraVVhSmTxy55VPZ3ccnd1xzN6kYTuvGZV97fP7fvn0rv8YuuOKYeYm9h1HZ1/5dHbyyJ3eO9WbFUjNIbhrkzaj5T4V++PEf6IKZFJSWvvFrrITuZePfnNp4dKiM/+sOnTsUlW1uZlw6/kFKThzCq4hjZQoEFpNjxEa+Nr1G58cPLzfwKFPpgwbMWqs2NPOPBw8vDVqeHMEs8FVXS1+twpdZIFn25KMd9b5B3IIyydI3xXWtW0+UMQy3iWwBECXp5L3YeKNdDZeRKu+KhfMcctH3/72jeyOfzsQphkEgwAE2g6B/LPld/xl4R1/WTji9U3T5n05e+nXa7ed+upI4VdHCtduOzV76dfT5n054vVNIkz+2eYbW222Iki4B6NmIxNpQpXVdcM+OnL9mD03jdl94+hdN43dfcPoXden7bpxzO6bxu6+edwe03PM7uvHZA/76EhVTV2k8Tdr+Nb7RFVTY+r28oo64WhWqs2QmEfBWateG7c2uBkMJ4lAAhdKSia9OTkl9Zn+g1LFnnaT3pwcfC19YAStzSfh7latXsYHLtGPvs559F3RR9bWroxMxjcRndzC+tzCiMfFuy07F0zAK/8/fHr2jn+caCKziRYCEEhoAuUVVas3f/vXqdu7PJrh+ffXqdvnrzxSXlGV0NnE+GYgUFNbX3Chsrisuqi06lxpVVFptXIXl5nu4rLqgguV8a7hm4EUSUAAAhCAAAQgEAsCcSHjY5ER4oAABCAAAQhAAAIQgAAEIAABCLR+Asj41l/G5BACEIAABCAAAQhAAAIQgAAEWg0BU8ZnZWW1mvyQEQhAAAIQgAAEIAABCEAAAhCAQCsmgIxvxYVL1iAAAQhAAAIQgAAEIAABCECgtRFAxre2EiU/EIAABCAAAQhAAAIQgAAEINCKCZgyfvXqVvhJ5FZcZmQNAhCAAAQgAAEIQAACEIAABNosgX79+iHj22zpk3EIQAACEIAABCAAAQhAAAIQSDACd911FzI+wcoMcyEAAQhAAAIQgAAEIAABCECgzRIwZfyqVavabP7JOAQgAAEIQAACEIAABCAAAQhAIIEImIvqkfEJVGCYCgEIQAACEIAABCAAAQhAAAJtmcDq1avbZWZmtmUE5B0CEIAABCAAAQhAAAIQgAAEIJAoBEwZv3LlykQxFzshAAEIQAACEIAABCAAAQhAAAJtmYAp41esWJF3Jo8/CEAAAhCAAAQgAAEIQAACEIAABOKcgCnjly9fntylB38QgAAEIAABCEAAAhCAAAQgAAEIxDmBVatWtVu2bFmcW4l5EIAABCAAAQhAAAIQgAAEIAABCCR36WHK+Pfeew8WEIAABCAAAQhAAAIQgAAEIAABCMQ/AVPGz//ks/g3FAshAAEIQAACEIAABCAAAQhAAAIQ+OCDD9plLFwECAhAAAIQgAAEIAABCEAAAhCAAATin8CsWbOQ8WzvBwEIQAACEIAABCAAAQhAAAIQSAwC8+bNQ8YnRlHF/5gQFkIAAhCAAAQgAAEIQAACEIBAUxPIyMhAxiPjIQABCEAAAhCAAAQgAAEIQAACiUFg/vz5yPjEKKqmHtEhfghAAAIQgAAEIAABCEAAAhCIfwLIeDQ8BCAAAQhAAAIQgAAEIAABCEAgYQgg4xOmqOJ/TAgLIQABCEAAAhCAAAQgAAEIQKCpCfBuPDIeAhCAAAQgAAEIQAACEIAABCCQMASmTZvGu/EJU1pNPahD/BCAAAQgAAEIQAACEIAABCAQ5wQWLVqEjEfGQwACEIAABCAAAQhAAAIQgAAEEoPAJ598goxPjKKK8wEhzIMABCAAAQhAAAIQgAAEIACBZiCAjEfDQwACEIAABCAAAQhAAAIQgAAEEobAwoUL281b8GkzDBiQBAQgAAEIQAACEIAABCAAAQhAAAKNJDB58mQW1SfMoEsjC5vLIQABCEAAAhCAAAQgAAEIQCDRCZiL6qdOm57o2cB+CEAAAhCAAAQgAAEIQAACEIBAWyBgyvhhTz/bFrJKHiEAAQhAAAIQgAAEIAABCEAAAolOwJTxj/Tqk+jZwH4IQAACEIAABCAAAQhAAAIQgEBbIGDKeF/X+9pCVskjBCAAAQhAAAIQgAAEIAABCEAg0QmYMv7urt0SPRvYDwEIQAACEIAABCAAAQhAAAIQaAsETBn/0COPtoWskkcIQAACEIAABCAAAQhAAAIQgECiEzC/G5/61IhEzwb2QwACEIAABCAAAQhAAAIQgAAE2gIBU8ZPnTajLWSVPEIAAhCAAAQgAAEIQAACEIAABBKdgCnjMxYuSvRsYD8EIAABCEAAAhCAAAQgAAEIQKAtEDBl/LwFn7aurG7MNaxf+aG3u/RoXVkjO01F4O2cClFrctc0VRJURQhAAAIQgAAEIAABCEAAAo0n0Jyz8VJdC7Xk929F9nsx1E4yoaaV8TIVv4wYlZcqivKOb8p4r1eTjSAsy5NJ1hZkjfPkJm1rWgJ+SXd9dXFWzpmi8mppnGHUVleWFBxY817jq2kzxICMbwbIJAEBCEAAAhCAAAQgAAEINJ4AMt5Pi0YCVEplR7b6u6oKshdOiCRCtyW9JglhfME1xuHIeMOozNs43GO8QNoWjYwf+UrG1uxTF8rOh72Woc+UuYcu+GdeO8rb2BgIzXYtMr7ZUJMQBCAAAQhAAAIQgAAEINAYAi0h4y+d2bZ+a5bf35q3R7pFbCNy1RgRG74ZMhU9O1sOHTtbUVmrRGx17prolbyU6+6lCtJfpFKdu+qlAFbStmhkfITX9pm97Zw2A19VkX/quFW+u7OPn8k9V1F5ChkffqUiJAQgAAEIQAACEIAABCAAgQYItISMj0ZbNpANfx0boRD1mM0OJ7ngqaTMzDplv2htGBe2TQonNo8wUq4Hl/FivKAqd24f1+XBbWs4sxFdO2TuSanhay8cWDSla8Pxu0yNl0Nm4/0bUbyUC1ZBAAIQgAAEIAABCEAAAi4CyPio5UpouTshK1/OyZ9cE524bUjGVxzLKRBpVB5Z7J9EaNtCZzmSaz8+XmnnsiJ7xhBX3UqsQ2R8YpUX1kIAAhCAAAQgAAEIQKDNEohLGZ8yc5m+WVptddm5M9vcM72zs8uFgjyzrMuEuTkFYil77ooeyV28hOik/UUegnPIuEX7c0vUfHJ1Wd7+ua/qclSLqo+aY7+wbWqQVPS56PcOlYkUa3Pn6v5dRk5cdchcbS7X3leWX8jds2KcNqMuBbxtsfzvzDIrHnm2Ivu9CZvOipPVB+YEMdsv6R5dX12xLU9LukQHKzMr07P/D/py+5BPTtpBivaEu49d11cXbzpUUFYl06itLjt7PGvqSL8WuOaMOF2WMzs5ZWbW8QtlglVtRX6OH6jkLj3MCI9fcCKsqi47u3uaX64bBp7cpUdQGS8MkAZXll84tn5m0+1f6MfBLxehB184CwEIQAACEIAABCAAAQi0FQJxJ+O7zthfJCWTlHr2/5Wn9O3clIwvOHBE6nDDsL4WJuWoWr3fZ3Z2iYhEf1l9wicn1dJ3LanaC9rEsooq94AtmA3DEKvc1algW8EpCyuyTdlv/bneJNeSNarOLJPbzkuhrp82DCNQxvdIVsMT5YfedgYCvG0bvjTXHlnwj7ho32xrMl9e5X/WCCrjVxyzRyIKNoW3tUEwAwzDkDZYlBwZv1UWnGNT5amNg6S+HbTIM0c2KJN5eMCDyfhgtdG/KsrClVYhxSEAAQhAAAIQgAAEIAABCDQdgZaQ8Y4iky4lFMdtzJUavuzU7g+nThn3+pRpq47nS8+inWrWV4lkwzCq87fNHhRUxE5YlmfrfF0rvr3P1vBlp7a+PWJIcpeRryw9bqtcpf/VxL5pacWBpfpn5KTodQK75NwQua5evdzuWGKUn9mUMXPc61PGfbjxwFk5DHF+/yuWFOw1zsz4JntZfsWBhebhuNcniElgKfLtaF/Zae8SX7ZvtqwoXrap1QHlZ7JmvNS1S49ek9YcsEc3RFQjh5up7LaTLT8+1zycMm6c/1S5EquvywUOQQn4Aek6Qy5PMKrzD22cZkY+88NtZ+yZdqP62CK5oEDKeJO6BDVtW4FcwK+2G5h/4JKoQmbRWBVg5HCT53GxbCG5S7jAvWX8SFkbqy5kW0XfdcTsTfl2YeWuCdxZ0C+/sizwhAAEIAABCEAAAhCAAAQgEEsC8SXjpx2yNVJZjpgfllkdJ7Wls0DdkfEh3wwfohZL+8U5cqstVs/u1j/Y9soeIYmrD8wRSUs9bBj5W1x7zstTwUWsS28nqzfJS/SZ8x7JXdTaeOPYIpnlLj3cl0v9HOCv1hqo8YJA216SYwoFm+Scv6kz5WR+5ZHFUnYGXuuYJMNYPs64QLD1CPqFygB9QYQZoOsc+YL9+f3jRB6VjK8tyHKsHTL3uF098rcICd2QqZEAV/XEWtBhGiZro/8LC33W2GsQzu5WiwL8sMhiwhMCEIAABCAAAQhAAAIQgEBTEGgJGa9/oU18di5DzLHPtFdQ1+Z+4kytCymoXsOuyJ4hfJSMVz7C3++t9blrzogpXPf31VfZb1/nr5czwEJ9yRnjsn0zLdxSKBoFWW6T5KmgMn7KtvP2XLH48PtEOf9/bKl/ol16dF2aK4Kab4NLHRgg1+0MevgrRW3P5wfaJn3yt/pvhicxlhyaaKcrQwbNl+SsEm0wpBmzjFauOFDZTO7yngQlISsZf3KFFqxHsvSXlNSFhrl2Y5J71UBEwANkvKyN7typRRba0n1ZZH7W4gkBCEAAAhCAAAQgAAEIQKAJCLSEjHfrIikLldLzChCgsqT+lG+MawpKKsbaansZtt9742ZyKjYhngP/lUJRRuVhUohTIkfOq+NiCMBDfqsSVZJYvV8QwWx8j+QuzqIDa9VAgG0q/sCsCh8ngwHXKiNdjj5yRYNxZpl7jEOVqXQoA7QMqiJzk3HLdRlJgH/XGYeK5E6BZj4uFRxY5ew/545Wtz/AHlUl5Gy85BCMmEfFk3bqCeGGAAQgAAEIQAACEIAABCAQUwKtWsaXF+Sqd7/9P4emNFswjdZ4Ga8m2I38rWL1dUSq8v9I3GDhvf37yHENcyG6lKBKnCvVGizDKmTIwRQlvC2HTNHcWbChF8WVATGV8aYZ1ncN5Av2ZvYqz+0Xu/15gxLtJ8AeVSWQ8f6lzNgEBCAAAQhAAAIQgAAEIBBfBOJKxktZ6LGovsdc+9tmatd3GdhjUlQTsUqt+e0/36PrevuL61KzBSsVLSr38EmIUz2S+yyWu685O7cpoRi4qD55kVxUby/mN+0JpkKD+TsvmeedkdvUybfW1cy5l4r2l20h8+UPQW4lYOjb7PvHJsEqAzwW1au3D+Qy9YBZdzvOYP6mVSOHf7g11/4GoVG0c4q+5iIc4Kp0ZJWQFcwZ4JB58YfgnV/CQAACEIAABCAAAQhAAAIQaBoCcSXjlVY3ivbM9HuFW21xd+m4/CS4VFmhZXyXHsPl6/F+UlNu7Wb4b3EXIMlCaNqgp7q+uuaY1JN+7+RLrW6c3z/RbxW62uKu+sDHjlYMJteD+Sd3GTL3pNz0Xsy6OxJUvUbuv8WdR60Kmq8AOD2S+6w4Jj8iYJSfcX/+vUuPXlO35h7aaF2otHr1saV+L7E7ow9y2ULAO/CSSSgZb4WRWxvYH8mLBHiAjFfbMfhvcedBTJrHKQhAAAIQgAAEIAABCEAAAk1PwJTxWVlZHgot9mmHoQ+Vujaqi44HfnCuOneVWrwdrozX3xs3nC3iX5Ji2Kg8e3zZh1OeGzEkOWXCuKmLs3LOlJ0UylPbmM3Rw0qzyezoO/btOZ57zhHSanW3xKu0tFF5Pjfwg3P6F9GTuziDGmXH10x8fcqH+/bPtQpFWq72pVcm+etq82ttcja+S49BUgMbVQUHVs0f9/JLXbuMHP76zA/XH8otyZVfaOuR3EW90l9xbOnMca8vzt7pv8+cf8XQPiNnLWgvKTiWsztr/dZNObn5JRYKOf/fdVGu/GJcRX5O4AfntOxIU+WrDTKDbv+NByyMw1PMAF1HvPfJEfsjgmI2Xts8r2HgATK+R7KzlKMid9viieYH/4YMennKtKX7j50r2PaetMofiCxrzkIAAhCAAAQgAAEIQAACEGgSAnEm47v0GL7wuN+mZc673NVFO/Wv0IUv480vuqlPxzvT4+OcOXMnEeGSytPZX13Tw1KnSRnvvlgcV+fnrBjnN+Vuld+4FQfs7evdlwVo/h6a7hWB7TXnoWR8lx6DVtmb85vX+Jk94ZOTtsp1p+23oiFgSt+h4V0Fu07ena/m5AOitifGTa07ZOIW9e13V7iKY0u17/m55bpM1+0fpAicwZoeyWED95DxXYa8vfOCHHpwGyy+PiArg7QQSQ8BCEAAAhCAAAQgAAEIQKCJCcSdjDenVV9dvOn4hTKlDKuqy/IOLZvqtxI7uUtEMr5Hch/1cXWj7OQa+1vxfabM3XOmqFybP79UkX9o94evqg/CSaHop4eFZpOndH1XW11ZUnBgz5qJ1vywt8brM+XDbblOouYlZ7K1/dW1q4ZMXH9GcagsOSReKAgt4/UxC38ZbwrpcYv2556rqFS7u1dVl509vmnOFL9XGPrMzDolw9RWl+XM10wKolf7vPT2qkN+MQsU2xa/4o+i19SN2XkVlU7hVpjLLhzgVvxuuS4Tdfu/t+xQQdklrfjKLxzbttg9ehIecC8Zb6bba+rWA2clDcMwqqrLzgUrL2lnEzfahosDAyAAAQhAAAIQgAAEIACB1kugOWU8IgcCEIAABCAAAQhAAAIQgAAEIACBRhEwZfzq1auZ34MABCAAAQhAAAIQgAAEIAABCEAg/gksWLAAGd+ogZD4L2MshAAEIAABCEAAAhCAAAQgAIFWQ2A+Mr7VlCUZgQAEIAABCEAAAhCAAAQgAIFWTwAZz1Q8BCAAAQhAAAIQgAAEIAABCEAgYQgg4xOmqFr9kBIZhAAEIAABCEAAAhCAAAQgAIEGCSDjkfEQgAAEIAABCEAAAhCAAAQgAIGEIYCMT5iianBIhgAQgAAEIAABCEAAAhCAAAQg0OoJIOOR8RCAAAQgAAEIQAACEIAABCAAgYQhgIxPmKJq9UNKZBACEIAABCAAAQhAAAIQgAAEGiSAjEfGQwACEIAABCAAAQhAAAIQgAAEEoZA88n4m+9+tFvvob0GjuydMoq/8An0GjiyW++hN9/9aINDMgSAAAQgAAEIQAACEIAABCAAgVZPoJlk/M13P4qAD1+6B4bsNXAkSr7Vt0YyCAEIQAACEIAABCAAAQhAoEECzSTju/UeGihN8YmIQLfeQxssTgJAAAIQgAAEIAABCEAAAhCAQOsm0Ewynqn4iBS7Z+BeA0e27rpI7iAAAQhAAAIQgAAEIAABCECgQQLNJOM9dSmekRJosDgJAAEIQAACEIAABCAAAQhAAAKtmwAyPpH222vddZHcQQACEIAABCAAAQhAAAIQgECDBJDxyPiE+axCg7WZABCAAAQgAAEIQAACEIAABFo9AWQ8Mh4ZDwEIQAACEIAABCAAAQhAAAIJQ8CU8bNnz27q4YpIXwInvCeBpi4m4ocABCAAAQhAAAIQgAAEIACBOCdgyvhZs2Y1tZWeohTPSAk0dTERPwQgAAEIQAACEIAABCAAAQjEOQEW1bOoPmGWjsR5W8I8CEAAAhCAAAQgAAEIQAACzUAAGY+MR8ZDAAIQgAAEIAABCEAAAhCAQMIQQMYj4xOmsjbDsBZJQAACEIAABCAAAQhAAAIQiHMCbUbG7ygwjILNKV6iPcQpz/CN94w2xTivTK3LvNnZ5UZZTpPv/ti6oDEkBAEIQAACEIAABCAAAQg0OYH4lfEZxy8Zrt/Z7Ej3hHPCh1DOIU41XrF7xhBtinEj+TbmuorGqMh+r8kra7DsL8szrcld42XAe4fKDMPI2xjs2uD+yHgvnl3whAAEIAABCEAAAhCAAARamEB8y/iLJzMcGZx5+KJhGJcOL/KaUXeCBTkbQjmHONVgtNEFiDbF4JqzmauRKeP9ZPOaM6aSjkYtx8DyZXlGWXmFZ+pv51REaxgyPgZFEzc1lrxAAAIQgAAEIAABCECg9RBIIBlv6vPNZw3DT9sHEe2B6jqEcg5xKjCemPhEm2LciKIAGd+lR7I17+2n7Ztr5tacjS+vKPNYEbAx16jIzfNW+A3BRMa3nm6uobImpxCAAAQgAAEIQAACEEgkAgkm43svOnlRm5A3Vb385e9Qkl7M24sTcvZeKGfzcvvnhLdFdXa+PHXxeKazGj9Fj81wrjL1vHOJ34v3IkLzX2fQQTO1YLOdojI4XEfcqBEvGd+lhymntQl5sdbdguosuRdh1Cnr5XNTMIuf6110ey5dnNNidnFQcbouT15zxig/tCzHX8aLhQMizvJDb+tjDWIFvnWqLGej6914ZbPhMV6QSG3eRY9DCEAAAhCAAAQgAAEIQCCxCCSajLeUs62lF53MV3rbFMa2YjcFs3yLPuN4gb0I319UWy/eyx3vxCm1AZ4l9aWSt4S6jM0aRDDkqVFO5K5lAiJCdZXrrD2UIFOPZHo/buqWt4w3VbcUxkJa2wabytlW8kIM25P2UlFrh/6C3zizzJbZltSXkbs42GmZIlyF75Hcxbwkd00P0yo5BGCNCwRJwn81gbBTjQsEy47LEg4hAAEIQAACEIAABCAAAQg0NYGEk/Hm3Lj/lLiYyjb1tuVvBlBK25lU13S+5anCj+rtPjXKFPnW0n3lUPEE+tinzEikMndF6L+CwAyvB25FMl7Mfpvz216KWkhiPz1sKW2lsYXwtpWzGYOjt81mEOgjJ9JlnLZut9vMe4fKLNmvyfjA0QfHR0ai5tXN2DRj3AMESuE3dRMlfghAAAIQgAAEIAABCEAAAjqBhJPxmvxOGSWmx8X6aMOW8UIkG46oFjrZrZy1eNynHJm9+WzAiICpyaVcT7EEv0pe+bsi3FHgfp/fFSBsJa+XXIu6HfWrm+HMxstpdoc2zm7IAAAgAElEQVSNYUtif7WsSWVTk2uH1np4vxXvcnZdT1G4nTi1q8x976zPxTky3j24YCp2Gcx/CCDQGD0nlhsZH1gQ+EAAAhCAAAQgAAEIQAACzUAg0WS8pqKtt83lq+/6YntLFVvL5jUx71bOjZfxZgyOPtfj191i7t21LZ8rQGuR8VIS93Cm5eWEuarKjuR2SWXXoSbI5bWBStueOdfinJ1dLubwN+bKBfaxkfFB1vNL29QcPg4IQAACEIAABCAAAQhAAAJNSyCxZLy+YF7T4aYMdh26Vto7E+xyebwWPkBUq7frA5fQOz6uq/RD3W0voVfDDaZh1hCDM6UvTWp4o7u4EY1es/HmDLxced7wAnhRrbXpd5eMD4wh0EeOEWgy3hpByNv4dk6Fmi13ZHyXQLOVj2mJtry/R7IV2I4keNJxUyJN202QTQhAAAIQgAAEIAABCEAgfggkjowXO8M5+8bpkt76EJ16N/6s+tp8CK3uOuWaV1ev35vB1IZ5Yg2/2mBP2zPfChZsUb3Y615NyIuMqMBhT8X3ThkVN/VGqV9bPZpC2u9VdksVazPYy/Jshe8nufVV9C4ZL/a9V+MC7rfo/VSrf5zmR+bKyuWAQpeGtrhTRlovAqgP5lk5ku/Gi9RVSNM2J/64KRQ/JlgFAQhAAAIQgAAEIAABCLRWAvEt4/1eSPab0DZnsG09bAbK36FkuSnv1c/ZDM81Q67P3otT5r/2z7lKzvPLM342yHX71tJ9PX7dbat0zaqLJzM8AjQ8FR9vMl4ysf6XW8Fr7cRS8jKQmhv3l9zBZ+OtmXahpUUcKgYtCW0QQTNAm343A3gcSqv8p9+tmXx5KneNh23ypJL3KGcIQAACEIAABCAAAQhAAALNTSB+ZXz4S83bTshABYsPBCAAAQhAAAIQgAAEIAABCLQpAsj4sKbB42SkoE1VTTILAQhAAAIQgAAEIAABCEAAAoEEkPHI+OZeARJYC/GBAAQgAAEIQAACEIAABCAAgTAJIOOR8ch4CEAAAhCAAAQgAAEIQAACEEgYAsh4ZHzCVNYwh6YIBgEIQAACEIAABCAAAQhAoBUTQMYj45HxEIAABCAAAQhAAAIQgAAEIJAwBDLmL2i3evXqph6oiJMt4hLdjKYuJuKHAAQgAAEIQAACEIAABCAAgTgnYMr4VatWNbWVia6f48T+pi4m4ocABCAAAQhAAAIQgAAEIACBOCcwL2N+c8j4XgNHxokSTlwzeg0cGeeVCfMgAAEIQAACEIAABCAAAQhAoKkJNJOM79Z7aOLq5zixvFvvoU1dG4gfAhCAAAQgAAEIQAACEIAABOKcQDPJ+JvvfpQJ+cYMB/QaOPLmux+N88qEeRCAAAQgAAEIQAACEIAABCDQ1ASaScYnd+lx892Pdus9FDEfqZjvNXBkt95D0fBN3RKIHwIQgAAEIAABCEAAAhCAQEIQaD4ZnxA4MBICEIAABCAAAQhAAAIQgAAEIBDPBEwZf3ufV+LZRGyDAAQgAAEIQAACEIAABCAAAQhAQBAwZXyPSZ+CAwIQgAAEIAABCEAAAhCAAAQgAIH4J4CM7xH/hYSFEIAABCAAAQhAAAIQgAAEIAABQcCU8Z0HTQEHBCAAAQhAAAIQgAAEIAABCEAAAvFPwJTx9zzzbvwbioUQgAAEIAABCEAAAhCAAAQgAAEImDJ+1apVgIAABCAAAQhAAAIQgAAEIAABCEAg/gmYMr7X2BnxbygWQgACEIAABCAAAQhAAAIQgAAEIMC78WxxBwEIQAACEIAABCAAAQhAAAIQSBgCyPiEKSrGnCAAAQhAAAIQgAAEIAABCEAAAqaMf+LFmYCAAAQgAAEIQAACEIAABCAAAQhAIP4JmDKeLe7iv5ywEAIQgAAEIAABCEAAAhCAAAQgkNylB4vqWVQPAQhAAAIQgAAEIAABCEAAAhBIGALI+IQpKoadIAABCEAAAhCAAAQgAAEIQAACpoz/w+NPAQICEIAABCAAAQhAAAIQgAAEIACB+CcwLyOjXY9Jn8a/oVgIAQhAAAIQgAAEIAABCEAAAhCAgCXjJ34CCAhAAAIQgAAEIAABCEAAAhCAAATin8DceRntMjMz499QLIQABCAAAQhAAAIQgAAEIAABCEAAGc8WdxCAAAQgAAEIQAACEIAABCAAgYQhMH36dGbjE6a0GHaCAAQgAAEIQAACEIAABCAAgTZOgNl4NDwEIAABCEAAAhCAAAQgAAEIQCBhCCDjE6ao2viAE9mHAAQgAAEIQAACEIAABCAAgeQuPZDxyHgIQAACEIAABCAAAQhAAAIQgEDCEEDGJ0xRMewEAQhAAAIQgAAEIAABCEAAAhBAxiPjIQABCEAAAhCAAAQgAAEIQAACCUMAGZ8wRcWYEwQgAAEIQAACEIAABCAAAQhAABmPjIcABCAAAQhAAAIQgAAEIAABCCQMAWR8whQVY04QgAAEIAABCEAAAhCAAAQgAAFkPDIeAhCAAAQgAAEIQAACEIAABCCQMARMGZ8xP4PxDAhAAAIQgAAEIAABCEAAAhCAAATin4Ap430P9G5iQ1+95e/f/PFD998fRr/aqHQfyvzDh9+EjGTwDWP3/GGGle6Mg78fPeXaLmp8pc+1f8ns/N43/zlQ+TSH462xST9++G8/TrjD51gSVrqDByafntrxs/vCCtww1Yd+/9Xkn5mWfPhvBZOTP7s/RtGGl6lrh/W+fc6AO5Y9eeeyJ+9cPOA/X3ywYYPDi9kznt9N6nfnsn43PxHrPKb1vXPZk7enBY/2zgdveK1vl8Uym689IqvfwzdN73fHEtP/jkX9bhv7sKfZTeB577Z7b/9O+9t2VzDj71vp+//Zuxsnuar7Ttz8GVS2KlvZqtRWbW01wgIbBGlpeJGRMNCABNjCQsKJHEd+A08A2wRnsBcSkGVeZEDyYMMEw8gYrVn/wDhDrLKiLYtaAg5lbIOiaA0yFmBL5mU8MEVqfntfzu17u3teNd3Tt+ehppSe2/eee+5zWo4+53vu7dN/dtaHzq7WKitW/mz1sp+ddf6M+3P+o+csO3jOyhumGLLlUZv1nky98xTtzOatLc+8PdH831vPbanWdv1qYmLi5V2zaW3GGpMJ1+L+vP3Utkl3OPZTNLUwciASGP/Fzo/X39r23JsTEwceb+jGAz/9w8Q7zz2Q7Xbnc+PRob8aWTWJUuA9uufmQlOrHn85Vg9Xmv6ajsSbv3nu/usK+1eqtT9/8vDExOHHrm7cnnXGCwIECBAgQIAAgc7E+E3v23j/yR+//+SP/6C648Uzt/wgfn3/0os3TToA5w4u++rPq5+bMudPH+Ovf/8XfvD+9Ted+JH7T/37n5+54+fLrvhwpVo74eIHlm35eTKt0NkYv/Kf7zz+37b86ZHt/+07Z0/3j9RzVzz11T/+t8+tSoi+8rn/cmT7f3nyoumOmuQf2Y3OV5z87GdW3H7BB+/9TOWl7ccf2XLKdTM88Jh3O/ErV0QBfuf6ZTdfetK1l75/6/plN7Y3x84kxi+5et3pO9fPLupPG+PXf6S6c/2pN16y9JOXnnLvxr5dG0/9ZDJ8l3zgjstO2nTxiZ+8bNm3r+zbtf79l8zTsE4zOnGMP+es+85Ylfz8/fLJzrt6z6plL6xcfXmbYnw8NfDMWWk37uv7UHSiNv/8+d2PP/bDHz/2wx//9HcTExNHfxq/fux73/rznojx133/wJvvHp1uUiCJ8RMTf/jljg8H8FYxftUjByYmxn96b9in+vBP/zDx+u+OTpGuQ4yfePOZb+WG8m8eO5Qk9kKMf/35aCCefO7oOxMTE4d+/P+GIHfItj2/a96Y38FrAgQIECBAgACBWmdifAY9eNqOF8/88mDuH23ZW8UX00f0WmUm+2T/QLw4Kt1XP/25SrV24uf+ZflNP1h61d4zd3S0Gv/BK5Yc2fFfH7/o9Od3HP/8X01X3rzoAy/tOP6lv05j/PRi2ZXO8sV3/sfxR+5ecs8sj5pjfzatW77ryuV3XXpCX3G423n2GcX4OVTsp43xqy88IZus2fCR6q4rqzc3TVhcG5X0Q7xvt0kc41eunt3YtaMav+Lsn61eNvlagPY6NNfem7fMjmhOn975rcbPrLU4xr/19psTUdhO6+otYnycvX/39JfCdcWp/uiebT85NDFxaPfftMRJOvDmW9EcwZ3hwMrNT78+MfH6796emCjE+FD8/9ZTb01M/P65m7L9q7XKvb98Z2LiF4/k1gvk3/WaAAECBAgQIEAgFljYGP/hJX8xUr09XvS+/cXlN/2vpSvjf8F/bHduBf6/fuCi2gmX7Tztqz8/I16Wf8bXRtLdcjH+hI27+3b8/LSNk5T3z7hu6fX/eub2vScn7SdjH5+lk9X4e2/4oyO3LLu6uvrxW46PX9TjytWXf+D52/8oWuW+/Y+e37y68rH/nqx4j//8kycvqn3lr//kyI7oxdWf/q9HdvzRU2GJePzrf/7nS6OmvvQXlZfuitbJH7nrvzx1xXnRv7Yv+sBL249/KZT0m//9veGiZc/fffxL166c7SL/5qZmsuWku6Li80mr6xeeP2rJtetOj6rT0U/1Gx9Zmi71v3TZriv77rp06da4jP/dK0791IUnfGpdslh9+TcuOzGZEVif5OS1J6W7bTzt5nQRezHGX7j05vXJsSu+vf7kDVFP4l6l5+174CNLqrXK+Wve/4102X81O0W1dsJffuS0h+LF8A+tP/nmbFH9hSdt29i38/LJriu6xnj+4vS/Ld4+cM6ak79xZd+316WX0Pb/SWoV45ev/qdzqun69lV9D69Ihia3ZzHGf/6Ms3626rRo/1XL/6nvgjB85923MmnktJ+dvfKfskX1xWPDzrXKGWccXH36D9Jztf4w1Heeb5bm0J5sefLBX77+Xlw6/t1zW5JidRxx3/zl0794K6y6v+57e3719jvJbu++feCH25MwXGwzTsu/GkkuYdVXf3zg93Gz7739i30HkghdqYZF9d/7yYE/xO/+4eVd6fLy5PAf37nvcHKiN//9xzfF/ZnsLPH2pOg9MRHdJvCtp34fxeP/d79AkTFtecfz4/Vc3Rzjr47j+pNZXP/4Q/snJn739HXVrVGdPHrR0Gz0azqPsC9atv+LnekO0cY//PKx6HaG5hj/8T+/L1rP//r/3pbvZNS3MBFwyb1PH4rko//efP57+d28JkCAAAECBAgscoGFjPEnfGx3344Xl//trqVrB963effy7S+e+bVdJ1ZrlTM2L7n8B9F975+/Y8m5nzthee3Ez+xdtnnried+7n2b9/Zl9fyZxPh4nzN3vHjG7Xvfv/ajhcHucIw/+/Tntx//b5+JaqFx9v7Tx8ON7hs2Vg7vOP7w3y/9zkdW3Xrl0n/evKpyxnlXX740qsZ//syrzz1vw/J6jK/E7Rz5mzPja4lnBOIl8Zs+9t8PR/v3fencD37vpv90ZPt/jdqfPMY/8OU48O/445c+v2JTq3+XF6zmZ4eL3//AlWlObmrwhP6PLt91ZXXbZUs3Xnzi9ZdXd13ZNxQn6moc43dtXHbjmhM3XXbazuh2+uX3rTtp45qT7trYt+vK066Ls3Ec41c8vPG0m9aeuHHt+7dHby3rj97Kx/gTo6r7xtOuX7PkI2tPGbqyb+e6pX21E86/cOmW6P75U/7qwiUX1ip9a94fvbX+5I0XLvnUuuquK5fftjbSuOSy03dd2ffty0/edPGJ/euinqT3xk8X45MGd60/OXsGQVzJ79t15fKhdSdlG5tM5nsI4nBevym9+uiKWqXv7H1nrf7K8vM+3xdVyMM97a1j/JVnnPFCdJ/86s8v/9CDH/yzg6tXPBwvy//ayj87uPrPnona+dCDSZ5PbnefKsYn98af9sI5Z9036dr+FnHx2E2KYTg6RRqDf3dg144Hdv0yuoX+9f+9NTpRHHGjCHrv1dGvH47j8btHf/rDh2/aMfLT18YnJsYPfD+Ku8U2czH+w9/7xbsTE+8e/en3H7jpH35yIA6lybLzOPdOTLx7eM8/PLBj3+Foefn+JKnGh783/vovf7xjx8OPxf1JDpnsLJdct/X+56Oo/NMHt153w9+smibGj1SSXiX19qYY/6V9RyfeO/BQtur+6h8fmph4fV8Utq/730cnJhrvfo9kshi/LbqpfmL/4/HsRvT69X3b0oSfPAWgcG/8+OvPjXwpO1Ek/Pgv3kvPVal+7xfvTUy8deCh27be9Mhzr/8ynRZJTudPAgQIECBAgMAiF1jAGH999Ny723/wvpBelnzmX87c8fNTL4v/7Z6L6MURip+W97X/FaX9SffJ/et/+aYTzh1435UPRPfGb//5svXRvfHpT2dj/IZP/LeknB6d/UOn/Ft9wXwcxe888Z6GMFNcVJ9V4yvV879z0/FH7lx6e7VWOXfZv+1IpgZWPfm13C3u8fYpivCVau3ilauvXtv3neTe+L9f1rLCVrfK0I7pxRQx/uIoOX97XTSs8c+SG9f37dp4yqZaJYnx910WFcmrtRO3RDeZx9trlY/kVqonMf6OOG9Xa5XVl56268q+bZcUY/wly3ZduSLb55PrVuy6cln8JK181K9cfXm00P1TaU+W3nZl367LT6rWlnwlmgI4JTwT8YQvrA8xPnyiQucLbuevieYLdl1xyl/mSvFnX7jk4jVLr43vjf/u+pMX5t741Q1PoduxctnB1WfsiK6iZYxPn133ueQyl5/zTProu3jnD64K97d/6AersumASWSWf+i+M1Zv61v14FkrXogK+2d9rSVdezYWw3DUw3hLKBfHteiJpJaexPg0Xdcq34+e1nYoK1PHmXPiNz9purs+F+MbDrkvWjGej/EHHk9Wj0c3n8eF9FqlGh9eX9MevxWvPC/2PHeWeoqeBDyVrB+yaueBd6IV8l9OpirCKvdapZrP4VFr8QPnAk68SL5493t6xiyrR7MA8QPq0qX4N4dCfS7GJ/fGP7bv5TffK6waiM+VTROEGH/L36yq1lZ92DL7qQfXuwQIECBAgMDiEljAGD942vbiffL5XF2M6CfU7j/1y/uW3/nzM7bHK/BnHuOzJLD8nmV3T366bLd2vYizevxk+Ppq+duX3hqdbsWz26Nn1xeyX7Ievh71c9X4ai2+x/6P//myuKqfPi1vxbMNjeeObWy5eI3XfeZP6/MLxbemPnD2714YrSF/OCqANx0bBey+uy6tb6/feZ4uqk/eKuTtOOGnN5yni+qzm8/rR9UPifdJFu1nfyaPmq/vk1bvwxr75HH6uz56UrV20rYr++IXaSfrPWy+nLDlskujov3Oj56cTE4188YV/hb3zDfvOQ9bcuE8tHb28nMfPrvvZ6tOj+J09DNFjI8Prxfzo/2jJ9jHj53PPcp+Bk+qD2evVGs3nFU9uDpeF5DbWP8YtGFjMQxHI1XcUs+6ScTNUutN/ye3ODzqWHxrd4tn3ddbaDwknhfIxfgQj3NNpTE+rMmfyVlyxfDwwWvtVu9Ypfo3u/59fOK9w489WHxS/c6Gh9vFC+nThe3h/4RF7/lhymJ8cj/8oSe/HKnGj6+rv1WtVeJqfDZrEGf+DCE+V+6Jd5sffO5QesfB4T3JgojW1zX1VXuXAAECBAgQINCDAgsY41tW46M74aN/HeZj/Nn3n779xTP+btf7LvjckpV/H9XwSxfj4/L74YFTvvPxavLz+MB/PrIjiuKValxITyN97hM2aTW+Vlne99Tdxx++dkV0j/0NffFt7XEjt5zylXNXXx1+PnlWrrXJ//nbwRhfO+G6qIJdvTX76rWshy2r8cm3xNUDebG0nhbq8zF++ZY1abSI4/GKeDF8LqJHkwXL77hkycUXZj/JU+hy+9TiavzGU6+u77Pk4gtPqNbiBfn1L66L1wtM/YVza0/dGd0acGL2oLvmUVjgGJ9Uzs/aseK8Ty2/4L6ZVeNvWH7ep8LPx6MrWrVv9bKDK1dH304X/az+p2mr8TmHNMY3LEXJ7ZDPivPyuhjaoz4Xt+Sybi51R6duKK0n1fj4O9h2/fvExMThJ5PvSPtwtAo9qeev+uHhiejr3NJKclygzlfjswRbnxFIY3xc5I9OmpwlviN9srPMKcbXKtf9+NB7E+/8/u136l84l94Gnz3cLsnk7/zq6eQh/4/98Md7fhXdSvDT+7K/uemLXFaPn5AXP0gvufDcW1PG+LjU3/Rwu4//+d0/OfRu8cl57fx4zMtnTCMECBAgQIAAgXYLLGCMry359L4zs3vjPz4S3Rt/y85k7XTlgl3Ld8TRff39J300eb3zfecOvO8z8b3xTTG+9SPuLtp12pf/18kfGci+cK7wDLx88b/N/y6Mo3L6ILp0ROOUntzifl301LrjD/9d7t74aq1yQfSk+iN/d8rt66sPXFCoxleqtds//8dHvvYnL+34o6euSP8ZHX0j3Y7/9G/Xrrj13NVXr13x5P84+YHJH3H3wBf+9KnP9N16bvjCua994CttFgif44tPjr567coVD6w/5cb4C+e2rT8t/sK5JX8bJ/zk3vhrozvS+76ZLKSfRYzv++4Vy65bs2Rj+gVvyQL4XESPb2LftXHZ9WuiGL/p0lO3pWv14wXzV572lTVLr71kyepLlu1M74FfcvHFJ16/btmX4iL/x6LH7PcNrTtp05oTr53+3vh4zmLjaTdFl5n+bIrbuXrd6VsvW7rxwvCFc/WpgaDUmJHmaXtzNT7ecs5Z25af95Uzzoq/y32KanxSOU/ugT/vUytWP7ry7HgF/gX3fXDZwdV/Ft1jv2L1ox+sHsxi/CT3xm8764xHz4h2ThfVn3NOulC/Ix/CYmiPqItbJo/x2Y3u0b3xjz91KAq0yXewxzeNT7z57z++87aH90Tb0xhfiW8sn3j38FOPPHDnI89FcbSwqH7yGD8xfuiZx2+67eEn/z26Vz9ZyT/pWaq1uOw/cWjfww/9cOSmae+ND86bd0ezDPFEQ/yRi3tbv2ugWour5flvngvPC8huNAhN5bN6MluR3WCffyupxh/avfW62x7eVVxUH301faHOP/LTQ0/vuG3rdbc9Hj1isPBWm/6CaJYAAQIECBAgUBqBhYzxlepHT/z47updyZPqf1792/tPPCOD+8zS6/81ejT99n/5wAWfWXr9v0TL6be/WL32gWWtqvGtY/zZd5yaPd/+9n3L/uL6QhzqXIz/4D/ffvyRxnp7XD+/e8m9UR3y/Fs3//f0IfN3/+dnP558Jdh5917/J9EK/O1/+nhTjK9cuvTwjoY2z7vnr//bS3fHD67b/p9e+vLpUTKf5BF3X/lUfs9T7sk/wD/8u7xgNY8b+y5ceuNHT4+fDxfl+Z1XnHp1etP4kusuT7d/d+Ppd1y6JC1izyLGV7deeso34/XwD+eazX+ZXN/FJ91xxYrvJvtsPP3v156QXNr5a099INq4Ipk7uOzSU+9Ln1S/4tvrP/DJ0MNrLw9PyP/I0uuneVJ9PH1QXJyf3DWw/rLTwgP5V9z30ffn75mfR+cWTTXH+NoNZ/bFy+lPe2HlOQ9PU42vVaoXfO2svjjtLzu4+rSfrTwnvbt++bmPfvD0eE1+dc8Zqx+d7kn1XzurGtbwn/azlas+36Kr2f8OzP+LYmiP2i9umTzGV2urBr731G+iXB3999bhp3ZuTb+27cPf2vObOL2/N35g99NZNb5SrdVXhv/+5ce+F61gf/P/bG+qnzdV4w89/WRU956YeG/80L4HLkmIJj9L5bo4605ET5KfeYyvVL/85G+ikySr3LPb2sPf/fg++cb8HHc1/wy8uG+FrB4/ne6d5x5I2im8VXjE3cSbv3nu/uT5/PGig+yQ+MAHnvp9LDAx8c7vX37sq+6Nn/+/C2GgtUyAAAECBAiUT6DDMb58QP6hUw6BxnvjfdIIdJ3A5j1Ho8z8/ak7lptH6OgEx7bo++TSh8xP3cP5fzd7Hl45/temo+My/9qQCRAgQIAAgR4QEOP9I6knBMR40aIbBb6151cv7/n+wzd95YGH9r385kS0OHxH/ivWWvR5gWL8vb98Z6K4fr5F39r0vxXx7fS5h9v1wP9ndQkECBAgQIAAgbYKiPFt+oepZjsrIMZ3LnR1dmTLfV1bH/vV2++8Fy/Cf288WkM+MO3i8AWK8eV29pkkQIAAAQIECCwuATF+cY13W+eENE6AAAECBAgQIECAAAEC7RYQ48V4AgQIECBAgAABAgQIECBQGgExvjRD1e4ZHe0TIECAAAECBAgQIECAQPcLiPFiPAECBAgQIECAAAECBAgQKI2AGF+aoer+OSE9JECAAAECBAgQIECAAIF2C4jxYjwBAgQIECBAgAABAgQIECiNgBhfmqFq94yO9gkQIECAAAECBAgQIECg+wXEeDGeAAECBAgQIECAAAECBAiURkCML81Qdf+ckB4SIECAAAECBAgQIECAQLsFxHgxngABAgQIECBAgAABAgQIlEZAjC/NULV7Rkf7BAgQIECAAAECBAgQIND9AmK8GE+AAAECBAgQIECAAAECBEojIMaXZqi6f05IDwkQIECAAAECBAgQIECg3QJ33XXXcR+84LJ2n0b7BAgQIECAAAECBAgQIECAwLEL7NixQ4xXkCdAgAABAgQIECBAgAABAuUQiGL8StX4ajlG69inbbRAgAABAgQIECBAgAABAqUWEOMFeAIECBAgQIAAAQIECBAgUBoBMb40Q1Xq6SKdJ0CAAAECBAgQIECAAIF5ERDjxXgCBAgQIECAAAECBAgQIFAaATG+NEM1L9M2GiFAgAABAgQIECBAgACBUgtEMf7vLri61Neg8wQIECBAgAABAgQIECBAYJEIRDF+++CuRXK1LpMAAQIECBAgQIAAAQIECJRaIIrxjz4qxltaT4AAAQIECBAgQIAAAQIESiAQxfhHBm8q9VSEzhMgQIAAAQIECFVNcj8AACAASURBVBAgQIAAgUUiEMX4r19/2SK5WpdJgAABAgQIECBAgAABAgRKLRDF+L+7QIwvwcKJUn/OdJ4AAQIECBAgQIAAAQIE5kVAjBfgCRAgQIAAAQIECBAgQIBAaQTE+NIM1bxM22iEAAECBAgQIECAAAECBEotIMaL8QQIECBAgAABAgQIECBAoDQCYnxphqrU00U6T4AAAQIECBAgQIAAAQLzIiDGi/EECBAgQIAAAQIECBAgQKA0AmmMf/X1I68cfu3QK4df/vVvXjr0ih8CBAgQIECAAAECBAgQIECgSwRe/vVvDr1y+JXDr736+pEoxq+84LLfHnnj1dePHH71t785/PpvDr/+yuHX/BAgQIAAAQIECBAgQIAAAQILLpDk9MOv/vbV14/89sgbaYw/+sbbvzv65m+PvPH6737vhwABAgQIECBAgAABAgQIEOgqgd8eeeN3R988+sbbaYx/460//P7N0d+/OXr0jbf9ECBAgAABAgQIECBAgAABAl0lkGT2N976w/bt26NF9W+NvpP8vPn2mB8CBAgQIECAAAECBAgQIECgqwSy2J7G+Lf/8K4fAgQIECBAgAABAgQIECBAoMsF0hg/OjbuhwABAgQIECBAgAABAgQIEOhyATHe/AUBAgQIECBAgAABAgQIECiNgBhfmqHq8gkh3SNAgAABAgQIECBAgACBDgiI8WI8AQIECBAgQIAAAQIECBAojYAYX5qh6sCkjlMQIECAAAECBAgQIECAQJcLiPFiPAECBAgQIECAAAECBAgQKI1AFOMvv/KvunyyQfcIECBAgAABAgQIECBAgACB0bFxMb40My4+rwQIECBAgAABAgQIECBAQIwX4wkQIECAAAECBAgQIECAQGkExPjSDJU5JwIECBAgQIAAAQIECBAgIMaL8QQIECBAgAABAgQIECBAoDQC27Zt84i70oyWaScCBAgQIECAAAECBAgQWOQC37rvfjFejCdAgAABAgQIECBAgAABAuUQEOPLMU6LfLbJ5RMgQIAAAQIECBAgQIBAIiDGi/EECBAgQIAAAQIECBAgQKA0AmJ8aYbKzBMBAgQIECBAgAABAgQIEBDjxXgCBAgQIECAAAECBAgQIFAaATG+NENlzokAAQIECBAgQIAAAQIECIjxYjwBAgQIECBAgAABAgQIECiNgBhfmqEy50SAAAECBAgQIECAAAECBMR4MZ4AAQIECBAgQIAAAQIECJRGQIwvzVCZcyJAgAABAgQIECBAgAABAmK8GE+AAAECBAgQIECAAAECBEojEMX4Rx991HwGAQIECBAgQIAAAQIECBAg0P0CqvGlmXHp/g+THhIgQIAAAQIECBAgQIBAuwXEeDGeAAECBAgQIECAAAECBAiURsCi+tIMVbtndLRPgAABAgQIECBAgAABAt0voBovxhMgQIAAAQIECBAgQIAAgdIIiPGlGarunxPSQwIECBAgQIAAAQIECBBot4AYL8YTIECAAAECBAgQIECAAIHSCLg3vjRD1e4ZHe0TIECAAAECBAgQIECAQPcLqMaL8QQIECBAgAABAgQIECBAoDQCYnxphqr754T0kAABAgQIECBAgAABAgTaLSDGi/EECBAgQIAAAQIECBAgQKA0AmJ8aYaq3TM62idAgAABAgQIECBAgACB7hcQ48V4AgQIECBAgAABAgQIECBQGgExvjRD1f1zQnpIgAABAgQIECBAgAABAu0WKF+M3z+0uVKtVaq1/t29lcAPPLLurFqluq5/99Ew6nv74yutbBjeP9ZbF+tyCBAgQIAAAQIECBAgQGBOAgsR4w8Mr4nT6ZqhgyGvziKjHnOMD9k4ScjJn31r+9Zu3njD0PBzrx2Zk+McLqThkOy6KgN7w1uhq2L8Ag1KGIhZfD4dQoAAAQIECBAgQIAAgbYKiPFRYb/wc9H1g89m9fDZ5bcjr/zssaE7Nq67ZvDA7A6MxvjAE395Ua1y1qYbVeOFdgIECBAgQIAAAQIECBCYRGARx/i1N93/jz96LPn5/4Zvvu6qZdGa9uQnv7J9FoF8ZCA5fPNcYnyLEVKNnwV+W6e7NE6AAAECBAgQIECAAIEuEUhi/Cc62psuWVTfvFL9jUOP3bwpTfJ91wy/POsMKcZ39IPUYuJj1kOmwwQIECBAgAABAgQIECiXwDe/dd9xl18pxmfx7+hjN6xLkvyyW56Z7ViK8bMVsz8BAgQIECBAgAABAgQIzEogivErz790Vscc686TV+Nfff6Jrddd1bcqXdy+7KKrPr39R/vfyDJ29CJ7FFz0pPo3Dj12S9h/1YZ1tzTu3Kqr061UD92rrLp7X77e+8ahx2675vwPrY1D/tpl66+5+R8PZc/DCwE+W5afvNgykrYwun/P8Bc/uzm7tJM/tHnjbXtfejt3abu3JNMHuSf/texq1FT/pg3L+uJT9K3tW3/NzXtea3WlucbzF+I1AQIECBAgQIAAAQIECJRWoHti/NE9Xw0L2hueOXfWVYMv1hNpPcY/uveLFzXE5lrloi0jv63v3CrctszG+UMOfn190uxVg/83bH/x+395QdO5qrW+m/e+Go/91DF+/7evStfqN1zax4afz5L8jGL8weHPpYsF8g3mkn/ocGk/ka2GzEURIECAAAECBAgQIECAQCrQLTH++aEQdC+6fuueF1565bWX/u/Phm/ZfHKSey+4e1+Iu1mMX7ZqXWXdluHnDr30ymv7n3vii+vSmN331akXw08b48cfuyFpKjyp7si+LyYZ/oLrB/fF30h35ODwF5M4va5/9+jo2PiR37720iuv/c8vpgdufTr69aVXjibl+v1Dm09ef9PgnhdePRK5H3nlmcGQxqM1BUnknkGMP/KPNybpve+LTzz/2+i8o0cOPfvoHf3Dc/nqPoGZAAECBAgQIECAAAECBEon0B0x/siPPp0sEb+gsZb+7F1piX7jrnTdeBbjK7lsH7n/dm9/shq/b8tIyPytxmP6GB9K62mMf3Z70odNW58LkXtsfPTtZ25MTnfdE01L60P+DyXxIy8fSor29f68OHR+PENxzl0vpBtnEOOza6+H/3CKesu2ECBAgAABAgQIECBAgEDvCnRHjN+T3ha+7uGme7xffmRdUpC/YW+SVLMo27zzvq8mFfLGFF2MuNPG+NeGP5Wvxh8a/Fj86/qh54ufg7Ro35fdAD/ekP8L533j6PP7fnT/9ju+eN1V56wNd7ZXa5WB9LpGZxDjR/fdsSzRiNYsHDwy1WxFbsah2O1Cr7xFgAABAgQIECBAgAABAqUS6IoYnyXzVkXmxtQ9xc5TvJXLro0N5t5Kom8os1dveizKyWH/JD+3+HP6GP/qvrvPr38pfTQpsCx9VN4sY/zY0ZGbN9Tviu9bu+aWJ559VWInQIAAAQIECBAgQIAAgcUisBAx/um7k5Jy9mC2KeN3SNHha96n2Dm8taGw+r1xWqWxwcYYn1W8v/ijeLV82L9FgE+K9tPF+AOPrEluGVi35f59L7z0anxPe/Y8/FlV4+NrefX5J27+7Kb0qQHVWqVv0437jjZeReNVL5YPNAcCBAgQIECAAAECBAj0tsACxPiXHr4mqSd/+gdxoB0bH/2nm5ItzevkR1/5/sYkP9+8LxmJkNVr9cPTyDr6P69LcvU1w69MkVpDLA/zAoUBfvuFrZcljay78emkkfDg+pb7F9Nyy0X1z39rc3x1xcmFcG/87BbV50935NCeoev7EpyG78bL7+Y1AQIECBAgQIAAAQIECPSQQMdjfD0nX3P/yyFsZ1n9gjv2FL8lPnvE3af/Mc38WYyvfOqR/fmbw18cWpNk2mny9uQx/tV9N2aPux9Iv0ludGx8zy3JLffFR9y1+hC0jPHZxq/nvjYvZPvZLqoPYuHsjQ/VD9sLcxM2EiBAgAABAgQIECBAgECvCHQmxh+8f+DGrQ//6LGH794Yvul92cDe7AHvo2Pj4el0tcq66IvZGr9w7mOP7A/i9RhfrfV9bmjkF9FXuz2/Zyh8r3v6DXCT59gQ49fedP8//uix5Ofhof7cMvW+z32//nXuY+Oj2QL4szbf+OjP9sdfI3fk1dee3/fIzZ+98f4D9WidXcWaO5/Z/8prz377+/vGxrMOp98Sd+TQsw/fmFbRZ/mIu/3DN/UP7X0+WZY/NvrqL574dPJNeKrx4eMx+bjXh8k+BAgQIECAAAECBAgQKK9Ah2L84IZkpXr4c93de35bjFVvH/qfN+Qe3pa/Eb24c5aK+796d19yz3lu576b61X0SUYlxPjcUbmHxm34y6FnXs0X+eN8+PyusHy98ajiU/Gfvruez6M949vmf/tE+nV69WPX9Q/dna4dmM298dm11zsctbmuf7d744sfJ6meAAECBAgQIECAAAECPSrQmRh/6P7Prk2S58kfuqp/aN9LTTk5jtyj+/cM92/asCx5qHvf2r7119z86AsNoTqLsv27x1999pH+Tevih72tXbb+mpv/8VC+wj+LGL9qwzmbbtz68DP7i0v68y0cOfCjrddd1Zd8V3y1dvKHNpz/2TsG9zSe8aV/umNd+hT6tcs2DT+bfG5e3nvzZzctiycdlq27cfDp1+oV/tnE+CPPff+Ln92c78O6geGRA+ERAz36Gc2PgtcECBAgQIAAAQIECBBY5AKdifEqpQQIECBAgAABAgQIECBAgMA8CIjx84C4yKeCXD4BAgQIECBAgAABAgQIdExAjBfjCRAgQIAAAQIECBAgQIBAaQTE+NIMVcemdpyIAAECBAgQIECAAAECBLpWQIwX4wkQIECAAAECBAgQIECAQGkExPjSDFXXTgXpGAECBAgQIECAAAECBAh0TOCb3/rWcSvPv7Rj53MiAgQIECBAgAABAgQIECBAYM4CYrxqPAECBAgQIECAAAECBAgQKI2AGF+aoZrzVI0DCRAgQIAAAQIECBAgQKBnBMR4MZ4AAQIECBAgQIAAAQIECJRGQIwvzVD1zNSRCyFAgAABAgQIECBAgACBOQuI8WI8AQIECBAgQIAAAQIECBAojYAYX5qhmvNUjQMJECBAgAABAgQIECBAoGcExHgxngABAgQIECBAgAABAgQIlEZAjC/NUPXM1JELIUCAAAECBAgQIECAAIE5C4jxYjwBAgQIECBAgAABAgQIECiNgBhfmqGa81SNAwkQIECAAAECBAgQIECgZwTEeDGeAAECBAgQIECAAAECBAiURkCML81Q9czUkQshQIAAAQIECBAgQIAAgTkLiPFiPAECBAgQIECAAAECBAgQKI2AGF+aoZrzVI0DCRAgQIAAAQIECBAgQKBnBMR4MZ4AAQIECBAgQIAAAQIECJRGQIwvzVD1zNSRCyFAgAABAgQIECBAgACBOQuI8WI8AQIECBAgQIAAAQIECBAojYAYX5qhmvNUjQMJECBAgAABAgQIECBAoGcExHgxngABAgQIECBAgAABAgQIlEZAjC/NUPXM1JELIUCAAAECBAgQIECAAIE5C4jxYjwBAgQIECBAgAABAgQIECiNgBhfmqGa81SNAwkQIECAAAECBAgQIECgZwTu/eY3j1t5/qU9cz0uhAABAgQIECBAgAABAgQI9LCAGK8aT4AAAQIECBAgQIAAAQIESiMgxpdmqHp4MsmlESBAgAABAgQIECBAgMAMBcR4MZ4AAQIECBAgQIAAAQIECJRGQIwvzVDNcGLGbgQIECBAgAABAgQIECDQwwJivBhPgAABAgQIECBAgAABAgRKIyDGl2aoengyyaURIECAAAECBAgQIECAwAwFxHgxngABAgQIECBAgAABAgQIlEZAjC/NUM1wYsZuBAgQIECAAAECBAgQINDDAmK8GE+AAAECBAgQIECAAAECBEojIMaXZqh6eDLJpREgQIAAAQIECBAgQIDADAXEeDGeAAECBAgQIECAAAECBAiURkCML81QzXBixm4ECBAgQIAAAQIECBAg0MMCYrwYT4AAAQIECBAgQIAAAQIESiMgxpdmqHp4MsmlESBAgAABAgQIECBAgMAMBcR4MZ4AAQIECBAgQIAAAQIECJRGQIwvzVDNcGLGbgQIECBAgAABAgQIECDQwwJivBhPgAABAgQIECBAgAABAgRKIyDGl2aoengyyaURIECAAAECBAgQIECAwAwFxHgxngABAgQIECBAgAABAgQIlEZAjC/NUM1wYsZuBAgQIECAAAECBAgQINDDAmK8GE+AAAECBAgQIECAAAECBEojIMaXZqh6eDLJpREgQIAAAQIECBAgQIDADAXEeDGeAAECBAgQIECAAAECBAiURkCML81QzXBixm4ECBAgQIAAAQIECBAg0MMCYrwYT4AAAQIECBAgQIAAAQIESiMgxpdmqHp4MsmlESBAgAABAgQIECBAgMAMBcR4MZ4AAQIECBAgQIAAAQIECJRGQIwvzVDNcGLGbgQIECBAgAABAgQIECDQwwJivBhPgAABAgQIECBAgAABAgRKIyDGl2aoengyyaURIECAAAECBAgQIECAwAwFxHgxngABAgQIECBAgAABAgQIlEZAjC/NUM1wYsZuBAgQIECAAAECBAgQINDDAlGMv+/+oR6+QpdGgAABAgQIECBAgAABAgR6RiCK8UP/8EDPXI8LIUCAAAECBAgQIECAAAECPSwQxfhvP/hQD1+hSyNAgAABAgQIECBAgAABAj0jEMX4h4Z39sz1uBACBAgQIECAAAECBAgQINDDAlGMH975cPmv8ODghlplYG/5L8Qj9wgQIECAAAECBAgQIECAwKQCUYzf+Z3vdiD97h/aXNkwvH8s7sqB4TXVWqXws2UkeWvaP4vHrhk6GHdejJ90jDswuE5BgAABAgQIECBAgAABAp0RiGL8dx5ekBi/efBAPXlGIb9aC5m8vr1RYfeWSjV34IHh/jTGT37ItPMCdiBAgAABAgQIECBAgAABAiUR6JYYH8X1hojeSnBkYAZRv9WBjdMB9iFAgAABAgQIECBAgAABAiUUWMBF9bmiegoXLYxPCvJxcb7FMvuRgVp9ZX6Bu+HY4or9cM98UvNPFvP3704L+JO3qcJPgAABAgQIECBAgAABAgS6S2Dw3gW7N745xo9HiTqO3JPF+NGxvf3RHfXNCb8e4/OF96idcEN+/vVofIN9kuTF+LyY1wQIECBAgAABAgQIECDQzQLdFeOjpB0q51OoRcG7Mcy3ivGFVfp7+/M31Y/VpwymOJG3CBAgQIAAAQIECBAgQIBAVwl0V4zPqvEzMUrCfFgb3xzjo7p9/Zl5xefbpw/Jn8GUwUx6Yh8CBAgQIECAAAECBAgQINAZga6K8VEUD7F8Rvce5NbJN8b4xhmBKMY3L8Wf0Vk6MxLOQoAAAQIECBAgQIAAAQIEphXoohify+QzTtfRsvkknBdjfH171lRUnJ/VHMG0dnYgQIAAAQIECBAgQIAAAQIdFuiSGB+F8BDIo+AdRfpWxfORgXxFPT4qXRifi/G5x9flNeNF+PXD9w9tSb64PtoeHoOX399rAgQIECBAgAABAgQIECDQbQILGOML3wlXv4k9/hq5yWP8ZEdlMT6ZESjslj02L7mdvuHGeDG+2z6U+kOAAAECBAgQIECAAAECkwl0LsZP1gPbCRAgQIAAAQIECBAgQIAAgRkKiPHZzfNeECBAgAABAgQIECBAgACBbhcQ47t9hGY4H2M3AgQIECBAgAABAgQIEFgMAmK8GE+AAAECBAgQIECAAAECBEojIMaXZqgWw6ySayRAgAABAgQIECBAgACBqQXEeDGeAAECBAgQIECAAAECBAiURkCML81QTT0f410CBAgQIECAAAECBAgQWAwCYrwYT4AAAQIECBAgQIAAAQIESiMgxpdmqBbDrJJrJECAAAECBAgQIECAAIGpBcR4MZ4AAQIECBAgQIAAAQIECJRGQIwvzVBNPR/jXQIECBAgQIAAAQIECBBYDAJivBhPgAABAgQIECBAgAABAgRKIyDGl2aoFsOskmskQIAAAQIECBAgQIAAgakFxHgxngABAgQIECBAgAABAgQIlEZAjC/NUE09H+NdAgQIECBAgAABAgQIEFgMAp2J8QcHN9Qq1ZY/mwcPdFGQHhkInRzYuxiG3zUSIECAAAECBAgQIECAQLkEFkuM3z+0OZpHmCac7+2vzzVsGRnrovmFcn2q9JYAAQIECBAgQIAAAQIE2iTQmRhfz8NpnK52OCSH5QBTxvi0bxs2r4nDfP/uerfbpK9ZAgQIECBAgAABAgQIECAwK4GFj/H1dexxeF4zdDC9gAPDIU4nRfJ0+X19/w3DI0mNPTcpUH+3WkubCu1kq/rrpyjU29Oov2boYNrIlJl/Vsp2JkCAAAECBAgQIECAAAEC8yKw4DE+1Mnrq9kni99RjM+n9CyWV9IYP0lTM4zx6W7xZMHuLXHj3XXf/ryMt0YIECBAgAABAgQIECBAoNQCCx7jCwvX05S+YXj/2PhoFr+TX3NbQjk9u5U9XqLfkL2TX9NjQ8KfvMAeVtTHpx5LWw4nKnSy1OOt8wQIECBAgAABAgQIECBQaoGFj/HhbvnwiPhqrVKM8fUs3RDUx8bDsVGMD69z7UQV/uQm/GljfGNuL0woFNbei/QECBAgQIAAAQIECBAgQGDBBBY6xqfJPH2GfCE8h2p89qi5ENTra93DliirT7LePtl5uhifdSO3tt+6+lJPUOk8AQIECBAgQIAAAQIEelJggWN8msPTte4hbBer8VmMHw1hO9TnC4vqQ6Svh/zcgIWWJ1lUP8kUQFTYD+dasImW3FXoAwECBAgQIECAAAECBAgsdoHuiPENNfDJYvxYSOMN+6cr57NUX19Xn00B5IN6UzIPBxZCfjhXenf9Yv+gmE0gQIAAAQIECBAgQIAAgW4QWOAYP5pbDF//prdJY/z4aHj4XFInDxX45Ab48dGmnJ/F+IYD8/ShkVpu5yi0T7Y9f6zXBAgQIECAAAECBAgQIECgkwKdjvHzem0K5tYIECBAgAABAgQIECBAgMDiEohi/Ce2fnde03UbBUcGssJ7vVretEi+jR0oC5R+EiBAgAABAgQIECBAgEBPCpQuxtfve4+fJB++nc53whEgQIAAAQIECBAgQIAAgUUgUO4Yrw7fk3NLLooAAQIECBAgQIAAAQIEJhMoWYyf7DJsJ0CAAAECBAgQIECAAAECi0FAjHcjPQECBAgQIECAAAECBAgQKI2AGF+aoVoMs0qukQABAgQIECBAgAABAgSmFhDjxXgCBAgQIECAAAECBAgQIFAagcF77z3uEzffPnXW9y4BAgQIECBAgAABAgQIECDQDQJRjP/QxZd3Q1f0gQABAgQIECBAgAABAgQIEJhaIIrxKy/5wtQ7eZcAAQIECBAgQIAAAQIECBDoBoEoxl/+lQe6oSv6QIAAAQIECBAgQIAAAQIECEwtEN8bv/W7U+/kXQIECBAgQIAAAQIECBAgQKAbBMT40jyNsBs+LvpAgAABAgQIECBAgAABAgsrEMX4TbfsXNhOODsBAgQIECBAgAABAgQIECAwE4Eoxq/8i/8xk13tQ4AAAQIECBAgQIAAAQIECCysQBzjz790YTvh7AQIECBAgAABAgQIECBAgMBMBOJ74//aF865Q54AAQIECBAgQIAAAQIECJRAII7xnlQ/VoKhmsmsjH0IECBAgAABAgQIECBAoLcFohi/8zu+cE6MJ0CAAAECBAgQIECAAAECJRAQ40swSL09k+TqCBAgQIAAAQIECBAgQGDmAmK8GE+AAAECBAgQIECAAAECBEojIMaXZqhmPjdjTwIECBAgQIAAAQIECBDoVQExXownQIAAAQIECBAgQIAAAQKlERDjSzNUvTqT5LoIECBAgAABAgQIECBAYOYCYrwYT4AAAQIECBAgQIAAAQIESiMgxpdmqGY+N2NPAgQIECBAgAABAgQIEOhVATFejCdAgAABAgQIECBAgAABAqURiGL88M6He3WWwnURIECAAAECBAgQIECAAIFeEvjG4KAYX5pJl1765LkWAgQIECBAgAABAgQIEJiDgBgvwxMgQIAAAQIECBAgQIAAgdIIiPGlGao5TNI4hAABAgQIECBAgAABAgR6TECMF+MJECBAgAABAgQIECBAgEBpBMT40gxVj00guRwCBAgQIECAAAECBAgQmIOAGC/GEyBAgAABAgQIECBAgACB0giI8aUZqjlM0jiEAAECBAgQIECAAAECBHpMQIwX4wkQIECAAAECBAgQIECAQGkExPjSDFWPTSC5HAIECBAgQIAAAQIECBCYg4AYL8YTIECAAAECBAgQIECAAIHSCPRYjN/bX61VqrX+3fM7AG1qdn47qTUCBAgQIECAAAECBAgQ6H2BzsX4kYEoYDf8zHPe3r0laX/N0ME5rEyY9JA2NTvW+x+vSUldOwECBAgQIECAAAECBAjMSWCBY3ycureMzKnro2Pj+4c2Ry0M7A1xcX7K5m1qNnRSeidAgAABAgQIECBAgAABAnMU6HiM3zC8Pw3tBwc3hOJ8PYfP6jJCC3M8fLJztanZyU5nOwECBAgQIECAAAECBAgQmKnAAsb48dGxEJir9YJ8fu19bm18tmec/DcM7z8wvKa4RD/aOWxM1uqnTRV23jx4IKXJn6hSraXnCi1ki/+bm42L6mnZP92tPo+Qbl8zdDAt6VdrlfrMRfJuvQ/q8wQIECBAgAABAgQIECBAYFYCCxvjw6r4apJsi1k9Tulxum7aXkjmaUm/OW+HGL+5EPjTUN3UZpLkZxLjw63yWdSPXqTNhhi/IV7tHyYakjmCLNgnv85qnOxMgAABAgQIECBAgAABAgRGx8a7Kcan8TgUq5Nfo3gcsnHjg+tCFM+K4SGEF6rx4cH1ofwe2s/dkB8Cf7Lgf+pmw7tZjT2k+vikaVcriYN3GAAAIABJREFU6fqC8Gsh5LfogM8iAQIECBAgQIAAAQIECBCYiUAXxfisWF2ocsd5OCTwsKK+4e76qWN8Y95OU3SL06V7hqDeutnmOYX8lvzraPV+cYJgprc6zGTk7EOAAAECBAgQIECAAAECi1BgYWN8oVhdyOphOXolXW+fLb9PltAnUXzqvN0UofPV/lBCT55yXwzbUzYbCv65hfH56J5/LcabtiBAgAABAgQIECBAgACBeRZYwBgfMnx4vFwoj0+55jyk6HgF+5R5u7kSnovx6bnSentoZ0bV+Iadx0fDjEB+UX0W8osTBMklT3mBuaX+i3BWySUTIECAAAECBAgQIECAwNQCUYx/aPg7U+80L+9OUmxv8a3v+UX1+Wyc254+2T7fZpScCyF/qmp8mDJIH4+XthyW30/dbJbbc/1pesRduI2/EOND4M9C/rzAaoQAAQIECBAgQIAAAQIEFo/Ajm8sZIyvf89cEA+17rCovlWMzx9VLOnPOMbX71qP1wIUwnZUD5+q2air4URJks/F8vTAbEuxZdX4eV5MEj42miVAgAABAgQIECBAgMBiEehcjJe4CBAgQIAAAQIECBAgQIAAgWMUEOMXy4TNMX5QHE6AAAECBAgQIECAAAEC3SAgxovxBAgQIECAAAECBAgQIECgNAJifGmGqhtmffSBAAECBAgQIECAAAECBBZWQIwX4wkQIECAAAECBAgQIECAQGkExPjSDNXCzvc4OwECBAgQIECAAAECBAh0g4AYL8YTIECAAAECBAgQIECAAIHSCIjxpRmqbpj10QcCBAgQIECAAAECBAgQWFgBMV6MJ0CAAAECBAgQIECAAAECpREQ40szVAs73+PsBAgQIECAAAECBAgQINANAmK8GE+AAAECBAgQIECAAAECBEojIMaXZqi6YdZHHwgQIECAAAECBAgQIEBgYQXEeDGeAAECBAgQIECAAAECBAiURkCML81QLex8j7MTIECAAAECBAgQIECAQDcIdC7GjwzUKtXiz4bh/WO9lqL3D22uDOzthqHVBwIECBAgQIAAAQIECBDoPYEFjfFRqt8y0lNJfm9/dfPggV6bm+i9z70rIkCAAAECBAgQIECAQEkFOh7jQwU+qlrHxfn+3T0UendvqYQLLOkHQrcJECBAgAABAgQIECBAoJsFFizGjx4YXhPH+DVDB7PX/bv39kcbs4J28mtYil9crF5fpb9heCSdFIhr+6HlxtbC9nj6oL4KIJtQiLenp261saFvzbMPBwc31HpqVqKnFko0j5ctBAgQIECAAAECBAgQKJ/AgsX4LCdHubcQsEOM372l8V76ai2rddczfDwXEPYsxPiwMU7mLVqLds66kd956o3RvEPLfBtdRX12oPU+LQ+0kQABAgQIECBAgAABAgQIzEyg4zG+kLpDLM9ifH1FelTZjqJ1tiXk8HzsD4k6K9oXY3x27FhoLa3np7/27x5PpwPqe0YzMS03jo5NU40fGaiF/pRvOsekAwECBAgQIECAAAECBAiUQmD7jm8c99DwdzrQ1+b6eT30hhhf35Jm5nwwTrN6tE8a6bO191lRvRDjm1sLJfd0lX6uqWRLaDBMGcT7h43TzIt4uJ3JCwIECBAgQIAAAQIECBBou0DHY3yx7p1OH4QYX7+xPGxpjuJrhg6GRe/1gB22FGJ8c2sNMT79ZrhwruTd9IwtN06e5KMOFG/d78DMiFMQIECAAAECBAgQIECAwGIT6NYYny2Dz2J/qJBH4Ty8DiG/9aL6eowPtf0pk3bDwvtkBiW/cYpF9dFuudO1ffZlsX1MXS8BAgQIECBAgAABAgQIJAJdG+PrWb1QQk9TfUjXDXfaJ0+YC4X0fK4O5frw0Ptw133zUv/6DfO5xlvNHeSyuu+Zm3ydgr9pBAgQIECAAAECBAgQIDCPAl0c48can2Afau9Jfs4q8NH98yGlT7KoPgmZoYafzgvEMwINMT5J/i03TvGIOw+3m8dPpKYIECBAgAABAgQIECBAYAqBzsX4KTpxzG+F4ny2Ar+TxeGo+B9PH3TypM5FgAABAgQIECBAgAABAotSoKwxfmSgnpxDKT7/WPvcivc2j2tUuvdwuzYjH/NET+c+D7pKgAABAgQIECBAgACBtgqUN8bn7nJPbmJfkFK8+EqAAAECBAgQIECAAAECBDoo0CMxvnjbvNIrAQIECBAgQIAAAQIECBDoTYGyxvi2LlHQOAECBAgQIECAAAECBAgQ6E4BMb43p2e689OmVwQIECBAgAABAgQIECBwjAJivBhPgAABAgQIECBAgAABAgRKIyDGl2aojnHCxuEECBAgQIAAAQIECBAg0AMCYrwYT4AAAQIECBAgQIAAAQIESiMgxpdmqHpg0sglECBAgAABAgQIECBAgMAxCkQxfuV5lxxjKw4nQIAAAQIECBAgQIAAAQIEOiCgGq8aT4AAAQIECBAgQIAAAQIESiMgxpdmqDowqeMUBAgQIECAAAECBAgQINDlAmK8GE+AAAECBAgQIECAAAECBEojUOoYv7e/WqtUa2uGDnb5ZInuESBAgAABAgQIECBAgACBeRGIYvzK8/rnpa2pGxkZiCJ3ZcPw/rH6JMf+oc3RxuqWkdzGqdvJvSvG1yVzLDYSIECAAAECBAgQIECAQM8KRDH+1k934kn1YrykTYAAAQIECBAgQIAAAQIEjlGgc4vqxfhjHCqHEyBAgAABAgQIECBAgACBLovxu7fEa+zj5ffFFfhh+X3y1ubBA+OjY/VF9fV3s0X7SVPZr3NZtN+zazB87gkQIECAAAECBAgQIECgpAJJjB/sQO/Tanz8ULpCVs/dG19P49lucQ5v2l6I8Q2txU+8Ozi4IR/4BXICBAgQIECAAAECBAgQINALAlGMX3leB++Nz/J54UWrR9yllfkosbdckJ9V48MT8tLifGVgbzQroRpvAQIBAgQIECBAgAABAgQI9JxAly2qPzC8phDva5VqXHgvLLZPSvGFRfXxaoJQgbeQvuc+ph1YLeIUBAgQIECAAAECBAgQKIVAV8X4UE5Pvn8uV42PKIsJP145X783PrYW43thfUgp/troJAECBAgQIECAAAECBBZKoJtifBrU0wX24X74rPaeZNSQ1aOV81PGeIvq1eQJECBAgAABAgQIECBAoOcEujDGh8fUp6vrc/fG59bb9++eZlF9eKJewyyAejUBAgQIECBAgAABAgQIECixQDfF+Oy5dMlXzeUW1YdMnib8OMNPE+M94m6hFng4LwECBAgQIECAAAECBAi0T6BzMb5916BlAgQIECBAgAABAgQIECCwSATE+BIvpVgkn1GXSYAAAQIECBAgQIAAAQKZgBgvxhMgQIAAAQIECBAgQIAAgdIIiPGlGaps6sULAgQIECBAgAABAgQIEFi0AmK8GE+AAAECBAgQIECAAAECBEojIMaXZqgW7VSTCydAgAABAgQIECBAgACBTECMF+MJECBAgAABAgQIECBAgEBpBMT40gxVNvXiBQECBAgQIECAAAECBAgsWgExXownQIAAAQIECBAgQIAAAQKlERDjSzNUi3aqyYUTIECAAAECBAgQIECAQCYQxfgHH9qZ/e4FAQIECBAgQIAAAQIECBAg0LUC23fsEOMV5AkQIECAAAECBAgQIECAQDkExPhyjFPXzgPpGAECBAgQIECAAAECBAh0UiCK8WevH+jkKZ2LAAECBAgQIECAAAECBAgQmJtAHOPPu2RuBzuKAAECBAgQIECAAAECBAgQ6KRAsqh+a5tPeXBwQ61SbfmzefBAFyxr372luXv9u7ugY2P6QIAAAQIECBAgQIAAAQIE6gKduTd+4WP8/qHNUVAf2Nt6wqJVjK9Ua2uGDrbeX7omQIAAAQIECBAgQIAAAQILIdCZGF+fNkjjdHXLSEevNswjTBPjw9KAA8NrkrUDk+3f0c7X9cwpECBAgAABAgQIECBAgMAiF+jMovp6EG2O8SMDhcX29QJ4yNL9u/f2R6E6zdj1/TcMjyQ19tykQP3drJYe2smWzddPkaXxtBofYnwozltXv8j/erh8AgQIECBAgAABAgQIdJtAFOPP7uAj7ppifKiT5+6cT2N2Y/yOMnY+pWexvJLG+Emaamyn1VL5kNub2qxPQHTbyOkPAQIECBAgQIAAAQIECCxCgSjGX3bDNzp25U0xvpCT05S+YXj/2PhoFr+TX3NbQjk9qdLX0hjfsqKeHhsS/mSL5FvE+Hr9v2M4TkSAAAECBAgQIECAAAECBKYWSBbVL2SMD8E+t7S+GONDaB8fbQjqY+Ph2OhO+/A6105U4U9uwp9hjA+L6sfCBEE2g5Atv/eCAAECBAgQIECAAAECBAgsnEAU47ff8LGps/48vhvCdnjEXVYGj+vkLavx2Q3q4dgsbGfRPWptkvX2yc6zjfFZa6GfCzdC84ivKQIECBAgQIAAAQIECBAou8AC3xufJvN0rXsI28VqfBbjQzU+u7k91MzjkntzyM+NTWh5mkX12QRBoeVcO4VbAGwnQIAAAQIECBAgQIAAAQIdFuiOGJ97vl30kLnJYvxYSOMN+6cr57PsXV9Xn00B5Gv19VX6WY09WxRQbLnFntkhXhAgQIAAAQIECBAgQIAAgY4LJPfG7+zY5EGomdcXq2cBe83QwakX1cedrGf1NUMHm1przPlZjB/NbnfPvogub90qxueOVYQnQIAAAQIECBAgQIAAAQJdIdDpGD+v8wUhtHsQXX5KwmsCBAgQIECAAAECBAgQ6F2BksX4kYF6GT+U4rNb5btiXmRe5ylcEQECBAgQIECAAAECBAgQKAiULsbX73uP7qLPbqTv3YkW8wIECBAgQIAAAQIECBAgQCATKHeM9wi6bCC9IECAAAECBAgQIECAAIHFIFCyGL8YhsQ1EiBAgAABAgQIECBAgACByQTE+MI9BpMx2U6AAAECBAgQIECAAAECBLpB4J7t24978KHOfeFcN1yzPhAgQIAAAQIECBAgQIAAgZIKiPGq8QQIECBAgAABAgQIECBAoDQCYnxphqqkE0W6TYAAAQIECBAgQIAAAQLzKCDGi/EECBAgQIAAAQIECBAgQKA0AmJ8aYZqHidvNEWAAAECBAgQIECAAAECJRUQ48V4AgQIECBAgAABAgQIECBQGgExvjRDVdKJIt0mQIAAAQIECBAgQIAAgXkUEOPFeAIECBAgQIAAAQIECBAgUBoBMb40QzWPkzeaIkCAAAECBAgQIECAAIGSCojxYjwBAgQIECBAgAABAgQIECiNgBhfmqEq6USRbhMgQIAAAQIECBAgQIDAPAqI8WI8AQIECBAgQIAAAQIECBAojYAYX5qhmsfJG00RIECAAAECBAgQIECAQEkFxHgxngABAgQIECBAgAABAgQIlEZAjC/NUJV0oki3CRAgQIAAAQIECBAgQGAeBcR4MZ4AAQIECBAgQIAAAQIECJRGQIwvzVDN4+SNpggQIECAAAECBAgQIECgpAJivBhPgAABAgQIECBAgAABAgRKIyDGl2aoSjpRpNsECBAgQIAAAQIECBAgMI8CYrwYT4AAAQIECBAgQIAAAQIESiMgxpdmqOZx8kZTBAgQIECAAAECBAgQIFBSATFejCdAgAABAgQIECBAgAABAqUREONLM1QlnSjSbQIECBAgQIAAAQIECBCYRwExXownQIAAAQIECBAgQIAAAQKlERDjSzNU8zh5oykCBAgQIECAAAECBAgQKKmAGC/GEyBAgAABAgQIECBAgACB0giI8aUZqpJOFOk2AQIECBAgQIAAAQIECMyjwD33bD/uwYd2zmOLmiJAgAABAgQIECBAgAABAgTaJHD3PfeI8QryBAgQIECAAAECBAgQIECgHAJifDnGqU2zOJolQIAAAQIECBAgQIAAgXIJiPFiPAECBAgQIECAAAECBAgQKI1AEuO/Ua65B70lQIAAAQIECBAgQIAAAQKLUyCK8Zedd8nivHhXTYAAAQIECBAgQIAAAQIEyiXQYzF+b3+1VqnW+nfP73KINjU7v53UGgECBAgQIECAAAECBAj0vsBdd0dPqu/EovqRgShgN/zMc97evSVpf83QwfmcTWlTs2O9//Gaz1HARYAAAQIECBAgQIAAAQJj43fdffdCxvg4dW8ZmetI7B/aHLUwsDfExfkpm7ep2dBJ6Z0AAQIECBAgQIAAAQIECMxR4Ot3dTjGbxjen4b2g4MbQnG+nsNndRmhhTkePtm52tTsZKeznQABAgQIECBAgAABAgQIzFTg63fd1dlqfD3Gj4+OhcBcrRfk82vvc2vjsz3j5L9heP+B4TXFJfrRzmFjslY/baqw8+bBAylN/kSVai09V2ghW/zf3GxcVE/L/ulu9XmEdPuaoYNpSb9aq9QvOXm33gf1eQIECBAgQIAAAQIECBAgMCuBbV//+nEPPrRzVsfMbed6qM4toQ9ZN0m2xawep/Q4XTdtLyTztKTfnLfDGTcXAn8aqpvaTJL8TGJ8uFU+i/rRi7TZEOM3xKv9w0RDMkcQLjZMGeQc5kbqKAIECBAgQIAAAQIECBBYbALbtnVPjE/jcShWJ79G8Thk48YH14UonhXDQwgvVOPDg+tD+T20n0vRIfAnC/6nbja8m9XYQ6qPT5p2tZKuLwi/FkJ+iw4sto+d6yVAgAABAgQIECBAgACBuQls27atW6rxWbG6UOWO83BI4GFFfcPd9VPH+Ma8naboFqdL9wxBvXWzzXMK+S3519Hq/eIEwUxvdZjbWDqKAAECBAgQIECAAAECBHpe4M4FjfGFYnUhq4fl6JVqy9SdbJw6bzdF6Hy1P5TQk6fcF8P2lM2Ggn+yTj7+fOSje/61GG/aggABAgQIECBAgAABAgTmWeCOOxesGh8yfHi8XCiPT7nmPKToeAX7lHm7uRKei/HpudJ6e2hnRtX4hp3HR8OMQH5RfRbyixMEySVPeYG5pf49P4fkAgkQIECAAAECBAgQIEBgtgK333FHZxfV18vszd82Vw/22br6fDbONoY7z0O9PXsYXiHkh3dbLaoPUwahD0mvwp75dQHNT87LcnuuP02PuAu38RdifAj8Wcif7WjZnwABAgQIECBAgAABAgQWucANN3xpAWN8/XvmwjCEWndI+61ifP6oevJvztuFCD2Wlc3TYniW1dcMHWzcMzxUL/0iuuLsQNTVsCVJ8rlYnvYn21JsWTV+nheThI+NZgkQIECAAAECBAgQILBYBO68884OxXiJiwABAgQIECBAgAABAgQIEDhGATF+sUzYHOMHxeEECBAgQIAAAQIECBAg0A0CYrwYT4AAAQIECBAgQIAAAQIESiMgxpdmqLph1kcfCBAgQIAAAQIECBAgQGBhBcR4MZ4AAQIECBAgQIAAAQIECJRGQIwvzVAt7HyPsxMgQIAAAQIECBAgQIBANwiI8WI8AQIECBAgQIAAAQIECBAojYAYX5qh6oZZH30gQIAAAQIECBAgQIAAgYUVEOPFeAIECBAgQIAAAQIECBAgUBoBMb40Q7Ww8z3OToAAAQIECBAgQIAAAQLdICDGi/EECBAgQIAAAQIECBAgQKA0AmJ8aYaqG2Z99IEAAQIECBAgQIAAAQIEFlYgivG3fPqShe2EsxMgQIAAAQIECBAgQIAAAQIzEYhi/NnnifFq8gQIECBAgAABAgQIECBAoAQCYnwJBmkm8zH2IUCAAAECBAgQIECAAIHFIJDE+I914FJHBmqVavFnw/D+sV5L0fuHNlcG9nbA0ykIECBAgAABAgQIECBAYBEKLGiMj1L9lpGeSvJ7+6ubBw/02tzEIvyL4ZIJECBAgAABAgQIECDQnQKdW1SfVuNDBT6qWsfF+f7dPRR6d2+phAvszvHWKwIECBAgQIAAAQIECBAotcCCxfjRA8Nr4hi/Zuhg9rp/997+aGNW0E5+DUvxi4vV66v0NwyPpJMCcW0/tNzYWtgeTx/UVwFkEwrx9vTUrTY29K159uHg4IZaT81K9NRCiebxsoUAAQIECBAgQIAAAQLlE7jjjjuO+3hHnlQ/VTW+ELBDjN+9pfFe+motq3XXM3w8FxD2LMT4sDFO5i1ai3YuxvX01FNvjOYdWubb6CrqswOt92l5oI0ECBAgQIAAAQIECBAgQGBmAlGMf/ChnR3InK2Dd7IEPYvx9RXpUWU7yuHZlpDDo3J32D8k6qxoX4zx2bFjobW0np/+2r97vGFyIXFouXF0bJpq/MhALfSnfNM5HfgAOAUBAgQIECBAgAABAgQIHLtAFONvWaAYXw+9jbF8PGTmfDBOs3p0VBrps7X3WVG9EOPr7acJPCzODwX8XFPJW6HBMGUQ1/PDxmnmRTzczuQFAQIECBAgQIAAAQIECLRdIIrxZy/EovrCDESI8fUby8OW5ii+ZuhgWPReD9hhSyHGN7cWltmHPJ8U58O5knfTM7bcOHmSjzpQvHW/cIGTH2g3AgQIECBAgAABAgQIECAwc4FujfHZMvhsYXyokEfhPLwOIb/1ovp6jM+q8VMl7YaF98kMSn7jFIvqo91yp2v77MvMB9ieBAgQIECAAAECBAgQINBLAh2/Nz6L5fkCdSh9F5JwyOqFEnp6eEjXYXl82GeSanyLR9mld90337Ffv2E+13iruYNcVvc9c/nR9JoAAQIECBAgQIAAAQIE2ibQxTF+rP4ou8Jy99Qiq8BH989Ps6g+OaRhXiCeEWiI8ck8QsuN4Xb9+kr+bDrHw+0yCi8IECBAgAABAgQIECBAoK0CnYvx7byMUJxvWepv2xRIekXRUoJ4FUC7T6R9AgQIECBAgAABAgQIEFj0AmWN8SMD9eQcSvH5x9rnVry3eYyj0v1Ut9x3riftnChxFQQIECBAgAABAgQIECDQFQLljfHhafPZHewLUopv8xyBZE6AAAECBAgQIECAAAECBPICPRLjwyPru2JqJO/rNQECBAgQIECAAAECBAgQmEeBssb4eSTQFAECBAgQIECAAAECBAgQKIuAGK+AT4AAAQIECBAgQIAAAQIESiMgxpdmqMoyM6SfBAgQIECAAAECBAgQINA+ATFejCdAgAABAgQIECBAgAABAqURuOeee4578KGt7Zsn0DIBAgQIECBAgAABAgQIECAwXwJifGlmXOZryLVDgAABAgQIECBAgAABAuUVEOPFeAIECBAgQIAAAQIECBAgUBoBMb40Q1XeuSI9J0CAAAECBAgQIECAAIH5EhDjxXgCBAgQIECAAAECBAgQIFAagVLH+L391VqlWlszdHC+ZjW0Q4AAAQIECBAgQIAAAQIEulmgczF+ZCCK3JUNw/vH6pMc+4c2RxurW0ZyG2fsJcbXJWeM5hACBAgQIECAAAECBAgQKLGAGF/iwRPdCRAgQIAAAQIECBAgQGCxCYjxYjwBAgQIECBAgAABAgQIECiNQJfF+N1b4jX28fL74gr8sPw+eWvz4IHx0bH6ovr6u9mi/aSp7Ne5LNovzSgutskn10uAAAECBAgQIECAAIFFK9DxGB8/lK6Q1XP3xtfTeLZbnMObthdifENr8RPvDg5uyAd+gZwAAQIECBAgQIAAAQIECPSCQHfF+MJsSlqZjxJ7y8fjZdX48IS8tDhfGdgbtaMabwECAQIECBAgQIAAAQIECPScQBLjdxbyc3susmUUD2X28KT6A8Nrsjp8+iIuvBcW2yel+MKi+rj/oQJvIX17RrADHxKnIECAAAECBAgQIECAAIGpBboqxodyevL9c7lqfHQNxYQfr5yv3xsfX6QY3wvrQ6b+vHqXAAECBAgQIECAAAECi1ygm2J8GtTTynwo1Ge19ySjhqwerZyfMsZbVK8mT4AAAQIECBAgQIAAAQI9J9CFMT48pj63qD5dkJ9bb9+/e5pF9eGQhlkA9WoCBAgQIECAAAECBAgQIFBigW6K8dlz6ZKvmsstqg+ZPE34cYafJsZ7xN0iX2fi8gkQIECAAAECBAgQINCTAldcccVxDz7UiUfc9SSfiyJAgAABAgQIECBAgAABAp0UEONLvJSikx8U5yJAgAABAgQIECBAgACBbhDo3KL6brhafSBAgAABAgQIECBAgAABAqUWEONV4wkQIECAAAECBAgQIECAQGkExPjSDFWpp4t0ngABAgQIECBAgAABAgTmRUCMF+MJECBAgAABAgQIECBAgEBpBMT40gzVvEzbaIQAAQIECBAgQIAAAQIESi0gxovxBAgQIECAAAECBAgQIECgNAJifGmGqtTTRTpPgAABAgQIECBAgAABAvMiIMaL8QQIECBAgAABAgQIECBAoDQCYnxphmpepm00QoAAAQIECBAgQIAAAQKlFhDjxXgCBAgQIECAAAECBAgQIFAaATG+NENV6ukinSdAgAABAgQIECBAgACBeRGIYvzZ6wfmpS2NECBAgAABAgQIECBAgAABAm0ViGP8eZe09RwaJ0CAAAECBAgQIECAAAECBOZFIFlUv3Ve2ur5RkYGapVqrbJheP9YW5bi7x/aHLVfra0ZOphgtvuMPT9kLpAAAQIECBAgQIAAAQI9JtC5e+OzjJok1fDn5sEDbYnEzeMUd2Cy0x0c3BBH9DhFh77ltgzsHT0wvCa827+7LX3OiNIY3/4zNivZQoAAAQIECBAgQIAAAQLdLLBYYnxa1q4eQ4wfG293bbwxxrf/jN380dQ3AgQIECBAgAABAgQIEGgWuPfee4978KFOLKpvzqjNvWnflulifK66ntXA27Z4frLLXFiiyXplOwECBAgQIECAAAECBAh0j0AU48/uyCPuJs+o9QXtucXq2cZ6/TxE8Xit+8DegFjYM7dPOHD3luZF8rkT5QJ8csf7pDF+b3+6qH7LSLTn1OfNdq5Vqsn+uRMVulR/t4koa2QmZ5y+/SCW27M9N/k7EQECBAgQIECAfnjYAAAgAElEQVSAAAECBAi0SSCK8Zfd8I02tZ5vtimj1sNk9lYlC+eNWToLtLn71dNqeRanc2/l83YhM6f7zGuMbz5v05bsurJ18uE2+3iKIZ1xyBzCI+6yq26I8U3t52YKchMZ2W5hRkNoJ0CAAAECBAgQIECAAIGSCySL6jsa4wu18SSKN4b28YZAm0XTNH6HZB7H3VyMT4N9ln5rWVwPLcwg0DZ1JkxGZM02heokpWcHVmvpfER9Syi5h56HCYvQZtzzhqseHQvvpil9Blc6ZfvhQuoTKLYQIECAAAECBAgQIECAQLkEohi//YaPdaDTWUZtEeOLC9Rz69Xj9JuF4XpNO+TbaEs93GahPTtXKGuHp9NN+oi7XLLNTpdOCmRvhZM2hepw3uaeZFuS6YPs15Dq68X5aEtTt6c9Y8Mh07TfgVF2CgIECBAgQIAAAQIECBBoq0A33Bsf5eRigg3xNcntWYW5sBA9XjEeJe0su9Yr7cXWovbbWY3Pztvck4Yt4bqaLySeX2jqdrZ/EvsbWpvcbZL22/pJ0jgBAgQIECBAgAABAgQIdECgW2J8fQH5wN7RkNsbltAXyvhJUhXjhzYnLPG6gyz2Z3fFZy+yuYZscYEXBAgQIECAAAECBAgQIFA+geTe+J0dmDBoKjU3YoWC+Zb+gSR8hpXn2Sr3+qL6/LHT1qijnUPjM0iz2elmuqg+a7O5Jw1bsl/DpRWfrNBElMXyGVbjp2m/A6PsFAQIECBAgAABAgQIECDQVoEuivFZET6tutdDe5ZO64+si5P5DMNtPsbXsrvlJ2VtY4yv3zsQHnEXz0fs3pKsOzjmGD9N+5NecnE2wW4ECBAgQIAAAQIECBAg0LUCCxDjG9bG53J1VnyOqvHhuXFx0M2ideGu71nE+IY5gkLjDSE2O9f8V+Pz3zafLXevX+yxx/j8A//yzlNdb8Pl+5UAAQIECBAgQIAAAQIEuljgtttuO+7Bhzq6qD4fLyvVQnk8LH2vVXJfhB6mQAohP3dgVqvPFrfXi9K5OYL6xsY5gobhaW+MLywNSCnCfMF8xPip2g+S8cxIw1X7lQABAgQIECBAgAABAgTKIPDJT37yuG8/OCzgESBAgAABAgQIECBAgAABAt0vcO2114rxqtMECBAgQIAAAQIECBAgQKAcAldddZUYX46h6v45IT0kQIAAAQIECBAgQIAAgXYL3HXXXWK8GE+AAAECBAgQIECAAAECBMohMDg4KMaXY6jaPaOjfQIECBAgQIAAAQIECBDofgExXoYnQIAAAQIECBAgQIAAAQKlERDjSzNU3T8npIcECBAgQIAAAQIECBAg0G4BMV6MJ0CAAAECBAgQIECAAAECpREQ40szVO2e0dE+AQIECBAgQIAAAQIECHS/gBgvxhMgQIAAAQIECBAgQIAAgdIIiPGlGarunxPSQwIECBAgQIAAAQIECBBot4AYL8YTIECAAAECBAgQIECAAIHSCIjxpRmqds/oaJ8AAQIECBAgQIAAAQIEul9AjBfjCRAgQIAAAQIECBAgQIBAaQTE+NIMVffPCekhAQIECBAgQIAAAQIECLRb4O+uuea4bz843O7TaL/tAgeG11Q3Dx6Y5azE7i2V6paRsVkeZX8CBAgQIECAAAECBAgQWCCBW6+/vkMxfv/Q5kq1tmboYDHQHhzc0LxRqpy9gBi/QH+Fip/n2Q+cbhMgQIAAAQIECBAgQGA2Ap1bVJ/E+EpjxbibY/ze/mqtf3dJgpkYP5vPvexNgAABAgQIECBAgACBkgp0NsZvGB4cqFU2DO+vJy4xfp6mCcT4+odqnkg1SIAAAQIECBAgQIAAge4TmEuMH7j17lPO+fAp53x44Na7Zz57EVXjowAflbhzS+ubYnx0t3Yt/SkE/sZsNjIQdgsV/mjLwN5clwqNN+8f7ZncHB5l4LS1tPye70aoyedaaFmlT063d3BD1FTaTq7lYt/Gw/KE+LxZt/PnzV9+ktJ3J/1M72bPtbB5MHorf2985NySMXcVW0aSy+++z2VuEBvH3VsECBAgQIAAAQIECBBYzAJf/9rXZndv/MCtd9djdrU28yQfYnySnLPAWUjacS7N3hqPA2frB7BFbxWib3xUQyjN/dp6/zTG1xcIxB3IzlhYVF/vf3xUq8X20bUU7hooVMjjd0Ofi5e2tz/ePtXlJ9MBuWDf3NXcqQs9j84VDsy/Hk2nGLLrFZgJECBAgAABAgQIECBAoNsFomr8gw/tnPlMxinnfDgf408558MzPDYfg3NhMh/jC+EzbrZ5Swwa5c98+MwaKewfnSWJzZPu3zCnMD4aLxYIEX2S1iatXReC+uhYNA2RW3cQKv9j43F+rs9WBMDC6RovP47coWMN/cxM0jYj6jBfELUTHRu/lb3ILiE30xG60e0fWf0kQIAAAQIECBAgQIDAYha49957FyDGJ2k5jrhZAk/SZj6cR3myMQkn+TMKn2HFeHiRBOZcgt3bny0yn3z/dFF9Fmsnj/Ghdt0cv7Pcm7uWqME41YfuhQ7HF7h7S1Yer3/4GucaipffkMCbd87tEM1fNJ437nbzecX4+tBn4+gFAQIECBAgQIAAAQIEuldg1jF+HhbV16P45sEDuejbHE2niPFhlXg9BifNZo3kI2v+dUNsa8yx+ZJ4/nUYwnRGoGWYz11LdJbo11z9PLSQrORv7n/W81wP67MYuZQeXXLzzrkd6kflmoqOanZovPxcJxuO9SsBAgQIECBAgAABAgQIdIHArGP86Nj4sT3irh4Uk6X1g/WV582xuXlLfHgusjbG+BCeC1F2iv0bc2z+jPnX9W4n+bywWj4dyIYYH9/bn1/cno136/40ny63peGQ6NfiHEF0IenkQv7+hYJPbp9ke7Rn4faE/GV6TYAAAQIECBAgQIAAAQJdJzCXGF9Ihlk0ne5Fq2wZxdRK7sH1caqsF7pzt9A3wEWBOb8ufWQgtxp/95bKwJb+QjqdfP+pYnwhludOUdie02jaHjWeC9sHhvuHDib7x+vesz5P/oi7rGjfEOPjdQq5BJ5IBro45OcmGtL203X+hTZruUYakP1KgAABAgQIECBAgAABAl0nsLAxPnnqW+E5cHGSD7d2tyxl50rf2R3guciaPv6t8Iy36JA4yYc7xuv7TxXj0+4lUTx/w3n98MLkRVOMz56En543y+3R5yDfYLb2ftLLb4rxxRa2jDTsECf54BPifYPDhuH9jZffdR/Q3CyJvhEgQIAAAQIECBAgQIDAeOdivDxGgAABAgQIECBAgAABAgQIHKOAGG8uhwABAgQIECBAgAABAgQIlEZAjC/NUB3jhI3DCRAgQIAAAQIECBAgQKAHBMR4MZ4AAQIECBAgQIAAAQIECJRG4Nprrz3uwYd29sCEhEsgQIAAAQIECBAgQIAAAQI9L/CFL3xBjC/NpEvPfxxdIAECBAgQIECAAAECBAhMLdC5RfX/+uu3vvDEodXf3H/mjhf9EMgEVn9z/xeeOPSvv35r6k+qdwkQIECAAAECBAgQIEBgdCz9wrlvtNviX3/9lgCfBVcvmgVWf3O/JN/uv4baJ0CAAAECBAgQIECgBwT+6q/+6rjLzruk3VfyhScONSc3WwjkBb7wxKF2fw61T4AAAQIECBAgQIAAgbILRI+460CMV4rP51WvWwqs/ub+sv910n8CBAgQIECAAAECBAi0WyC5N77ti+pbxjYbCTQItPvjrn0CBAgQIECAAAECBAiUXUCM97y9LhIo+18n/SdAgAABAgQIECBAgEC7BcT4LgqxDaXpRfhruz/u2idAgAABAgQIECBAgEDZBcR4Mb6LBMr+10n/CRAgQIAAAQIECBAg0G6BJMbvbPdpFmFh2SXPQaDdn0PtEyBAgAABAgQIECBAoOwCUYz/9oPD7b6MOSQ6hyxCgXZ/DrVPgAABAgQIECBAgACBsgsMDg6K8V20qnwRRvf8JZf9r5P+EyBAgAABAgQIECBAoN0CYrwM30UC7f64a58AAQIECBAgQIAAAQJlF/jSX/yFanwX5dh8aXoRvi77Xyf9J0CAAAECBAgQIECAQLsF7rz1VjFejO8WgXZ/3LVPgAABAgQIECBAgACBsgtYVN8tCXYR1t6bL7nsf530nwABAgQIECBAgAABAu0WEOMnjfGPH52YOPpGc9Tsxi0/GX1r4j+e+Umra5nirR2t9j/2jcdwxnZ/3LVPgAABAgQIECBAgACBsgv0XIyPMmT+v3cfn2subXOMf+NX+W5GryfJ4TPp/xTJeYq3ZtLyHPY5hjOW/a+T/hMgQIAAAQIECBAgQKDdAj0Z4+t5OIri747eM4csuuPFmcX4KI3/6oU5lLWbDnzh3SjLz63+P0VynuKtObFMvxjhGM7Y7o+79gkQIECAAAECBAgQIFB2gR6P8WdGkXKOBflOx/gdL8a9ndOkwBTJeYq3xPix8bL/BdZ/AgQIECBAgAABAgQWm0Cvx/ioxF2P8VEyD/8VS+ivPxPXwpM3k7fyMf6eX//HxMTEW79+vVCLTurnTQ0mO6ebJ62uN1Xj41CdP2mS6tN28msK8udN2k+zen2hfr2r6Vu5C2zoUr61/Fl2vJi/kMYGX0huXkhtc3v+xzPRW/UFEQWx6SYOFttfP9dLgAABAgQIECBAgACB2Qp84hOf6OYvnHv9mV/P8iFzheJzMSr/ZPRXWQ6PsmsWNeP0m4XbF95tjPGFnRvWzxdPkSzFr08cxOG5mI1DrG08MNke5eGw/+NHswmIuJ1CYk+68cav6hsn6hMW+Q5HIPkb7wsXG8fvzCG+j6De+dB4wzKBpMHQyTPTtJ91NW6/btvANc2vs/342p8AAQIECBAgQIAAAQKLTeCaa67p2hj/+jPv1hNmSL/T5MBCBTsKtpPdGF9P0fnknD9LWhiPi9XF0n2+D/V2omMLkwjxbs1b0op08cCsTP3Cuy37XO9k1J8sM4eexNE618ko9qf188a3Xjyz3kJzH5q3JKeYosGmQya95NDb7GKbXiy2v36ulwABAgQIECBAgAABArMV6NpF9XH9OaxXb/V/m6JskgkbMmS+Lh2qyllrWdW9vmI8FyyjGP/uf7w1zRPsiiG2RQiPLiQXsLMoWzwwnLce1+MtUR+y/9IpiVSm0OeGq97RkLqLsyHZztGLRsbHj4b8H3Ug6mT2X25eINdgcyNZ++Gi8pMjU7+e7cfX/gQIECBAgAABAgQI/P/t3c1vVNcZB+D5i/gDWolNZKlFQkZdoLQSLAwqjBobyV/IBqNQIbVsAosUDMYG6to4IaKNSPho+UpKwEBpxLK1orQVLKKiRAihKGxa3ZnB82Hc1L6+4/veeaLZZJg595znXCN+7zn3mECnCeQ2xv/9jSSLNsTF/zMTtmbIeqCtROLFBuspujm4Lsbsyg7zSoxvCsyt3ai3kwTU1DG+3plkIPWD61vi/WLAfn20XosYn1yxXsKoM7buOBDjnZNHgAABAgQIECBAgACBNgrkOcZXknyqZ+OrtYDq8nJz3q6sM1cXyZck5FqSr22qr8Tp5ZN8c7OtRYTXbbOvFQKav1h9s77dvXK8XMMTAa/tZP3N1usun7qrj7LXWl7ah8V3GlpI+tbwvy3Xqvg0bTdo2QHRWvioF0qWrsx3WhXNeAkQIECAAAECBAgQILBSgZzH+P8V+ZaGwOSdlpBZj5QNQbR2EN3iXvcku9Z/YfvSI+4qSXWZJN/U7BuvPeJu8fC8pkC7GJgbqgaNJ8M1RPraA//V7P2qe7Wz5apvtoy6NXU3nH7XPJbKkvviDoXqBoTaaQK1Kkalz5WPvdps33qtJQfjJbvw622+fpqaKOqzvNLb1+cJECBAgAABAgQIECDQaQKFjPGLT3M3xNfmB+P/+beWFF1J8rXv1R4Xb8yxlWPhljkwL8nbyX+LK9KV3fu1tpYJ/62PnSefXpL26+189+LS4gn2ry6XfGVxub41WjcUF6p/VPv9cMmXWrpUjei17jb1oW7y/Mmz5jPzWlN6vav/+e5Sa2fqKf17I32n/fgZLwECBAgQIECAAAECBFYqULgYv8wy7/cGSB/Ig8BKb1+fJ0CAAAECBAgQIECAQKcJJDH+cO/WrIedh4ioD/kXyPo+1D4BAgQIECBAgAABAgSiCyQxvmuzGL+Cjd/5D8Nxexj9x0n/CRAgQIAAAQIECBAgkLWAGC/A50gg69td+wQIECBAgAABAgQIEIguUI3xO7IeRtz1YT1vp0DW96H2CRAgQIAAAQIECBAgEF3g+Lvvlro2i/E5WpFuZ2zO27Wi/zjpPwECBAgQIECAAAECBLIWsKlegM+RQNa3u/YJECBAgAABAgQIECAQXaC6Gu+IuxxF2bytkLezP9F/nPSfAAECBAgQIECAAAECWQskq/G7nFTvt83nQyDr2137BAgQIECAAAECBAgQiC6QxPiZ2bmsh9HOFV3XiiuQ9X2ofQIECBAgQIAAAQIECEQXSGL8YTE+H2vRceP3WvU8+o+T/hMgQIAAAQIECBAgQCBrgb6+vlJX9pvqN00trFXS005RBTZNLWR9u2ufAAECBAgQIECAAAEC0QX6+/vbEeNHrzwuavg0rrUSGL3yOPqPk/4TIECAAAECBAgQIEAga4E2PRv/6MlzC/JrFXcL2c6mqYVHT55nfbtrnwABAgQIECBAgAABAtEF2hTjX3z78tGT56NXHgvzhQzhaQa1aWph9MpjGT76XyX6T4AAAQIECBAgQIBAewTaF+PbMx5XIUCAAAECBAgQIECAAAECBRYQ418WeHYNjQABAgQIECBAgAABAgQKJpCcVN+G3xtfMDXDIUCAAAECBAgQIECAAAEC6yIwMDAgxluQJ0CAAAECBAgQIECAAAECMQRsqo8xT+tS43FRAgQIECBAgAABAgQIEMibgBgvxhMgQIAAAQIECBAgQIAAgTACRw4csKk+zGzlrQikPwQIECBAgAABAgQIECDQZoEjY2Olmdl32nxVlyNAgAABAgQIECBAgAABAgRWIVDdVC/GW5AnQIAAAQIECBAgQIAAAQIBBMT4AJO0ivKMrxAgQIAAAQIECBAgQIBAIQXEeDGeAAECBAgQIECAAAECBAiEERDjw0xVIctIBkWAAAECBAgQIECAAAECKxIQ48V4AgQIECBAgAABAgQIECAQRkCMDzNVKyrP+DABAgQIECBAgAABAgQIFFJAjBfjCRAgQIAAAQIECBAgQIBAGAExPsxUFbKMZFAECBAgQIAAAQIECBAgsCIBMV6MJ0CAAAECBAgQIECAAAECYQTE+DBTtaLyjA8TIECAAAECBAgQIECAQCEFxHgxngABAgQIECBAgAABAgQIhBGoxvi5QpYoDIoAAQIECBAgQIAAAQIECBRMQIwPU3Ep2J1nOAQIECBAgAABAgQIECCwCgExXownQIAAAQIECBAgQIAAAQJhBMT4MFO1iiKNrxAgQIAAAQIECBAgQIBAwQTEeDGeAAECBAgQIECAAAECBAiEERDjw0xVwQpIhkOAAAECBAgQIECAAAECqxAQ48V4AgQIECBAgAABAgQIECAQRmDPnj2lmVm/cC7MhK2iVOMrBAgQIECAAAECBAgQIFAYgf3794vxMjwBAgQIECBAgAABAgQIEIghYFN9jHkqTN3IQAgQIECAAAECBAgQIEAgjYAYL8YTIECAAAECBAgQIECAAIEwAqOjozbVh5mtNAUb3yVAgAABAgQIECBAgACBAgh4Nl6GJ0CAAAECBAgQIECAAAECYQQmJiasxoeZrQLUjQyBAAECBAgQIECAAAECBNIIiPEyPAECBAgQIECAAAECBAgQCCNQLpetxoeZrTQFG98lQIAAAQIECBAgQIAAgQIIDA8Pi/FiPAECBAgQIECAAAECBAgQiCFgU32MeSpAxcgQCBAgQIAAAQIECBAgQCC9gBgvxhMgQIAAAQIECBAgQIAAgTACNtWHmar0NRstECBAgAABAgQIECBAgEB0gZGRkVLXtrejD0P/CRAgQIAAAQIECBAgQIBAJwgkm+q7Nm/thKEaIwECBAgQIECAAAECBAgQiC4gxttUT4AAAQIECBAgQIAAAQIEwgiI8WGmKnrFSP8JECBAgAABAgQIECBAIL2AGC/GEyBAgAABAgQIECBAgACBMAJJjJ+ZnUtfD9ACAQIECBAgQIAAAQIECBAgkLVAEuMP9w5kfRntEyBAgAABAgQIECBAgAABAukFfvnWW6WuzWJ8mO0T6adcCwQIECBAgAABAgQIECAQV+DIoUOlN8cm4g5AzwkQIECAAAECBAgQIECAQOcIeDbeOjwBAgQIECBAgAABAgQIEAgjIMaHmarOqS0ZKQECBAgQIECAAAECBAgsJyDGi/EECBAgQIAAAQIECBAgQCCMgBgfZqqWq8R4nwABAgQIECBAgAABAgQ6R0CMF+MJECBAgAABAgQIECBAgEAYATE+zFR1Tm3JSAkQIECAAAECBAgQIEBgOYHt27eXZmbnlvtj7xMgQIAAAQIECBAgQIAAAQL5ERgbGxPjLcgTIECAAAECBAgQIECAAIEYAjbVx5in/BR+9IQAAQIECBAgQIAAAQIE1lFAjBfjCRAgQIAAAQIECBAgQIBAGAExPsxUrWOxx6UJECBAgAABAgQIECBAICcCYrwYT4AAAQIECBAgQIAAAQIEwgj09PQ44i7MbOWk9qMbBAgQIECAAAECBAgQILBeAvv27RPjxXgCBAgQIECAAAECBAgQIBBDwKb6GPO0XmUe1yVAgAABAgQIECBAgACBXAmI8WI8AQIECBAgQIAAAQIECBAII7Bnz55kU/2GjVu8CBAgQIAAAQIECBAgQIAAgZwL1J6Nz3kvdY8AAQIECBAgQIAAAQIECBDYsHFLbVM9CwIECBAgQIAAAQIECBAgQCD/AkmMP9y7Nf8d1UMCBAgQIECAAAECBAgQIEAgifFdve+AIECAAAECBAgQIECAAAECBPIvUFmNd8SdE/4IECBAgAABAgQIECBAgEAEgcpq/Gab6h3UT4AAAQIECBAgQIAAAQIEAggkMf6E1fgIFZf8b+3QQwIECBAgQIAAAQIECBDIWiCJ8aMn/d74ABWXrG8F7RMgQIAAAQIECBAgQIBA/gUqm+q3vZ3/juohAQIECBAgQIAAAQIECBAgMLx1a2l0m2fjrcYTIECAAAECBAgQIECAAIEAAr/eu7c049l4z8YTIECAAAECBAgQIECAAIEIAuVyWYwPUG6xb4QAAQIECBAgQIAAAQIECGzYuGVoaEiMF+MJECBAgAABAgQIECBAgEAMgeSIO5vqVXQIECBAgAABAgQIECBAgEAIATE+RrklxM2kkwQIECBAgAABAgQIECCQtYAYL8YTIECAAAECBAgQIECAAIEwAkmM7x4Zz7paoH0CBAgQIECAAAECBAgQIEAgvYAYH6bikn6ytUCAAAECBAgQIECAAAEC0QXEeDGeAAECBAgQIECAAAECBAiEERDjw0xV9IqR/hMgQIAAAQIECBAgQIBAegExXownQIAAAQIECBAgQIAAAQJhBMT4MFOVvmajBQIECBAgQIAAAQIECBCILiDGi/EECBAgQIAAAQIECBAgQCCMgBgfZqqiV4z0nwABAgQIECBAgAABAgTSC4jxYjwBAgQIECBAgAABAgQIEAgjUC6XS90j4+nrAVogQIAAAQIECBAgQIAAAQIEshYYGhoS48MUXbK+G7RPgAABAgQIECBAgAABAjkX2LlzpxgvxhMgQIAAAQIECBAgQIAAgRgCAwMDYnyMqcp5QUj3CBAgQIAAAQIECBAgQKANAo64k+EJECBAgAABAgQIECBAgEAYATE+zFS1oajjEgQIECBAgAABAgQIECCQc4He3l6b6iV5AgQIECBAgAABAgQIECAQQ+DQoUNifIypynlBSPcIECBAgAABAgQIECBAoA0CNtXL8AQIECBAgAABAgQIECBAIIyAGB9mqtpQ1HEJAgQIECBAgAABAgQIEMi5gBgvxhMgQIAAAQIECBAgQIAAgTACYnyYqcp5QUj3CBAgQIAAAQIECBAgQKANAmK8GE+AAAECBAgQIECAAAECBMIIJDH+VyPjbSgYuAQBAgQIECBAgAABAgQIECCQUsBqfJiKS8qZ9nUCBAgQIECAAAECBAgQKICAGC/GEyBAgAABAgQIECBAgACBMAJifJipKkDRyBAIECBAgAABAgQIECBAIKWAGC/GEyBAgAABAgQIECBAgACBMALlcrnU7Yi7jWEmLGXZxtcJECBAgAABAgQIECBAILTA8PCwGC/DEyBAgAABAgQIECBAgACBGAI21ceYp9C1Ip0nQIAAAQIECBAgQIAAgbUSEOPFeAIECBAgQIAAAQIECBAgEEZAjA8zVWtVudEOAQIECBAgQIAAAQIECMQVEOPFeAIECBAgQIAAAQIECBAgEEZAjA8zVXFrRXpOgAABAgQIECBAgAABAmslIMaL8QQIECBAgAABAgQIECBAIIyAGB9mqtaqcqMdAgQIECBAgAABAgQIEIgrIMaL8QQIECBAgAABAgQIECBAIIyAGB9mquLWivScAAECBAgQIECAAAECBNZKQIwX4wkQIECAAAECBAgQIECAQBiBcrlc6h4ZX6uqgHYIECBAgAABAgQIECBAgACB7ASGhobE+DBFl+zuAy0TIECAAAECBAgQIECAQAgBm+pleAIECBAgQIAAAQIECBAgEEYgifEzs3MhSg46SYAAAQIECBAgQIAAAQIEOlwgifGz597rcAXDJ0CAAAECBAgQIECAAAECIQTE+DAbJ0LcTzpJgAABAgQIECBAgAABApkKJDH+vffP//DHP830MhonQIAAAQIECBAgQIAAAQIEUgr84EdvTk5Olv7w4cWfbP9FyrZ8nQABAgQIECBAgAABAgQIEMhUoPtnPyO6OLwAAAGjSURBVJ+eni5duvLHP382/+Lbl14ECBAgQIAAAQIECBAgQIBAbgVu3Pp0bm6udOvT2+fm3v/q31/ntqM6RoAAAQIECBAgQIAAAQIEOlzgH/96snv37h07dpTm7/3l8tU/Xbt+s8NFDJ8AAQIECBAgQIAAAQIECORW4Njx8aNHj+7du7d07/7DO/P3L/z+w2vXb1mTz+2E6RgBAgQIECBAgAABAgQIdKbAV0+/uXb95q5du/r7+w8cOFC6/+Cvd+89+OzuvY8vX52ZOffg4ecLX3z59Otnnalj1AQIECBAgAABAgQIECBAIA8CT79+tvDFlw8efj4zc+7jy1e7u7sHBwcPHjyYrMbfvffgzvz923fmb9z85OJHl85/cOG30zNnzk5PnT47OXVmBa/J05OZvU6dmgr6mpiYDPo6cXIi4mv8xEmvNgscOz7u1U6B3xw77kWAAIEoAu386zHKtY6Pn8ju1eZ/A6zh5SL+szPrPmcaIoJmq1OnprKLnJm3vJJwPXX67Jmz09O/mz3/wYWLH126cfOT23fme3p6BgcH+/r6/guNYv6RXSINJAAAAABJRU5ErkJggg==;" vertex="1" parent="1">
          <mxGeometry x="30" y="50" width="1346" height="921" as="geometry" />
        </mxCell>
        <mxCell id="phIce4MepkweM39JQGYu-2" value="&lt;font style=&quot;font-size: 28px;&quot;&gt;Input folder&lt;/font&gt;" style="rounded=0;whiteSpace=wrap;html=1;strokeWidth=15;" vertex="1" parent="1">
          <mxGeometry x="270" y="400" width="480" height="240" as="geometry" />
        </mxCell>
        <mxCell id="phIce4MepkweM39JQGYu-4" value="&lt;font style=&quot;font-size: 28px;&quot;&gt;Dest A&lt;/font&gt;" style="rounded=0;whiteSpace=wrap;html=1;strokeWidth=15;" vertex="1" parent="1">
          <mxGeometry x="780" y="400" width="480" height="240" as="geometry" />
        </mxCell>
        <mxCell id="phIce4MepkweM39JQGYu-5" value="&lt;font style=&quot;font-size: 28px;&quot;&gt;Dest B&lt;/font&gt;" style="rounded=0;whiteSpace=wrap;html=1;strokeWidth=15;" vertex="1" parent="1">
          <mxGeometry x="780" y="670" width="480" height="240" as="geometry" />
        </mxCell>
        <mxCell id="phIce4MepkweM39JQGYu-6" value="&lt;font style=&quot;font-size: 28px;&quot;&gt;Quarantine folder&lt;/font&gt;" style="rounded=0;whiteSpace=wrap;html=1;strokeWidth=15;" vertex="1" parent="1">
          <mxGeometry x="270" y="670" width="480" height="240" as="geometry" />
        </mxCell>
        <mxCell id="phIce4MepkweM39JQGYu-12" value="&lt;font style=&quot;font-size: 18px;&quot;&gt;Folder View&lt;/font&gt;" style="rounded=1;whiteSpace=wrap;html=1;strokeWidth=7;" vertex="1" parent="1">
          <mxGeometry x="270" y="350" width="130" height="30" as="geometry" />
        </mxCell>
        <mxCell id="phIce4MepkweM39JQGYu-13" value="" style="shape=image;verticalLabelPosition=bottom;labelBackgroundColor=default;verticalAlign=top;aspect=fixed;imageAspect=0;image=data:image/png,iVBORw0KGgoAAAANSUhEUgAABUIAAAOZCAIAAABUcM2MAAAgAElEQVR4Aey9eXwVRd7vz++P+7qv172/3+v+7r2/Z57nmeWJDs44MhDHfXkGRp0Zj4goLiDoICAECKgohEVxGUUho8KgKIiObAEU2QNhF2QngBGQVQwayEhCgmQDsvfvdldXdZ0+fU7OOTlJzkne55UXVFdXV33rXUv3p6q6ut1p65eXl/fdd98dO3Zs7969W7duXbt27arIf5n8mp3ACn4QCI/Acn4QgAAEIAABCLQBAuE9FxAKAitWNuUvtCqaPHlyZmbmhrb32+j/W7t2bXp6ejDZfcfYPreOeviGUT06pt3XfpTvJ6Pu+B+jfv8/0jr/j9HmX7vTp09///3333333b59+7LWrN2+7/jeI2cPnrp4+EwdfxCAAAQgAAEIQAACEIAABCAAAQgcPlP3/X9Jaua/nP/5qyW/vvat39/2++ceunLU3baST+vcTmj4L774YvP2vQdyyykeCEAAAhCAAAQgAAEIQAACEIAABFwEmlnD68nt/pdfD3v4T53Sugsl307Mw2/ettdlIocQgAAEIAABCEAAAhCAAAQgAAEICAK6rm4R97CH/yTm5NsdO3ZsddYa5uGpmhCAAAQgAAEIQAACEIAABCAAgWAEWkS664nu/pdf//65h34y8o522dnZ2/cdD2Yo/hCAAAQgAAEIQAACEIAABCAAAQjoirql3G/9/rb2I33tvvjii72HzzZYJLmFdfnn686V1heX158P8ldcXn+utD7/fF1uYZTb4/3zx/rSS/U1tQY/CLQsgepao/RSff75+gabRjgBvj5T97XcM1J3h3MtYSAAAQhAAAIQgAAEIACBeCDQUtJdT3fJr6/dvH1ruzVr1oTelz630FTvwaR7MP9zpfURiflvC+pq61pWuJE6BDwI1NYZJ89GOSx1OL+hUYAGA0jxHw/dFjZAAAIQgAAEIAABCECgLRPQ5XRLub/512t7vjGsXWZmZoiSOF1cF0yoh+N/ujgs/VNUVu+hn/CCQNwQKCprSJBrevtIfljVXm93UVyiX44bAhCAAAQgAAEIQAACEGhqAi0l3V3p3jrqoXZ//OMfg+W2kRpe6PwGlXxxORo+btQqhgQnUByJkg/WpvCHAAQgAAEIQAACEIAABBKUgEtOt9Th+vXr261cudITYm5ho+bh9bn6EKvrvy1gJX1w4ciZOCMQ/ep6ba7es7nhCQEIQAACEIAABCAAAQjEOYGW0u2udG8d+VBQGR/F+/C6dNfd50qDLkjmffg4E6qYE4pAbZ0RomeJycL4mEQSwkhOQQACEIAABCAAAQhAAALREXDJ6ZY6DCrjYzgVL/S854R8XjFT8aFEI+fikMD3RRG/9x5dH8FVEIAABCAAAQhAAAIQgEBcEWgp3e5KN6iMzz8fsxX1Qsbnn/cQPxcuNvxW/IXS0vS3pgweNqL/oNT+g1IHDxuR/taUC6WlcSjwMKktEPixIujSkrjqYjAGAhCAAAQgAAEIQAACEIgtAZecbqnDoDI+hivqhYz3XFdfVdOA7lu/8fOBg4f3Gzh0QErqiJFjnhv9Qv9Bqf0GDh04ePj6jZ83cDGnIdAEBKpqgqyrj+Gn42IYFe/kQwACEIAABCAAAQhAAAIxItBSut2VbtAt7orLI/5QvP4yfKC7uNxjDjO0yFq/8fP+g1IHpAxbuSqrvt6ctz92/Jt+A4eKv/6DUlHyoQFytikI1BtBZHwYXcPAwcMHDn4qtiOCxAYBCEAAAhCAAAQgAAEIuAj0fiK1XZBf7ydSXYHDP3TJ6XAOjfr64kFpgSGLB6UZ9fWB/uH4BJ2ND9ThjfcJpBNCZV0oLX0yZfiAlGFnzxaIYJ9+tnTEqLFKxos5+QZX13fu3DlJ/jp37hwiRdep6dYvHE9XmEgPf/jhh/ANGz9+vMxN0vjx48NJq2/fvvv37w8npAjzww8/qCSSksJNRVw7fvx4V146d+78ww8/hJ+6CDl9+nRlw9mzZyO9PJzwH3zwwcSJE/WQEydOnDlzpu4TzB1Yk8P0QcaHCYpgEIAABCAAAQhAAAIQaAyBdu3aBbs8xKlglyj/cDS2K0zRgJFGXV3RgJG6v6enHiC0O0oZP3f+4n0HTujCPjvn2LyFS3WfQLfKvHIEk0mGYaS/NaXfwKErV2WJMKe++14X8Mqd/taUEJEYhqHLSCEOw1SV062fK3JPT1eYSA8jlfGZmZkRJRGFjNeleN++ffXDwKSnWz/hL0YZpk+froLp/JWncOzfv79v374uT8Mwxo8fr/u/8sorgWEa7zNx4sSkpKQ33nhDRCUOX3/99XBiVhVYOb4OYyr+8Jm68GV8mBEqA3BAAAIQgAAEIAABCEAAAopACK0e4pS6PJgjtLoOdtYl2l2Hwa4K4R+NjM89c759+/a/+911Xx3OFVo95+tvf/e766666qpvTxcHqnflE8gihGRKGfr0gJRUsZbeMIzjJ7554aVXX3jp1ZShTysN32/g0MHDRoSIxCXjDcOYPn16mJPY062fK3JPT1eYSA/jXMYbhtG3b98QYwc6k/Hjx2dmZiYlJamxkkhlfDBtHynVcMIrJR+Rhje8FtWHqbqR8YGdAD4QgAAEIAABCEAAAhCIOYEQWj3EqQbNCCGtQ59S0l05QocPfdaU8bc89UCguUp7ezpWZG1q3779DTfedOh43tcnTl9/w43/R9ivyNrkGVh5BqYSQmv1H2TuaRcYYPrMfygZP3DI8P6DUgPD6D4uGalUolCbYuW2WHO+f/9+cSgmn6dbP7EmX01H655JSUkqob59++rXGoYRGL+4Vi1TV+vGp0+fruJXEQZzCJ2sn1VmJyUlKbGdlJSklh6o2Xh9Xl0tWRd5120LHFYQZw3DCExL5UJId2FeZmammk7X+euJBkYlMhWYQZXZ+++///HHHx86dOjSpUuF57p16/Ly8tauXbtjx478/HzhWVPT0MaJKkbDEAJen5bXTgZ1BtbkED6pT6epv/sf6HH/Az3UYerTaSEu5BQEIAABCEAAAhCAAAQSi0CQt9Ft7+bMSwitHuJUgxaGVtehzxYPGSsEhuer8qGvdZ21ZPzwiGX8+fL6lVmft2/f/rbb/vPmW25t37595prNSq4HcwRCCaqTDEPsSC8U+4CUYaPHvbQic3V9fX1padlnS5bPmpOxd9+XI0aOiVTGB2pUJex1wSnm7dWsspqOVtpYBBBidbz1E3mZPn26UrDCR8UvrhWemZmZSroHvk8eAov+bnxmZqZ4j11NfSclJQlZLmS8iEfIeN1IPadqzEKNSgQiyszMHD9+fLC0pls/kZYS4YqYSks5xBIJMSjgYiVW1Hu+yf/YY49t3bpVpPLRRx/t3LnTMIx169ZlZdmvXRw8eLCmpqaysrK2tlYEC+ffZpDxPv/fvfd2Q8YHdgX4QAACEIAABCAAAQhAIIYEQmj1EKcaNMAlpyM6LB44qq60vK6krHjgqIguDAx868gH261YsSLQ3GBSXPfPWr+1vfXLWr9V9w/mDkwlhNByLZ4Xen7nrj3qkvr6+gEp5mfklY+nQ1ePLumodr9TalxJWaHS1Tve062fy9MwDBHelYSKxBW/ikSIVTVzHiib9U3mlEQXuVM6WRwKgS3cunnKBrEkvm/fvupVAj1yMT3+ww8/6LYF2iPOBktLv1aZJ1JRLzV4JqoGOJT9LjLKv6Cg4LHHHlOH33333YIFC4SMLy4uFv6nTp26fPlyXV1dVVWVChna0SKL6nv26hPYEAJ9wlylH3ghPhCAAAQgAAEIQAACEIBACK0e4lSD3AIVdZg+ai29coR5oWewFStWRC/jz5fXr1q7ZdXaLcF0u8s/EEoIlSW2uFPr54Vj9jxTvInfylVZ/QYOjWiLO6EShTjv3LmzWkuvzwknJSWpCeoGZbwI6ZLxytMV/3TrJ4wfP368mnMOlM0ijOe/SieLs4HSWowOuGR8Z+snLvFMbrr1CxZAsAqWln6tbp7w79u37w/WT2ARSYh/PWW8viBfBQ6U8WISft26dS4Zry5p0KE0vAgpDpthiztkfGA/gA8EIAABCEAAAhCAAARiSyCEVg9xqkEbPEV1g54u6e46bPDywACmjF+yZEmguS4FHpPDwFRCaC3xwTkl42fNnb9p8xdHjx0Xl5w9WzAgZdjAwcPD+eCcmtDWl68r7e3aF11NIE+3fiI55dbfY1fL1JVDzIeLee/A+FUkIpgaO9CtEsmF+FfXyYZhiFlulUH1FoBLxu/fv19f7d+5c2e1FkCkpdvm0vmdO3cWOQqWli7vXeaJMRFhXmCiroRUrlWKwkfsVO9aVH/48GHP2XgVSYOOlvrgXJgyPrCx4AMBCEAAAhCAAAQgAAEIhEkghFYPcarByAMVdYM+nqLd07PBqFSAJUuWtFu3bl2gucXl9TGR7iqS4vL6wFRCa631Gz9Xb8jv+zJHBK6vr1+5KmtAyrD+g1LXb/w8dAxCk6ud1dTCciGkhb+S8WoNvJiEn279RPzKLTa6Fxfq08tqizslztXebyp+FYmIU12iDw2IUyH+delk17ZzaoY/UMaLlQhC5+tL3IXBum36WX3bvGBpqfA//PCDyzx913oVLCkpSVESzF1jCuJFAFVqioba4m7Lli3CM3A2vrKyMvxF9SrmSB2BNTlMn4GDhyPjw2RFMAhAAAIQgAAEIAABCERNoPcTqcH22+v9RGrU0SohHb7DqK8vThkdGN7c8a6+PtA/HJ9169Z5y/hzpTGW8edKI5bx5nTrhk0DBw/vN3Dok4OHPZs2dsTIMQNSUvsNHDpw8PBwNHyk8ozwEAiHgHezz/eo4d4hG/zIfAyjajAtAkAAAhCAAAQgAAEIQAAC4REIR2M3Q5igMj7/fJ2aSI+JI/98XaCkCUcyXSgtTX9ryuBhI/oPSu0/yNzTLv2tKQ2upQ8nZsJAIDoCgTUZHwhAAAIQgAAEIAABCECg1RNoBokeThJBZXxuYYxlfG5hlDI+OqHFVRBoOgKtvnsigxCAAAQgAAEIQAACEIBAIIFwNHYzhAkq4w+fqYvhunrPFfVH8+uaTmgRMwSajsDRfI8xqcNn6o4E8Q9s/yF8YhJJiPg5BQEIQAACEIAABCAAAQhER6AZJHo4SYSS8TGckPeciv/mLDK+6ZQmMTchgRNnvWV8dH0BV0EAAhCAAAQgAAEIQAACCUEgHI3dDGFCyfjDZ+pOF8dgaf3pYm/Nc7q4vgmVFlFDoMkI5BXHbje78PbSSIhODSMhAAEIQAACEIAABCDQugk0g0QPJ4kGZHzjlXwwDX/4TN35CmR8kwlNIm5KAue9vp6od1hRLIyP4hI9RdwQgAAEIAABCEAAAhCAQFMTCEdjN0OYhmX84TN1uYXRvCd/rrTecy29IltV05RKi7gh0GQEKmsMVY0bcDT46bgGAzBdDwEIQAACEIAABCAAAQjEB4FmkOjhJBGWjBdCJbewLv+8qeeLy4N+Ur64vP5caX3+eVP5h5Y33xcxFd9kKpOIm57Ad+ciW1f/9Zm6r2XXo7tDNxPOQgACEIAABCAAAQhAAALxQyAcjd0MYSKQ8TFkdzS/rrq26ZUWKUCgyQhU1Rgsg49hn0BUEIAABCAAAQhAAAIQiH8CzSDRw0miZWR86SWm4ptMXxJxcxEouRjZhHz890pYCAEIQAACEIAABCAAAQiEIBCOxm6GMC0g44vL0fDNJTRJp4kJFDe0112ILoBTEIAABCAAAQhAAAIQgEBiEWgGiR5OEs0q44/+s678Mhq+iZUl0TcvgfLL9UfzG9gJIrH6JqyFAAQgAAEIQAACEIAABDwJhKOxmyFM88n474vqeR++eQUmqTUTgepa4/siFtgzlgEBCEAAAhCAAAQgAIFWTqAZJHo4STShjD+aX3eyoO77InPv+orKZhJUJAOBliJQUWmcK63/vqj+5Nk65uc9By/xhAAEIAABCEAAAhCAQEITCEdjN0MYDxmfW1j3Y0X9xUqjtq6lBBHpQgACEIAABCAAAQhAAAIQgAAE2jSB2jrjYqXxY0W964PufjL+SH5dUVk9L6+36ZpC5iEAAQhAAAIQgAAEIAABCEAgngjUG0ZRWb364rUj478tqKusiSdLsQUCEIAABCAAAQhAAAIQgAAEIAABi8DlauPbAnP3AUfGF5UxDU/tgAAEIAABCEAAAhCAAAQgAAEIxCmBojJza21Txv/pxVmnCnkPPk7LCbMgAAEIQAACEIAABCAAAQhAAAKCwLcFloyfkrH8xwqm4qkVEIAABCAAAQhAAAIQgAAEIACBuCbwY0W9ORs/JWP5paq4NrTtGFdXb1RW11Vcri2pqPmxvPp8GX8QgAAEIAABCEAAAhCAQOsk8GN5dUlFTcXl2srqujrmVduO6mtcTisqDXtRPd+WaxzJGFxdXVNXdqkG3Q4BCEAAAhCAAAQgAAEItE0CZZdqqmt42TkG2qp1R1FTa8n4devWte58xnnuauvqEfBts6cm1xCAAAQgAAEIQAACEHARKLtUU8vUfJxLuJY2z96pvqXNaLvpV1bXudothxCAAAQgAAEIQAACEIBAGydQWc20fNsViQ3mfN6nq9sxG98gpiYKcKkKDd86X3Nq43cdsg8BCEAAAhCAAAQg0HgCl6pQ8k2kwxI+2sGvfIaMb5lSDKbhSypqLlXWVtfUq6U0dfVGdU39pUpz37vGdwfEAAEIQAACEIAABCAAAQgkBAGUfMtItbhPtdtTC5HxLVBKnmvpSypqqhpaPFNVXYeYT4g+FyMhAAEIQAACEIAABCDQeAKsrm8BtRb3SfZ7YREyvrlLqbauPrA9V1yuDd+Oisu1gTHgAwEIQAACEIAABCAAAQi0PgLseBe+UIooZE1pXuU/s2tPbvxh+fsrRw5cPn7EPzcvrb7wfUSRtEjgD+auQsY3N/nAfekvVUag4YW5lypR8rxXDwEIQAACEIAABCAAgdZPoOxSTXMrltilt2vXrieffDIlJWXXrl2xi7WxMVUUHC7MmVuw7u9F774w/w93PvZ//+TP/9d/u6Pdf3/2fyfN+/Ofv3r39YsFJxubRlNez071TUnXK+7qGve2dhHNw+tRMiff+oZayREEIAABCEAAAhCAQCsjsDfn8N6cw43MVGO+J184b3bOjdfu73BVg385N15bOG+Orjga7+7du7fP+j3++OONj03EkFtYn1tYH3Vsxbn78nYvPZD5/omsDw598s6UAT1/3e6/3P1f/98H/+v/7tLuv/Vo99/6tPvvb1xzbcnxnVEn0dQXIuObmrA7ftdUfEmF99BadXV1Tk7O3Llz582bl5OTU11d7Y7IOuY9+UZ2iFwOAQhAAAIQgAAEIACBJiUw4fVJE16f1MgkGjMhn3ND8pdhaPj9Ha76ssNVOTcke+qO8D2XL1/eo0cPId1D/DtnTvTjBYfP1B0+E+U2/hs/X7Pm0/cObZizZubL6z56ZfOcSWvfeeH1h+/eOvmFbe++ljlx3DsD+gz5eftn2/0/U35/2+WCg+FnPJyQ586d69mzZ69evYqLi8MJHyxMbGT8kSNHvv7662BpxNb/66+/PnLkSGzjdMVWU1OzcuXK/v37+3y+3r17v/jii0uWLKmrq8vIyPD5fK7AER3W1RuuBhy4p11dXd2bb7559dVXJycn97J+ycnJV199dXp6el2du7JW8dn5sta/jMpVZziEAAQgAAEIQAACEEgUAqdOF95r/U6dLmykzeo7VhEJEMMwGpyEdwWINH5X+G7duqWlpWWE/KWlpd13332uC8M/jFrGnzl9bMmyf6xbMXPlRxPefT7ljdTeb414bMmbzx5a+W7ezoyCL1ec+yrrbPayg5++u2bsU3//4x0H56RXFJ4K37AGQy5dulQMbaxYsaLBwCECmDL+/vu7hwjR4KkTJ04sXrw4JyenwZAxCZCTk7N48eITJ07EJLbASIqKilJTU30+39ixY2fMmPHOO++kpKT4fL4RI0a8++67jZTxrg3qPafix44de+21137yySfl5eXCvNLS0rlz53bq1On5558PNDjkhPypqX9KGpoZG6F76J27kp7aYPY+mU8l/WnGoSbRz7kfm7Dl77WtsrNz/J+clSs9q89vmiiDTlzn2BMksBMgNkAcM4gZAhCAAAQgAAEIQAACXgQ+/Mecrtbvo4/nNvLpMeot602Vfk37/b/99f4OV+27pv2+a9oL3a67bSVvnQpUHBH5+Hy+jIyM0Jc0cn40ahmfvWNpVuYHmcv+8dncKR+98ez4Jx94NeXBZZNH710y9fDamSe3zDv5ecaJDXNOfD7v1PaF2Z+8fWjp1NO7G6W3XRwKCwsfeeSR3r17x2A2PisryxV7+IfNrOGFYU2n5GtqalJTU3v27PnVV1/pELKzs7t37y4Uo+4fqdv1Nnvgznaffvpphw4djh49KmIus37CfeTIkQ4dOixatMiVaMi97uJXxq98KumOd04F9GVbX/MN+viYW2ave83nsyX9VtO5yQpwLONJGfjQrEG+lAwxsuAd2KtXDUjdnS4BIAABCEAAAhCAAAQgEDWBcxcu93q09/iXXnlh/Eu9Hu197sLlqKM6X1Yd9Y5atm7/7a+FkjcVe4B7X4df7evwa/Pfa9q75Eakhz6fb+bMmaGvahEZ/33esYyMqYsXvfvxh+lLl7y7bsnkRdNf/njCs5nTXsx65/k1017eOPONTR9O2DbnzS/mpG+bO3HXwje/XDr1+LpZZWdjOSEfmkyYZ83Z+KhlvNDw+/btCzOxGAbbt29fU8zJr1ixwufzuTZRFOtB0tLSGi/jXTPn1TV+GzNcvHixU6dOeqUfN26cPgM/c+bMTp06Xbx4USdZXePx+TrZQSSijNfn1YWu9tP2pmK3JL1yWJlVYZTDvNY/DCodAhCAAAQgAAEIQAACTUhgx56cpSuyZs1d8M60Ga9NmPjU0yN8Pt+W7Xs2b9vt8/meenrEaxMmvjNtxqy5C5auyNqxJ0c+tIdlkudKXl0XBHObk/C/+eXeK3+enfTTfb/55b5r2u+94md7r/jpvl9dsb/DVXuv+One9v+x+3/991OvvnK0/+PZP/3/gsUTpr8QTXPnzg0RvkVkfMaCj156beSrk155ddK4F1579q9/fXrL4plzXx81rd+Diwf/ZeXwJ5YNffzD3vdNfuz+D8ekLH57zKK3Ri6c9MzGma/+8+CWEHlpkVPRy/gW1PCCVFMo+WHDhj399NOukpDLtu3/XWcjOvyx3K+Jut5vWb9+ffv27UtLS4PFWVpa2r59+w0bNugBAt+317oDfxmf+VSS+onl8WKO+vCMO6S/PUOuhVRz5q5F9Svfucu+SI9Ku9BegW8lsVKlbK7GN62Sv7umHq525s/NCfYAGb9popppN7NmhzFXztvT8lYS617zmevtvQP7Ydf44A8BCEAAAhCAAAQgAIGYEdj31ZGePXsJ2fDggw890a//8y+8VFxaVVxaNXbc+Cf69X/wwYfE2Z69Ht331ZGInkt/LPfe9FqXBp5uU7p3+NXRfo9/M2L4/uRr9l51xdEBfb959qn913XMbv8fR5/se3LUiOyf/yTvzfQTQwbu+bf/7RlJ+J55eXl//etffT7f6dOng10lZPzAgQN3794dLEwI/+gW1Rfl7v7hxOaTBzecOLhh+6bPNmfOy5z995f/8tBzd9zwqq/zJ088/Pa9d/ZN7tD3ut8OvPW65+67851R/T9+5an5bzybu3VxCGMiPZWZmblq1apIr3KFN2X86tWrXb4NHh49enSx9duyZcsXQX4NRhJmgCDRf7FlyxZhg1qCHmaEIYJ179793XffDRGgkadcDdUV2/vvv3/bbbfpnlOtn+5z6623Tp8+XfcxDPe2eVoqmow3Bbapma2zpr+tz00Nr/w3TLUWuq986qmVQuGbV9luPxmfpF8uX78PloT2Lv2hzA1i6bu+qN5fxtvDJY5091bmyPiY3W+0CkOcEIAABCAAAQhAAAKNInDi1D/79R9wX/fuG7fsCHzK2rhlx33duz85cNCJU/8MPNugj0sFhHmY/bOfHO7zSF1llWEYJ8eMPNTNJ5YEf/vi8wfv+VNdrbmL9rdjR337wtgTwwZn/3tjZ+MNwyguLvb5fCF2cRMy3ufzRfcVuuhk/JltHxXtn19+dGlV7qq6wi0VJ1c/P/DBUQ/86bH/vM53TfvHru94xxU/u/c3v3zg2o49OnW4Oek//nRdh+f7PbTordEnNoRaWRBmKYhgW7duFWpn585Gfc1u7dq10cj4I0eOxI+Mj+HG9ffff/+0adOClcTOnTsDX00PFtjT39UyXWHef//9W265Rfccbv10n5tvvjk6Ga/LZtMMKa3d/kK9O/9uGCpFvp+M17a4UzEoh51NmYSZlhwLUATcgZ0U7X7T1PbidXdkfAAchREHBCAAAQhAAAIQgEC8EThTcOGZEc/dc889c+d/qts2b8Gie+6557lRo88UXND9w3fruiB8t5TxlVLG323L+PHjDt7z57raWuHfIjK+b9++4WdEhYxOxu+cPWL7x8N2/GP4zlnP7F7w9PaMYZ9MSvnw2b8M+cNNaX/6/T96de9zbcfn7rjlweuuffT66/5w9S9vu+oXD/7h+k8mPXN8XfTfxlM2C8cXX3whZPz27dtdpyI6jFLGG4Zx8ODBxYsXZ2dnR5ReDAOLRfUHD8byU36pqanPPvtsMCP79+8f4mywq3T/0Ivqs7KykpKS9E0LXTK+qKgoKSlp48aNepzhLarXpuWFJjQn4Z9aaa1v99jKXltmr+bwG5LxwZKwZLmp5JNUVOfLqhuU8efL5FvugTLelPces/HmGnvvwI0aUg2/YyUkBCAAAQhAAAIQgAAEzpdVF/54aWjq8Ece6anT6NmzV+qwp4pKKnXP8N2NXlT/2DcjhpmL6n+VdGTAX8wF9mJR/YC/fDPymT2/iNmi+tra2okTze9J5VQoUCYAACAASURBVOXl6bJFd4vZ+K5du27dulX3D9MdnYyvOrXu8vFlFUeXlh1a/uNXS0sOL/9y2ZRP0gZkDOj1+XMpy/r2fP622969/570++58sesfnvvDzfcl/+aPna7a/PHr3+9cGqZh4QRbsWJF1JvTqfijl/FKybfgFnex1fCGYSxZssTn8+3Zs0cBUo7Vq1f7fL7PPvtM+UThCL3FXUVFRadOndLT01XMLhk/adKkqLe4c8vmwzPusGbU3f5l1edthS+kbyNm42USTt+kLeD3SNc957z1NfGevP8L82rXOvtlePsqqfmDBHZscKeCwocABCAAAQhAAAIQgEDsCfTt+8T4l14pLq2a/8ni+Z8sLi6tevmvrz3xRL+on0tjuMVd9hU/dba4S/rp3va/sLa4ezmGW9zNmRNqBrtFtrir+G5bycH5Fw58UnJw0Y9fLSo/unL/krczRw1c2OfhBY/3fKnL7akdfvtJ7/sX/OX+t7r9YUTnW2+/8hdPd+2Sv/PTvP3rlECLE0ejZHxLKfmmmIcX5VFVVTVkyJBevXrt379flVBVVdXChQvvvffe4cOH19TUKP8oHA1+cG7+/PlXXnnlgQMHROTfWD/hPnDgwJVXXhk4jhDuB+dCvLgul82fL7PejVeL4cXae3m2odl4a6G+DHzemucXr98feucp+U6+Myigy3jn3fhNGeprc45nmbYHnjlFL3e2MxW7/XU6U9vzwTlGKCAAAQhAAAIQgAAE4oNAbl6Bz+d7++/vjnh2pFhE/cyI5yb/fZrP5zt1ujA6Jd+kH5wzd7Pv8Kt9HX61v/V+cK7qfO6FAwsvHFx0LufT8wc+u3xsxf7FU6b07jr+7v9M7XLLnUn/MeS6a2fcf9f0h/780p9+3/u6Tn+++oqsd8YU5yw7n3csCunXpJc0VsYrJZ+Tk9OkhqrIxUfjYz4Pr+IvKioaMmSIz+cbO3bsBx98MGHChAceeMDn8/Xp06egoEAFi85RWV2nN9rAEbX6+vpHH320U6dOruUlGzdu7Nix42uvvRaYrmuGX49faGlnzby9st1c3a72nzfDa/5WYHN5vP176qnw3413ReUk4Y7fGuy01+3771S/yVx+Y//sD8WLkVFzCb346bvTm0voxU9qeCv7QQLHR5/uX0CxH/clfghAAAIQgAAEIACBFieweu3n4in1sccf37hlx8YtOx57/HHhk7Vuc3TmVVabe9FF8TM/FH9Ne/HR+H3XtLc/I9/hKt1thhHBOlwVRRL6JT6fLyMjQ/cJdLfIbLxhGCVHlp7PWXD52PLvt36Ut23WkilpqXfe9PiNv3n2P296PLnDfVf/smenq17z3f7EzZ26/+43aY/ccWzt1MIvVwbaH7XPuXPnevbs2atXL/1N6ihii4GMNwzj8OHDX3/9dRTJR3HJ119/3XQaXthTXV2dmZnZt29f0dJ69uw5bdq0kpKSKKx1XRL4HntVQGusqqpKT0+/+uqru3Tp0sv63X777R07dvR8g6LKf1wguh6BqyAAAQhAAAIQgAAEIACBGBJ4e8o7991334wPZxUUV4hoC4orZnw4q1u3blOmvhddQq6PVbuERohDW6ILoR7GvyGiCudUt27d0tLSMkL+0tLS7rvvvnBi8wwT3bvxhmFcLj5ZduiTWelP39LxygfvvH7MgPvu6fjL1x760/Pd7xj2+xufueW6h37zq343dvJ1an//TR0/fvHJCwcWVhSc9LQhOs+lS5cKjRliG/9wYo6NjA8nJcIIAmWXavR2GzghL4KVl5fPnz//79Zv3rx55eXlngBDTsUz0wsBCEAAAhCAAAQgAAEItACBd6bNOHLie/2xX7iPnPh+2vszA/0b9Cm7FP27vTk3JH8Zhnrf3+GqLztclXNDsqfuCN9z6dKlPXr0EGI12L8PPPDA8uXLw4/TFTJqGW9+q/vkzluS2w94+E+3dGr/4B9vGfzQ3TNGD5w2vPd7Qx99+7Hu/W793Q0///ebr/pFtxt/u3bGmIrTMd7QvbCw8JFHHundu3dczMa7sHIYgkB1jd+6+vNl1VG/5eJ6077Bxk8ACEAAAhCAAAQgAAEIQCARCVTXRLmi3jCMwnmzc268Npw5+Zwbry2cNzuElomTU7mF9bmF4qt50Vi0Ydns+++86eGut8/524jXhvf924j+r6Y8NPYv3VLvv+ueG37b8Wf/dsMvf9HrzusLjm6OJvZmucacjb///u7NkhaJ2ARcE/Lny6ovVZpfa4zoF3JnuxYYcUzE3hCbIQABCEAAAhCAAAQgEP8EGjMVH5HEaDuBvzm4+6t1M4v2zpk+ut8Td986oFuX7rd3urPTVbe2v+LW9lc+2PnWY/ui+RJeswE0ZfzatWubLT0SMgyjtq4+sLOIaE6eefhAgPhAAAIQgAAEIAABCECgVRKojfq1eNRXSALnvju4Z8E7bz35UO/bf9fjhmue+GOXF1MHb1i2OORFcXHywQcfRMa3QEm4tqwX3U1JRU3gjncu46qq63gfvlX2zmQKAhCAAAQgAAEIQAACgQSi3qDepSM4bE0E/va3vyHjW6ZAL1W5X5IXjbakouZSZW11Tb0adKurN6pr6i9V1iLgA/s1fCAAAQhAAAIQgAAEINBaCVyqiv6V+JYROaTaLATuuusuZHyzkPZKJJiSb63dEPmCAAQgAAEIQAACEIAABMIkgIb3klD4mQR4N76F64Hn6vowGzbBIAABCEAAAhCAAAQgAIFWSYC19C2s0+I7eWR8y5dPbV194N71rbIzIlMQgAAEIAABCEAAAhCAQGgCZZdq2NOu5UVafFvAovp4KZ/qmjrEfOgejbMQgAAEIAABCEAAAhBoxQTKLtU05vvw8SJssKPpCTAb3/SMI0mhrt6orK6ruGzuZvdjOZ9/hwAEIAABCEAAAhCAAARaLYEfy6tLKmoqLtdWVtep/a0jUQ+EbaMEkPFttODJNgQgAAEIQAACEIAABCAAAQgkIgFkfCKWGjZDAAIQgAAEIAABCEAAAhCAQBslgIxvowVPtiEAAQhAAAIQgAAEIAABCEAgEQkg4xOx1LAZAhCAAAQgAAEIQAACEIAABNooAWR8Gy14sg0BCEAAAhCAAAQgAAEIQAACiUgAGZ+IpYbNEIAABCAAAQhAAAIQgAAEINBGCSDj22jBk20IQAACEIAABCAAAQhAAAIQSEQCyPhELDVshgAEIAABCEAAAhCAAAQgAIE2SgAZ30YLnmxDAAIQgAAEIAABCEAAAhCAQCISMGX8Zy8+mIimYzMEIAABCEAAAhCAAAQgAAEIQKCtETBl/NIpz7W1bJNfCEAAAhCAAAQgAAEIQAACEIBAIhIwZfzq1asT0XRshgAEIAABCEAAAhCAAAQgAAEItDUCpoxfOe+9ls12bmF9bmF9pDaUVFT9qu+cnzz0YYi/X/WdE2m0hIcABNoggWP55ekrcgd9cGjQB4fSV+Qeyy9vgxDIctQEqmrqCy5UFpdVF5VWnQv8K6kqKq0uuFBZU1sXdRJcCAEIQAACCUHgQrefBf4ZhvHG+n8N/EuIHGFkfBIwZfzCp24I0zhfwE9cGODtCzNCEezwmbrDZyJ+uCmpqLrjs0LXX8o3husvIksIDAEItDUC9YYxY913T7731ahZB5bv+efi7bkfbfxuwLv7Z6z7LuLBxbbGjvxaBKpq6oZ9dPT6MXtuHL3r+rRdN4/bfdNYv7+bx+2+5fk914/ZM+yjI5XVEd/swBwTAlVV9aVltSWltVVVtOyYECWSpiJwoaRk0puTU1Kf6T8otf+g1JTUZya9OflCSUlTpUe8sSYQqOEvdPsZMj7WmInPMGX8kgnhbnHn8/nS0tIyrF9aWprPZ8v1YP5hAo5OxhuG4dLwd3xW6NLwKd+EaQLBWpjAypUrH3jgAX08aN68eS1sUyTJJ7r9wfLaWvOl53f/yQv9/75/xurjuud3P5QOeXfvqr1ndU/csSXQamrXudKqa0ft/Hnqnutf2HvD+P0/H7w9adjOpNSd5r/qL3XHFU9lJ4/cWVhSGVuMxNYggdKy2i92ls2YU/DG1Pw3pubPmFOweUdpWXltgxcSIK4ItJoeIzTVdRs2PTl4eL+BQ/sPSn1m5JjnRj/ff1Bqv4FDnxw8fN2GTaGv5WycEEDGx0lBtHozrNn4EbeFmU+fz5eRkSECZ2Rk6DLe0z/MaCOV8R2e3fizwWs9/654eqNLyQexIW/hEEczpu8MEiqkd96CFN+kHYZh5C1ISVmQFzKsfjJv4ZCUhad1H929I92XbkYa9m/HJJ9mv5kv5/D0wpQIYws72RgH7NatW1pa2jz5++tf/+rz+aJS8i6ALtpauVtlZxiu8FHmK37sd9fG0wtT7JxGk7XY5ctVEGarcSpqNKbF5prauvq/vJU94oMvDcP4vvDiG58em7L8m+8LLxqGMeKDL//yVnZtXUMTd2Yrs38iR6pnCGZigwGMnemibxEx+If3b+PB0jAM/54heLiWOxO72hVlHmKFqLis+obRu2588cui0urCkqobXtjz85Qvrhy27YqhW69I3WY6zH+3Xzl81y3jdheVVgUxV5XsjnRZo3xDFuZZRel1i9F6M5/W7QeJ3dvbv6aZYU4vTLES1cJ7NF69fmohTWfEVJUNyuGKsXGHPxRUv/fx2ZEvf+/6e3/W2X+eDVYWIsloCKseeMckn1epeWQmYmIecUTh5b73+fczUUTY5JfErsfwLlmTgP8j045J2tOa1tWLhikyrErczn/j7rnrNmzqPyh1QMqwlauy6urMlTvHjp/oN3Co+Os/KDWkknc31SYvEhIIQiBmMl6rdc30yLTTuf/o9TxIRsPy3jFJ3dJ8Ie4doeMym6f73hT6iuY7W1NTU1npDNCXlzffW5nWu/EfvxVmXuNExusC/lfPbrzu+S90n5vSJulKPkjWYtnZuTvxIElK79BJu++s8qrg/+uPPlaDdx4d9FN+Eeg26G6/QM154BLt9fX1kydP1tq9n3P27NnBbXMB1HJnwXH6wZ0LrcEUV/jgEYc8Ez/2u2tj4x4pYpcvrSAskvEg42vr6jcfLHxs4q4l288YhjF5yfHHJu56bOKuyUvMmfkl2888NnHX5oOFIZS867FvxwJTdDm/oA3QCRLEpVdL64nTuXvpp4JcbXm3kDYIZZLrXOxqV+TSMaaIisuqr0/bdf34/YUlVWcvVF43bvfPBm1OGrpV/P1i8BdJlp5PSt1xcwgZr2qLh5D2LHR3m3LhDetQJapCe6QeWUIRVzxlg3IoYxrtqKquP/nd5Tem5rs0vDh8f9bZkHPyWsbN20dYI+zuHjhYFrTMRkwsWJyR+XtWqsiiaObQsesxvEvWLLsh9vSMyJoj480KoEl6U+rY9cFd4o24514oKXkyZdiAlGFnzxYIAz5ZtGTEyLFKxos5+eCr67V8BS2bcMJoF2sVVfNNEKdHb9ZMlsdExjfwgNFEWYlxiZsPMI4qMfIWTvJ/TAo3F3kLh6Sn+01bhntlM4RLT09/4YUXampqDMOoqalJSUmZOXNmM6RrGNai+rVr14aZWLDF88H8w4w20tl4Ido7T9hx6HSZSCKv+FLnCTuE//VPv9K2ZLzWT5m3k0npai4l+MOB3o/r7jBLLPbBXLdnwzDq6+uXL18up+ed/9PS0u67777gFrgeTZzcBaHhCh884pBn4sf+GD5SGIYRu3w5BSFAtriMr6quG/5O9qOvbX94/PpFm781DKPvhE0Pj1//8Pj1fSeYCxcXbf724fHrH31t+/B3sn8s85y1a6jyRH871HCZDTw9XS3hCTvOIBU+ZD1u3pOxq10tLOPPlVTdNHbXzwdv/93Y3cmjd/1s0Jafp3zxs0Fb/m3A5p8O3HLV09v+/cnNvxj8xRXDdt40Zte5ILPxfoIhYAWNV2lqlSTqggusTtoNRcYaWUJepsqYPP9XNiiHZ7CoPA8du7h6w49fH7806R1vJb91l/0U4RW9nnHd7RVW+rl7YOnv/l/LbMTE3HFFd9xQ9xVdrE15Vex6DL00HbdVdjv09ZKyVZpSxJkDsPKoClo57Kw3QsZPenNyv4FDV67KElGd+u57XcAr96Q3JwfB7OQlSABz/aieweDB5BmtokqvxPnfozdrJuNjIeNbqIXGtMTdrSNq/KJZxdS2qG0JvPDQoUPdu3d/8cUXa2vNd7VWrlzp8/k++uijwJAx9zFn4yOS8X6zotq78Z7+YZobnYzfdvx8ycWax97/stvb2XnFl/KKLzVOxlsNxl5Mkr7D7OmsPKlJMGediT0iq2qncoSXX60PteaHBTp5h9DNkLcNqyfaYS738vn08WA7PSdC65ajDqXDbbnMms/nm7TcebnAfHBUizm1UefwctXIUIG352ARzps3T73N4RXG1fFJCEEXz7vCe0UZhl/82O+ujY14pPCU8cFgNFQuqiDsCHQZ7yy4ks3NysUOUTnNcVxZh2UzsZb+ipYjp0SCGRbM/6V/fNnz5S2f7zPn4UP89nx9tufLW176h7nq3v0Lckexi0DaLNqs5bnQXKw2aYcsox3psjmbg+7+yk2GMYyd6SkL8tShcpiLn20CsqOwKvlCs6Mw26/SBhZec+LIGtq3rrHSsgLIJq+RV7Gqt3tUAdlj6k7SYc1PurnJ41i1GmWeveLOMU+R0SuM4ykROV2iU8GkkeH8X1RadUParmtG7Vm679zi7MJfPb397ay8DYfPD/7H0XWHik/8cHHBzrPJY0ydf9PY3ee8343XOiL/mmMb4FHZ3G3KDKmulQVqPbXLpmK/Pqbym7Jwgd/rG2YMHg++7oRUJbQcdjtVyx0lVbMGyhlLlaKCr3w0G1QeG7jlhVMmZpiamvr8H6qWrCrOXBdUyc+YUxB8xzst4xoWpx05nY9sR770hfIlO8VBLwK7maticpqqjMHpBxQiG5pF2+5DnIKWfYgoOPmcIC5xehjxsoM2J2Z6uN7gC12sei7sZuKfC/mCobQw3FKKIFysegw/KetfsvbtRjYfKePdrEyjZXVV3OycNOKem5L6dP9BqWItvbWc/pvnX3r1+ZdeHTT0aaXh+w0cmpL6TBBqWo21Q8h65RMzok6lcldFO8tOALOUA4pYxOrZ8N01RAOrvWCyI91KyGlEToX3y5MrgOfdStRqu3eTReY0k5cmBdwibfP9n3v90o3VQQxkvKxgbpMCCiWs4vC6O5hUF5gPEn49Q2C63h2yqipaH+62NbBCyhBWnAvFPcIvfnWPkCGt/+UTo9MSnRpi1oBGPYr4pRTtQU5OTrdu3V599VXRfhcvXuzz+RYuXBhtfOFeF5mMDzfWCMNFJ+MNw5i46lsh3SeuMifThDup52i19d1NU/Zf2+1VL3NU/VPC2OrsrA7FqhxCx5rB3A92soqrvls5vBIK9JPV2nzWVGpZ3W4dM8wOVHRM1lOpaGambQG9nuwi7fptPz1ofahthLTc7x6mDc1GmJHArEXvE7vbs9PILWs02rKX97fSFd7/ZNhH8WO/f9dm3eACKkzY2fKYjQ92bRgy3r7bqv9EyzKf9aWFqnprbTBIi1Cl6dTqYKZ5+z88ftPD481Z9083nRLuwH/fXXLUMAwV0hVRsPbi+Gu2WTkKWIQpAgQ2VXHHtfJoN2c7Kq0+B+k91P1YXKiQBj61ayrLVFzqQpFNlQstBuuMbq2WQReccA5j12qcMQtrdCOgX/XubOVVjcuFYRjmovpROzuO2VtbV19dU/ebZ3d8cfRHi0B9ycUa8VLGkr3nfjZ4+83jdnvPxutUFTvzcU0+nXgECLiLaRmRxScrjBmnc4OQLc6KQbY+O1nvhBRSM5SMXAwMue+VARUvbBuU/Q3d8hSh0I7yirqFS4sOHrm4bPX5YEr+jan5pWXB9rrTCKsOR0tScjCDyeZj9lfCbbdca0pAntUamsqstZuALGj1JOABTe9DHCtUPBo0qxWYNUda6JS+c6GsD8pHBbYSchWrhz3qQl3Qyow4J2Poil2P4V2yioDqD20Z79EonAEvC5e6rTXqniv2tAskNv2DfygZP3DIU/0HpQaGsXz0YnIFUY86WhhVeVRV0Xzs6wN97BHhBmuISnFH+pAUe5WoHZs65TJSHboDeN6tgj88hOg2VRKRL0zQL216t6qNQZOSRePVYLWuRlwvA+sduAkwsGdzhgnks5nWt5hpWbcMDb7XfcQ2Wi9H61nOJ1O04rTllRa/6rv8c+3EI/tV53ygj3OueV179+7t2rXrxIkT6+vNPZXmz5/v8/lWrlzZpFa0Whl/6/TDHZ5b/ptRWde8vMeLoNaR2aedWqLuSWKoT8p4d7+v2phyqISsHsfszdXNW51yJLQ1yab8ZSSaGeouq99CdLe6WLRPNQYsDp1G67bcscGMQUNhtV6ZXxW7CGPfpbzO6iGjdMfu9qwD1HPn8ld2BvNXAcJyxI/9siJJs1WtkB4R/R+7fGnVzLJAjq2a7zupWV+lNLRcaBeqyq/fZtRdIaKMGcYDY9Y/MGa9IR3i8KMVRzftPfPRiqPiUA/gEb3TxPxOOsZrARxP9cBkXWT1FX4aScYlaqbiIw5ldW2497Du4n7veVr9gHbP9rv5KbZmtyN/5t1a4y8siwV8EVPsapcU5Nbwh97r2ti9ccmr9GcIST+i/4tKq65P2/Xb0dk/VlQXl1VdPWL76q+KauvqP/4i/8ohXwz+x9Hq2rqCkqoOadnXp+0sKq32iNzhr5/U4HsE0M5aF7nlhFl8Wmlad6SFp1WNsq7RqqidcHgJCcietdqUQH4VL2wblDG6DbpbZxOe++g3lz6aX3joaFAl/8bU/JLSEDJetE2lrkWqWo4EZK1ZKSayfdnTj268KrP+mwI6V8lWaP1vmqFitqIKuK37g7LjUZ5acpKc7EzksYpfObQnfi3LdkXyezAQYkC/UMYay/9j12OotuNXspr9NpxQs/Hy3qpdZWVW+keRc7EjvVDsA1KGpY17cfnK1XV1daWlpZ8tWfbxnIy9+758ZuSYiGS81i0o4W3fcbRTVi2btMMSUf4Prh41x68qyux71BC7Eprd7w5xo9fu+1LOeWMK527l35XJB2ZpjywLrW06SWl3sSZ6pv3dwh8D/wzDqF77PwP/HMN0lxd567y77etZlm6P1u3Xo0gp7pH9wHRVN+Is11ItyLIo8BI7I/7BTE/ZH3rEaV8j+0D70PxPj193B9zxtWtawLlv375777339ddfFzJ+4cKFPp9v2bJlTWpKZDLerxJYB8K4YP5hmh7dbHxe8SWxqP6x978suViz7fh5MRv/iwdGdHp+3dXPLOv4xpfXvnvq2ndPeZnhVbfUvIdWS2R9MpuNXd1l5ZOtxa9H80rL5Se7Hu8nS73tSbdM0YxIdzsRmyHVWj4RZqG9FYSH5f6P5m4UwXWFk17MXU1wexY2qtxpHPysl5D9PCM+iB/7VbW089CIR4pmWVQvm4Ntrl0cWi5UCWqVX2uhEReVvKD7yDXdR64xDEM4xL8F5y8ZhlFw/pLyVAHkddr/pvzTxyDsU47xmp2Op7+Mtx6k7IcqLWrTaXY+C9S24RYHtQS64d5DynjXQ4wlWdVounMLtzsW7aHWNj6ggWiZchkc6WHsWo0U5AE3dRu7Ny7tKnt+SXbyEeZEbHHXccze0ks1Fyqqr352x5qDxfX19d3fzvmXPhuuGbnzQkV1ycXqjmP2Xj9qZ7HnPgveHbtX5Xds085annodk6ECik8+7NoBAkvTw5KgCekpKrct452KF7YNyhjdBt0tcxXm/7W19d+cuvzV4YshlPz02eEtqle2mQBlgxWe/hbqHKz2JR9bhdEqsBOhXz2UjxyB0PQnDe12piJUDishGY8hhKiUozo5dxLKcuXwl/Guvs7DBv1CPaVYuWPXY2hVWisI3X6zZ560Q3LTMiszowIrh32mEffclFS/xfNCz+/YuVumadTV1YnPyCsff4eWL+uEyIVwylfinTBuy2VcQt7bdweNjzyvV0XldlcnM7B1bd6CdDEIlb7T/3av3YxUzH4OLYCqz2YAu6r7xyZ7Nr9M+TcKO3K10NV/BM0v6UYfBGr43y00l2gFavjqtf/TOzXvBwytKsrc6Vm23fKUilkPozz9qCrfwBLXY7Pd/sUdeImMTS1sUR7irQpZiJa3Hr9XoaiZUSk2ZV/kf6FMomX+/+qrr7p16/bKK6+IRfXLli2Lx0X1wbayC+YfJsvoZHznCTvyis1nbvNOo21x979u6vXbl7cLAR87Ge/cuc0OznpAUa1COcLKr6p2ZhOVTwPOk4HeNqRbXeL0X66kzH45RW2CZU2gyUMPy0PLeO3O7UpFHqrORXc4D20yWCT/x+72bD4SySWj5g3GWTJkjr8q4Ia4tajp30iM9QgbP/a7a2MjHimaRcYHlJc1SKzlwnnmcPp9v7bjURzheHV7elW3p1cZhiEc4t/XPtxrGMZrH+5VniqAZ5xmZXNqvr0Fq2O8dm9zPHUZLwLoDVxLxrxkiPMxS79DPwKqjcsew4pE3KH9moAduR1Mbyn2vVa1aOtWqtS+alBmBH5Ja+ZG7oxtq3GGWZ1mLsn42Sw9Ax8XtPKKKDdqNv7Cxerz5VW/HrF9zcGi+vr6B/9+4N/6bUoes+t8edWFiurfjs6+Pm1XkA/O+ZWdnbr2uOk3HWGf1pqG8DG7OPl844Txn1uzci0XLJhPhH6F632LcSekKrNy6HeNgIpnpiJTtM3Snu00GxR/vUXobvvqCP7buqts7ecXDh4NquQ37ygNHp2ecfn07NFG5CkzInNOUmRWPiL7Zd/JuMqsfz30vEpYqNF26rDTwPVKrhlpba6x0H509suqu8qp+JVDK1a/XFjReNigX2jWWNE36g6re/ezIpKD2PUYXiWr98ymVWYY+Rwl3hLXnx+cT9P55Vq0oGizKba4U+vnhWP23PkK0spVWf0GqCPFSwAAIABJREFUDg1/izunvjnVQ8u7R48hk1L1UznkGa1WWJjszSACa4iYek1PFzuTmw05JeDzt+5KqCUinMHvVtpNSpgkujK/4vDqPcwmYxeQ2VrNG4dqL7rDubMHGBWGRwxkvMigY4Z4wGig3cnsBxSHV1nL3sY/P4ElrmOUbqdqmS3Fvo94RSgh24nIYU0Zj+ntVE6tLByj3JVEJu3yN82wHgN0h9NmnfiawHX48OHu3buPHz9ebHG3atUqn883a9asJkjKHWXEs/Ge34cP9iE6d2pBjqOT8WLuPfDff/nTUF3DB5+Nl8M69k1XqxBaJVaV0mz51k9tBS9bixqMDJI9x9uszbqSNO9z8mc/g8oBResiaZKrujut2onauZeLKzV1EWi53eVZu23pbhVSUyZOEo5L7+nEU6NuoRMuAlfsbs9mhpz9S1wPtabl9k8+VopCsT1lKURguQgaP/aramnnIe5lvF95ybqt5UJ75tCrmdZ2ZFFGVmr3pK64J3WFYRjCof51+ajDYLE7rUaqR814p8lrnrLH0G5duqJ2EtICmJ5mlrV7kkZA1lvZY1hR+PddKQtPO1VdhDcDTJJdkHzuNC2xfuYp29NpUDZqLeno4Is8xrLVCJNE/dHMk2QEPZk1e6c3OQvqhHdpYKcoQruKy2tuSNvVcczeisrasks1Vz+7Y8PXxYZhPPT3A//ad2PymF1ll2oqLtd2HLP3hrRdxeVei+otzWB9AtMafJSWqvdNVGlqlmhNQ/pqtVGtLHDKXXbsysdrayK9ldnROhVAvCmmKrNyiPuIqAzKVMsYUWNVimrYS/loNqg7r26D7pbZDP//ktLa6bMLsjb+GKjk35ia/97HZ4O/GC9uJa4WZ9YQjzbi3FmcZXGKg9+rDbKhSU8zfi2k7laIbGgu2qKOqAcSa5QzPV1szat3FNbIgtMQHHZa/JaYUfErh16s0mArWauhqcqmbNAvTBwZLzoHs2T97A/scp1SVtXYpOm+qhH3XPHBOSXjZ83J2LT5i6PHzA+gGoZx9mzBgJRhTw4eHvKDc3bfYb/UqWzWPndiF5xVFVUhmruE+e1ppzpDUU+0huCfZS37Wo2St3KpuERr8uiUrJrpmle3h8NETkTVNdtIwN2qoYcHO1E7awKi+a+yU37AzKRk5Vd3yCw410XiiomMF7VLlqhdBKrIPNudZ3EIhupCBUTveZzMOTdEuXWc3gk7boXR6cO9I3SAm1kRxlj9lfzynBmnZ99lGaXuC8pEa2RwhXxWsfikWO+LichbQManp6ePHz9e/+Bc82xTb39wbs0ac2VpOL9gcj2YfzhxGoYRqYzv8OzGQPVu+6Ss+okv9bdv7O00+ZgS82GaQbAWJNCtW7e0tDTns3LBXQ19cK5lMpHo9gej1lrz9X+e0P6csvTPKUsNw5iz4tDIv33++OhVd/WfLzzv6j//8dGrRv7t8zkrDukhg1FKUP8gd9zmy02rqV3FZdU3jt7Vacze785dzi289JtndyzeW1heWXv/5K/+vf/nyWN25RZe+u7c5U5j9t44eldxmaeMt7SEo/FcpeA3QOM6F+ND5yktxhG3VHT5P1TNmFOw9vMLYnX9wSMXl6wqXr3hx5PfXf6hIEhZtJStjUk3aME1Y+VpjP1hXNtqeowQeV23YZN6Q37f/hwRsq6ubuWqrAEpw/oPSl23wdyZtXX9dqQH7frsjLb43SpS4LGS8ZGm2yLhtbGDqNIP2ndFFVtLXFRTU1NZWalSLi8vV+6mdqxZs6ZdRDI+LS0tw/qlpaWp734186J6ASWp52jPv2tfWXH7nLzkN7/sOOnL5L9/E2Q2vqnBEn9kBJYtW3b//ffLQcdQ/z/wwAPLly+PLPamD53o9gcj1FrzZRjG42mr/9j/s2/zLgTLu/D/Nu/CH/t/9nja6tDBEvFsiz8YtZraVVhSmTxy55VPZ3ccnd1xzN6kYTuvGZV97fP7fvn0rv8YuuOKYeYm9h1HZ1/5dHbyyJ3eO9WbFUjNIbhrkzaj5T4V++PEf6IKZFJSWvvFrrITuZePfnNp4dKiM/+sOnTsUlW1uZlw6/kFKThzCq4hjZQoEFpNjxEa+Nr1G58cPLzfwKFPpgwbMWqs2NPOPBw8vDVqeHMEs8FVXS1+twpdZIFn25KMd9b5B3IIyydI3xXWtW0+UMQy3iWwBECXp5L3YeKNdDZeRKu+KhfMcctH3/72jeyOfzsQphkEgwAE2g6B/LPld/xl4R1/WTji9U3T5n05e+nXa7ed+upI4VdHCtduOzV76dfT5n054vVNIkz+2eYbW222Iki4B6NmIxNpQpXVdcM+OnL9mD03jdl94+hdN43dfcPoXden7bpxzO6bxu6+edwe03PM7uvHZA/76EhVTV2k8Tdr+Nb7RFVTY+r28oo64WhWqs2QmEfBWateG7c2uBkMJ4lAAhdKSia9OTkl9Zn+g1LFnnaT3pwcfC19YAStzSfh7latXsYHLtGPvs559F3RR9bWroxMxjcRndzC+tzCiMfFuy07F0zAK/8/fHr2jn+caCKziRYCEEhoAuUVVas3f/vXqdu7PJrh+ffXqdvnrzxSXlGV0NnE+GYgUFNbX3Chsrisuqi06lxpVVFptXIXl5nu4rLqgguV8a7hm4EUSUAAAhCAAAQgEAsCcSHjY5ER4oAABCAAAQhAAAIQgAAEIAABCLR+Asj41l/G5BACEIAABCAAAQhAAAIQgAAEWg0BU8ZnZWW1mvyQEQhAAAIQgAAEIAABCEAAAhCAQCsmgIxvxYVL1iAAAQhAAAIQgAAEIAABCECgtRFAxre2EiU/EIAABCAAAQhAAAIQgAAEINCKCZgyfvXqVvhJ5FZcZmQNAhCAAAQgAAEIQAACEIAABNosgX79+iHj22zpk3EIQAACEIAABCAAAQhAAAIQSDACd911FzI+wcoMcyEAAQhAAAIQgAAEIAABCECgzRIwZfyqVavabP7JOAQgAAEIQAACEIAABCAAAQhAIIEImIvqkfEJVGCYCgEIQAACEIAABCAAAQhAAAJtmcDq1avbZWZmtmUE5B0CEIAABCAAAQhAAAIQgAAEIJAoBEwZv3LlykQxFzshAAEIQAACEIAABCAAAQhAAAJtmYAp41esWJF3Jo8/CEAAAhCAAAQgAAEIQAACEIAABOKcgCnjly9fntylB38QgAAEIAABCEAAAhCAAAQgAAEIxDmBVatWtVu2bFmcW4l5EIAABCAAAQhAAAIQgAAEIAABCCR36WHK+Pfeew8WEIAABCAAAQhAAAIQgAAEIAABCMQ/AVPGz//ks/g3FAshAAEIQAACEIAABCAAAQhAAAIQ+OCDD9plLFwECAhAAAIQgAAEIAABCEAAAhCAAATin8CsWbOQ8WzvBwEIQAACEIAABCAAAQhAAAIQSAwC8+bNQ8YnRlHF/5gQFkIAAhCAAAQgAAEIQAACEIBAUxPIyMhAxiPjIQABCEAAAhCAAAQgAAEIQAACiUFg/vz5yPjEKKqmHtEhfghAAAIQgAAEIAABCEAAAhCIfwLIeDQ8BCAAAQhAAAIQgAAEIAABCEAgYQgg4xOmqOJ/TAgLIQABCEAAAhCAAAQgAAEIQKCpCfBuPDIeAhCAAAQgAAEIQAACEIAABCCQMASmTZvGu/EJU1pNPahD/BCAAAQgAAEIQAACEIAABCAQ5wQWLVqEjEfGQwACEIAABCAAAQhAAAIQgAAEEoPAJ598goxPjKKK8wEhzIMABCAAAQhAAAIQgAAEIACBZiCAjEfDQwACEIAABCAAAQhAAAIQgAAEEobAwoUL281b8GkzDBiQBAQgAAEIQAACEIAABCAAAQhAAAKNJDB58mQW1SfMoEsjC5vLIQABCEAAAhCAAAQgAAEIQCDRCZiL6qdOm57o2cB+CEAAAhCAAAQgAAEIQAACEIBAWyBgyvhhTz/bFrJKHiEAAQhAAAIQgAAEIAABCEAAAolOwJTxj/Tqk+jZwH4IQAACEIAABCAAAQhAAAIQgEBbIGDKeF/X+9pCVskjBCAAAQhAAAIQgAAEIAABCEAg0QmYMv7urt0SPRvYDwEIQAACEIAABCAAAQhAAAIQaAsETBn/0COPtoWskkcIQAACEIAABCAAAQhAAAIQgECiEzC/G5/61IhEzwb2QwACEIAABCAAAQhAAAIQgAAE2gIBU8ZPnTajLWSVPEIAAhCAAAQgAAEIQAACEIAABBKdgCnjMxYuSvRsYD8EIAABCEAAAhCAAAQgAAEIQKAtEDBl/LwFn7aurG7MNaxf+aG3u/RoXVkjO01F4O2cClFrctc0VRJURQhAAAIQgAAEIAABCEAAAo0n0Jyz8VJdC7Xk929F9nsx1E4yoaaV8TIVv4wYlZcqivKOb8p4r1eTjSAsy5NJ1hZkjfPkJm1rWgJ+SXd9dXFWzpmi8mppnGHUVleWFBxY817jq2kzxICMbwbIJAEBCEAAAhCAAAQgAAEINJ4AMt5Pi0YCVEplR7b6u6oKshdOiCRCtyW9JglhfME1xuHIeMOozNs43GO8QNoWjYwf+UrG1uxTF8rOh72Woc+UuYcu+GdeO8rb2BgIzXYtMr7ZUJMQBCAAAQhAAAIQgAAEINAYAi0h4y+d2bZ+a5bf35q3R7pFbCNy1RgRG74ZMhU9O1sOHTtbUVmrRGx17prolbyU6+6lCtJfpFKdu+qlAFbStmhkfITX9pm97Zw2A19VkX/quFW+u7OPn8k9V1F5ChkffqUiJAQgAAEIQAACEIAABCAAgQYItISMj0ZbNpANfx0boRD1mM0OJ7ngqaTMzDplv2htGBe2TQonNo8wUq4Hl/FivKAqd24f1+XBbWs4sxFdO2TuSanhay8cWDSla8Pxu0yNl0Nm4/0bUbyUC1ZBAAIQgAAEIAABCEAAAi4CyPio5UpouTshK1/OyZ9cE524bUjGVxzLKRBpVB5Z7J9EaNtCZzmSaz8+XmnnsiJ7xhBX3UqsQ2R8YpUX1kIAAhCAAAQgAAEIQKDNEohLGZ8yc5m+WVptddm5M9vcM72zs8uFgjyzrMuEuTkFYil77ooeyV28hOik/UUegnPIuEX7c0vUfHJ1Wd7+ua/qclSLqo+aY7+wbWqQVPS56PcOlYkUa3Pn6v5dRk5cdchcbS7X3leWX8jds2KcNqMuBbxtsfzvzDIrHnm2Ivu9CZvOipPVB+YEMdsv6R5dX12xLU9LukQHKzMr07P/D/py+5BPTtpBivaEu49d11cXbzpUUFYl06itLjt7PGvqSL8WuOaMOF2WMzs5ZWbW8QtlglVtRX6OH6jkLj3MCI9fcCKsqi47u3uaX64bBp7cpUdQGS8MkAZXll84tn5m0+1f6MfBLxehB184CwEIQAACEIAABCAAAQi0FQJxJ+O7zthfJCWTlHr2/5Wn9O3clIwvOHBE6nDDsL4WJuWoWr3fZ3Z2iYhEf1l9wicn1dJ3LanaC9rEsooq94AtmA3DEKvc1algW8EpCyuyTdlv/bneJNeSNarOLJPbzkuhrp82DCNQxvdIVsMT5YfedgYCvG0bvjTXHlnwj7ho32xrMl9e5X/WCCrjVxyzRyIKNoW3tUEwAwzDkDZYlBwZv1UWnGNT5amNg6S+HbTIM0c2KJN5eMCDyfhgtdG/KsrClVYhxSEAAQhAAAIQgAAEIAABCDQdgZaQ8Y4iky4lFMdtzJUavuzU7g+nThn3+pRpq47nS8+inWrWV4lkwzCq87fNHhRUxE5YlmfrfF0rvr3P1vBlp7a+PWJIcpeRryw9bqtcpf/VxL5pacWBpfpn5KTodQK75NwQua5evdzuWGKUn9mUMXPc61PGfbjxwFk5DHF+/yuWFOw1zsz4JntZfsWBhebhuNcniElgKfLtaF/Zae8SX7ZvtqwoXrap1QHlZ7JmvNS1S49ek9YcsEc3RFQjh5up7LaTLT8+1zycMm6c/1S5EquvywUOQQn4Aek6Qy5PMKrzD22cZkY+88NtZ+yZdqP62CK5oEDKeJO6BDVtW4FcwK+2G5h/4JKoQmbRWBVg5HCT53GxbCG5S7jAvWX8SFkbqy5kW0XfdcTsTfl2YeWuCdxZ0C+/sizwhAAEIAABCEAAAhCAAAQgEEsC8SXjpx2yNVJZjpgfllkdJ7Wls0DdkfEh3wwfohZL+8U5cqstVs/u1j/Y9soeIYmrD8wRSUs9bBj5W1x7zstTwUWsS28nqzfJS/SZ8x7JXdTaeOPYIpnlLj3cl0v9HOCv1hqo8YJA216SYwoFm+Scv6kz5WR+5ZHFUnYGXuuYJMNYPs64QLD1CPqFygB9QYQZoOsc+YL9+f3jRB6VjK8tyHKsHTL3uF098rcICd2QqZEAV/XEWtBhGiZro/8LC33W2GsQzu5WiwL8sMhiwhMCEIAABCAAAQhAAAIQgEBTEGgJGa9/oU18di5DzLHPtFdQ1+Z+4kytCymoXsOuyJ4hfJSMVz7C3++t9blrzogpXPf31VfZb1/nr5czwEJ9yRnjsn0zLdxSKBoFWW6T5KmgMn7KtvP2XLH48PtEOf9/bKl/ol16dF2aK4Kab4NLHRgg1+0MevgrRW3P5wfaJn3yt/pvhicxlhyaaKcrQwbNl+SsEm0wpBmzjFauOFDZTO7yngQlISsZf3KFFqxHsvSXlNSFhrl2Y5J71UBEwANkvKyN7typRRba0n1ZZH7W4gkBCEAAAhCAAAQgAAEIQKAJCLSEjHfrIikLldLzChCgsqT+lG+MawpKKsbaansZtt9742ZyKjYhngP/lUJRRuVhUohTIkfOq+NiCMBDfqsSVZJYvV8QwWx8j+QuzqIDa9VAgG0q/sCsCh8ngwHXKiNdjj5yRYNxZpl7jEOVqXQoA7QMqiJzk3HLdRlJgH/XGYeK5E6BZj4uFRxY5ew/545Wtz/AHlUl5Gy85BCMmEfFk3bqCeGGAAQgAAEIQAACEIAABCAQUwKtWsaXF+Sqd7/9P4emNFswjdZ4Ga8m2I38rWL1dUSq8v9I3GDhvf37yHENcyG6lKBKnCvVGizDKmTIwRQlvC2HTNHcWbChF8WVATGV8aYZ1ncN5Av2ZvYqz+0Xu/15gxLtJ8AeVSWQ8f6lzNgEBCAAAQhAAAIQgAAEIBBfBOJKxktZ6LGovsdc+9tmatd3GdhjUlQTsUqt+e0/36PrevuL61KzBSsVLSr38EmIUz2S+yyWu685O7cpoRi4qD55kVxUby/mN+0JpkKD+TsvmeedkdvUybfW1cy5l4r2l20h8+UPQW4lYOjb7PvHJsEqAzwW1au3D+Qy9YBZdzvOYP6mVSOHf7g11/4GoVG0c4q+5iIc4Kp0ZJWQFcwZ4JB58YfgnV/CQAACEIAABCAAAQhAAAIQaBoCcSXjlVY3ivbM9HuFW21xd+m4/CS4VFmhZXyXHsPl6/F+UlNu7Wb4b3EXIMlCaNqgp7q+uuaY1JN+7+RLrW6c3z/RbxW62uKu+sDHjlYMJteD+Sd3GTL3pNz0Xsy6OxJUvUbuv8WdR60Kmq8AOD2S+6w4Jj8iYJSfcX/+vUuPXlO35h7aaF2otHr1saV+L7E7ow9y2ULAO/CSSSgZb4WRWxvYH8mLBHiAjFfbMfhvcedBTJrHKQhAAAIQgAAEIAABCEAAAk1PwJTxWVlZHgot9mmHoQ+Vujaqi44HfnCuOneVWrwdrozX3xs3nC3iX5Ji2Kg8e3zZh1OeGzEkOWXCuKmLs3LOlJ0UylPbmM3Rw0qzyezoO/btOZ57zhHSanW3xKu0tFF5Pjfwg3P6F9GTuziDGmXH10x8fcqH+/bPtQpFWq72pVcm+etq82ttcja+S49BUgMbVQUHVs0f9/JLXbuMHP76zA/XH8otyZVfaOuR3EW90l9xbOnMca8vzt7pv8+cf8XQPiNnLWgvKTiWsztr/dZNObn5JRYKOf/fdVGu/GJcRX5O4AfntOxIU+WrDTKDbv+NByyMw1PMAF1HvPfJEfsjgmI2Xts8r2HgATK+R7KzlKMid9viieYH/4YMennKtKX7j50r2PaetMofiCxrzkIAAhCAAAQgAAEIQAACEGgSAnEm47v0GL7wuN+mZc673NVFO/Wv0IUv480vuqlPxzvT4+OcOXMnEeGSytPZX13Tw1KnSRnvvlgcV+fnrBjnN+Vuld+4FQfs7evdlwVo/h6a7hWB7TXnoWR8lx6DVtmb85vX+Jk94ZOTtsp1p+23oiFgSt+h4V0Fu07ena/m5AOitifGTa07ZOIW9e13V7iKY0u17/m55bpM1+0fpAicwZoeyWED95DxXYa8vfOCHHpwGyy+PiArg7QQSQ8BCEAAAhCAAAQgAAEIQKCJCcSdjDenVV9dvOn4hTKlDKuqy/IOLZvqtxI7uUtEMr5Hch/1cXWj7OQa+1vxfabM3XOmqFybP79UkX9o94evqg/CSaHop4eFZpOndH1XW11ZUnBgz5qJ1vywt8brM+XDbblOouYlZ7K1/dW1q4ZMXH9GcagsOSReKAgt4/UxC38ZbwrpcYv2556rqFS7u1dVl509vmnOFL9XGPrMzDolw9RWl+XM10wKolf7vPT2qkN+MQsU2xa/4o+i19SN2XkVlU7hVpjLLhzgVvxuuS4Tdfu/t+xQQdklrfjKLxzbttg9ehIecC8Zb6bba+rWA2clDcMwqqrLzgUrL2lnEzfahosDAyAAAQhAAAIQgAAEIACB1kugOWU8IgcCEIAABCAAAQhAAAIQgAAEIACBRhEwZfzq1auZ34MABCAAAQhAAAIQgAAEIAABCEAg/gksWLAAGd+ogZD4L2MshAAEIAABCEAAAhCAAAQgAIFWQ2A+Mr7VlCUZgQAEIAABCEAAAhCAAAQgAIFWTwAZz1Q8BCAAAQhAAAIQgAAEIAABCEAgYQgg4xOmqFr9kBIZhAAEIAABCEAAAhCAAAQgAIEGCSDjkfEQgAAEIAABCEAAAhCAAAQgAIGEIYCMT5iianBIhgAQgAAEIAABCEAAAhCAAAQg0OoJIOOR8RCAAAQgAAEIQAACEIAABCAAgYQhgIxPmKJq9UNKZBACEIAABCAAAQhAAAIQgAAEGiSAjEfGQwACEIAABCAAAQhAAAIQgAAEEoZA88n4m+9+tFvvob0GjuydMoq/8An0GjiyW++hN9/9aINDMgSAAAQgAAEIQAACEIAABCAAgVZPoJlk/M13P4qAD1+6B4bsNXAkSr7Vt0YyCAEIQAACEIAABCAAAQhAoEECzSTju/UeGihN8YmIQLfeQxssTgJAAAIQgAAEIAABCEAAAhCAQOsm0Ewynqn4iBS7Z+BeA0e27rpI7iAAAQhAAAIQgAAEIAABCECgQQLNJOM9dSmekRJosDgJAAEIQAACEIAABCAAAQhAAAKtmwAyPpH222vddZHcQQACEIAABCAAAQhAAAIQgECDBJDxyPiE+axCg7WZABCAAAQgAAEIQAACEIAABFo9AWQ8Mh4ZDwEIQAACEIAABCAAAQhAAAIJQ8CU8bNnz27q4YpIXwInvCeBpi4m4ocABCAAAQhAAAIQgAAEIACBOCdgyvhZs2Y1tZWeohTPSAk0dTERPwQgAAEIQAACEIAABCAAAQjEOQEW1bOoPmGWjsR5W8I8CEAAAhCAAAQgAAEIQAACzUAAGY+MR8ZDAAIQgAAEIAABCEAAAhCAQMIQQMYj4xOmsjbDsBZJQAACEIAABCAAAQhAAAIQiHMCbUbG7ygwjILNKV6iPcQpz/CN94w2xTivTK3LvNnZ5UZZTpPv/ti6oDEkBAEIQAACEIAABCAAAQg0OYH4lfEZxy8Zrt/Z7Ej3hHPCh1DOIU41XrF7xhBtinEj+TbmuorGqMh+r8kra7DsL8szrcld42XAe4fKDMPI2xjs2uD+yHgvnl3whAAEIAABCEAAAhCAAARamEB8y/iLJzMcGZx5+KJhGJcOL/KaUXeCBTkbQjmHONVgtNEFiDbF4JqzmauRKeP9ZPOaM6aSjkYtx8DyZXlGWXmFZ+pv51REaxgyPgZFEzc1lrxAAAIQgAAEIAABCECg9RBIIBlv6vPNZw3DT9sHEe2B6jqEcg5xKjCemPhEm2LciKIAGd+lR7I17+2n7Ztr5tacjS+vKPNYEbAx16jIzfNW+A3BRMa3nm6uobImpxCAAAQgAAEIQAACEEgkAgkm43svOnlRm5A3Vb385e9Qkl7M24sTcvZeKGfzcvvnhLdFdXa+PHXxeKazGj9Fj81wrjL1vHOJ34v3IkLzX2fQQTO1YLOdojI4XEfcqBEvGd+lhymntQl5sdbdguosuRdh1Cnr5XNTMIuf6110ey5dnNNidnFQcbouT15zxig/tCzHX8aLhQMizvJDb+tjDWIFvnWqLGej6914ZbPhMV6QSG3eRY9DCEAAAhCAAAQgAAEIQCCxCCSajLeUs62lF53MV3rbFMa2YjcFs3yLPuN4gb0I319UWy/eyx3vxCm1AZ4l9aWSt4S6jM0aRDDkqVFO5K5lAiJCdZXrrD2UIFOPZHo/buqWt4w3VbcUxkJa2wabytlW8kIM25P2UlFrh/6C3zizzJbZltSXkbs42GmZIlyF75Hcxbwkd00P0yo5BGCNCwRJwn81gbBTjQsEy47LEg4hAAEIQAACEIAABCAAAQg0NYGEk/Hm3Lj/lLiYyjb1tuVvBlBK25lU13S+5anCj+rtPjXKFPnW0n3lUPEE+tinzEikMndF6L+CwAyvB25FMl7Mfpvz216KWkhiPz1sKW2lsYXwtpWzGYOjt81mEOgjJ9JlnLZut9vMe4fKLNmvyfjA0QfHR0ai5tXN2DRj3AMESuE3dRMlfghAAAIQgAAEIAABCEAAAjqBhJPxmvxOGSWmx8X6aMOW8UIkG46oFjrZrZy1eNynHJm9+WzAiICpyaVcT7EEv0pe+bsi3FHgfp/fFSBsJa+XXIu6HfWrm+HMxstpdoc2zm7IAAAgAElEQVSNYUtif7WsSWVTk2uH1np4vxXvcnZdT1G4nTi1q8x976zPxTky3j24YCp2Gcx/CCDQGD0nlhsZH1gQ+EAAAhCAAAQgAAEIQAACzUAg0WS8pqKtt83lq+/6YntLFVvL5jUx71bOjZfxZgyOPtfj191i7t21LZ8rQGuR8VIS93Cm5eWEuarKjuR2SWXXoSbI5bWBStueOdfinJ1dLubwN+bKBfaxkfFB1vNL29QcPg4IQAACEIAABCAAAQhAAAJNSyCxZLy+YF7T4aYMdh26Vto7E+xyebwWPkBUq7frA5fQOz6uq/RD3W0voVfDDaZh1hCDM6UvTWp4o7u4EY1es/HmDLxced7wAnhRrbXpd5eMD4wh0EeOEWgy3hpByNv4dk6Fmi13ZHyXQLOVj2mJtry/R7IV2I4keNJxUyJN202QTQhAAAIQgAAEIAABCEAgfggkjowXO8M5+8bpkt76EJ16N/6s+tp8CK3uOuWaV1ev35vB1IZ5Yg2/2mBP2zPfChZsUb3Y615NyIuMqMBhT8X3ThkVN/VGqV9bPZpC2u9VdksVazPYy/Jshe8nufVV9C4ZL/a9V+MC7rfo/VSrf5zmR+bKyuWAQpeGtrhTRlovAqgP5lk5ku/Gi9RVSNM2J/64KRQ/JlgFAQhAAAIQgAAEIAABCLRWAvEt4/1eSPab0DZnsG09bAbK36FkuSnv1c/ZDM81Q67P3otT5r/2z7lKzvPLM342yHX71tJ9PX7dbat0zaqLJzM8AjQ8FR9vMl4ysf6XW8Fr7cRS8jKQmhv3l9zBZ+OtmXahpUUcKgYtCW0QQTNAm343A3gcSqv8p9+tmXx5KneNh23ypJL3KGcIQAACEIAABCAAAQhAAALNTSB+ZXz4S83bTshABYsPBCAAAQhAAAIQgAAEIAABCLQpAsj4sKbB42SkoE1VTTILAQhAAAIQgAAEIAABCEAAAoEEkPHI+OZeARJYC/GBAAQgAAEIQAACEIAABCAAgTAJIOOR8ch4CEAAAhCAAAQgAAEIQAACEEgYAsh4ZHzCVNYwh6YIBgEIQAACEIAABCAAAQhAoBUTQMYj45HxEIAABCAAAQhAAAIQgAAEIJAwBDLmL2i3evXqph6oiJMt4hLdjKYuJuKHAAQgAAEIQAACEIAABCAAgTgnYMr4VatWNbWVia6f48T+pi4m4ocABCAAAQhAAAIQgAAEIACBOCcwL2N+c8j4XgNHxokSTlwzeg0cGeeVCfMgAAEIQAACEIAABCAAAQhAoKkJNJOM79Z7aOLq5zixvFvvoU1dG4gfAhCAAAQgAAEIQAACEIAABOKcQDPJ+JvvfpQJ+cYMB/QaOPLmux+N88qEeRCAAAQgAAEIQAACEIAABCDQ1ASaScYnd+lx892Pdus9FDEfqZjvNXBkt95D0fBN3RKIHwIQgAAEIAABCEAAAhCAQEIQaD4ZnxA4MBICEIAABCAAAQhAAAIQgAAEIBDPBEwZf3ufV+LZRGyDAAQgAAEIQAACEIAABCAAAQhAQBAwZXyPSZ+CAwIQgAAEIAABCEAAAhCAAAQgAIH4J4CM7xH/hYSFEIAABCAAAQhAAAIQgAAEIAABQcCU8Z0HTQEHBCAAAQhAAAIQgAAEIAABCEAAAvFPwJTx9zzzbvwbioUQgAAEIAABCEAAAhCAAAQgAAEImDJ+1apVgIAABCAAAQhAAAIQgAAEIAABCEAg/gmYMr7X2BnxbygWQgACEIAABCAAAQhAAAIQgAAEIMC78WxxBwEIQAACEIAABCAAAQhAAAIQSBgCyPiEKSrGnCAAAQhAAAIQgAAEIAABCEAAAqaMf+LFmYCAAAQgAAEIQAACEIAABCAAAQhAIP4JmDKeLe7iv5ywEAIQgAAEIAABCEAAAhCAAAQgkNylB4vqWVQPAQhAAAIQgAAEIAABCEAAAhBIGALI+IQpKoadIAABCEAAAhCAAAQgAAEIQAACpoz/w+NPAQICEIAABCAAAQhAAAIQgAAEIACB+CcwLyOjXY9Jn8a/oVgIAQhAAAIQgAAEIAABCEAAAhCAgCXjJ34CCAhAAAIQgAAEIAABCEAAAhCAAATin8DceRntMjMz499QLIQABCAAAQhAAAIQgAAEIAABCEAAGc8WdxCAAAQgAAEIQAACEIAABCAAgYQhMH36dGbjE6a0GHaCAAQgAAEIQAACEIAABCAAgTZOgNl4NDwEIAABCEAAAhCAAAQgAAEIQCBhCCDjE6ao2viAE9mHAAQgAAEIQAACEIAABCAAgeQuPZDxyHgIQAACEIAABCAAAQhAAAIQgEDCEEDGJ0xRMewEAQhAAAIQgAAEIAABCEAAAhBAxiPjIQABCEAAAhCAAAQgAAEIQAACCUMAGZ8wRcWYEwQgAAEIQAACEIAABCAAAQhAABmPjIcABCAAAQhAAAIQgAAEIAABCCQMAWR8whQVY04QgAAEIAABCEAAAhCAAAQgAAFkPDIeAhCAAAQgAAEIQAACEIAABCCQMARMGZ8xP4PxDAhAAAIQgAAEIAABCEAAAhCAAATin4Ap430P9G5iQ1+95e/f/PFD998fRr/aqHQfyvzDh9+EjGTwDWP3/GGGle6Mg78fPeXaLmp8pc+1f8ns/N43/zlQ+TSH462xST9++G8/TrjD51gSVrqDByafntrxs/vCCtww1Yd+/9Xkn5mWfPhvBZOTP7s/RtGGl6lrh/W+fc6AO5Y9eeeyJ+9cPOA/X3ywYYPDi9kznt9N6nfnsn43PxHrPKb1vXPZk7enBY/2zgdveK1vl8Uym689IqvfwzdN73fHEtP/jkX9bhv7sKfZTeB577Z7b/9O+9t2VzDj71vp+//Zuxsnuar7Ttz8GVS2KlvZqtRWbW01wgIbBGlpeJGRMNCABNjCQsKJHEd+A08A2wRnsBcSkGVeZEDyYMMEw8gYrVn/wDhDrLKiLYtaAg5lbIOiaA0yFmBL5mU8MEVqfntfzu17u3teNd3Tt+ehppSe2/eee+5zWo4+53vu7dN/dtaHzq7WKitW/mz1sp+ddf6M+3P+o+csO3jOyhumGLLlUZv1nky98xTtzOatLc+8PdH831vPbanWdv1qYmLi5V2zaW3GGpMJ1+L+vP3Utkl3OPZTNLUwciASGP/Fzo/X39r23JsTEwceb+jGAz/9w8Q7zz2Q7Xbnc+PRob8aWTWJUuA9uufmQlOrHn85Vg9Xmv6ajsSbv3nu/usK+1eqtT9/8vDExOHHrm7cnnXGCwIECBAgQIAAgc7E+E3v23j/yR+//+SP/6C648Uzt/wgfn3/0os3TToA5w4u++rPq5+bMudPH+Ovf/8XfvD+9Ted+JH7T/37n5+54+fLrvhwpVo74eIHlm35eTKt0NkYv/Kf7zz+37b86ZHt/+07Z0/3j9RzVzz11T/+t8+tSoi+8rn/cmT7f3nyoumOmuQf2Y3OV5z87GdW3H7BB+/9TOWl7ccf2XLKdTM88Jh3O/ErV0QBfuf6ZTdfetK1l75/6/plN7Y3x84kxi+5et3pO9fPLupPG+PXf6S6c/2pN16y9JOXnnLvxr5dG0/9ZDJ8l3zgjstO2nTxiZ+8bNm3r+zbtf79l8zTsE4zOnGMP+es+85Ylfz8/fLJzrt6z6plL6xcfXmbYnw8NfDMWWk37uv7UHSiNv/8+d2PP/bDHz/2wx//9HcTExNHfxq/fux73/rznojx133/wJvvHp1uUiCJ8RMTf/jljg8H8FYxftUjByYmxn96b9in+vBP/zDx+u+OTpGuQ4yfePOZb+WG8m8eO5Qk9kKMf/35aCCefO7oOxMTE4d+/P+GIHfItj2/a96Y38FrAgQIECBAgACBWmdifAY9eNqOF8/88mDuH23ZW8UX00f0WmUm+2T/QLw4Kt1XP/25SrV24uf+ZflNP1h61d4zd3S0Gv/BK5Yc2fFfH7/o9Od3HP/8X01X3rzoAy/tOP6lv05j/PRi2ZXO8sV3/sfxR+5ecs8sj5pjfzatW77ryuV3XXpCX3G423n2GcX4OVTsp43xqy88IZus2fCR6q4rqzc3TVhcG5X0Q7xvt0kc41eunt3YtaMav+Lsn61eNvlagPY6NNfem7fMjmhOn975rcbPrLU4xr/19psTUdhO6+otYnycvX/39JfCdcWp/uiebT85NDFxaPfftMRJOvDmW9EcwZ3hwMrNT78+MfH6796emCjE+FD8/9ZTb01M/P65m7L9q7XKvb98Z2LiF4/k1gvk3/WaAAECBAgQIEAgFljYGP/hJX8xUr09XvS+/cXlN/2vpSvjf8F/bHduBf6/fuCi2gmX7Tztqz8/I16Wf8bXRtLdcjH+hI27+3b8/LSNk5T3z7hu6fX/eub2vScn7SdjH5+lk9X4e2/4oyO3LLu6uvrxW46PX9TjytWXf+D52/8oWuW+/Y+e37y68rH/nqx4j//8kycvqn3lr//kyI7oxdWf/q9HdvzRU2GJePzrf/7nS6OmvvQXlZfuitbJH7nrvzx1xXnRv7Yv+sBL249/KZT0m//9veGiZc/fffxL166c7SL/5qZmsuWku6Li80mr6xeeP2rJtetOj6rT0U/1Gx9Zmi71v3TZriv77rp06da4jP/dK0791IUnfGpdslh9+TcuOzGZEVif5OS1J6W7bTzt5nQRezHGX7j05vXJsSu+vf7kDVFP4l6l5+174CNLqrXK+Wve/4102X81O0W1dsJffuS0h+LF8A+tP/nmbFH9hSdt29i38/LJriu6xnj+4vS/Ld4+cM6ak79xZd+316WX0Pb/SWoV45ev/qdzqun69lV9D69Ihia3ZzHGf/6Ms3626rRo/1XL/6nvgjB85923MmnktJ+dvfKfskX1xWPDzrXKGWccXH36D9Jztf4w1Heeb5bm0J5sefLBX77+Xlw6/t1zW5JidRxx3/zl0794K6y6v+57e3719jvJbu++feCH25MwXGwzTsu/GkkuYdVXf3zg93Gz7739i30HkghdqYZF9d/7yYE/xO/+4eVd6fLy5PAf37nvcHKiN//9xzfF/ZnsLPH2pOg9MRHdJvCtp34fxeP/d79AkTFtecfz4/Vc3Rzjr47j+pNZXP/4Q/snJn739HXVrVGdPHrR0Gz0azqPsC9atv+LnekO0cY//PKx6HaG5hj/8T+/L1rP//r/3pbvZNS3MBFwyb1PH4rko//efP57+d28JkCAAAECBAgscoGFjPEnfGx3344Xl//trqVrB963effy7S+e+bVdJ1ZrlTM2L7n8B9F975+/Y8m5nzthee3Ez+xdtnnried+7n2b9/Zl9fyZxPh4nzN3vHjG7Xvfv/ajhcHucIw/+/Tntx//b5+JaqFx9v7Tx8ON7hs2Vg7vOP7w3y/9zkdW3Xrl0n/evKpyxnlXX740qsZ//syrzz1vw/J6jK/E7Rz5mzPja4lnBOIl8Zs+9t8PR/v3fencD37vpv90ZPt/jdqfPMY/8OU48O/445c+v2JTq3+XF6zmZ4eL3//AlWlObmrwhP6PLt91ZXXbZUs3Xnzi9ZdXd13ZNxQn6moc43dtXHbjmhM3XXbazuh2+uX3rTtp45qT7trYt+vK066Ls3Ec41c8vPG0m9aeuHHt+7dHby3rj97Kx/gTo6r7xtOuX7PkI2tPGbqyb+e6pX21E86/cOmW6P75U/7qwiUX1ip9a94fvbX+5I0XLvnUuuquK5fftjbSuOSy03dd2ffty0/edPGJ/euinqT3xk8X45MGd60/OXsGQVzJ79t15fKhdSdlG5tM5nsI4nBevym9+uiKWqXv7H1nrf7K8vM+3xdVyMM97a1j/JVnnPFCdJ/86s8v/9CDH/yzg6tXPBwvy//ayj87uPrPnona+dCDSZ5PbnefKsYn98af9sI5Z9036dr+FnHx2E2KYTg6RRqDf3dg144Hdv0yuoX+9f+9NTpRHHGjCHrv1dGvH47j8btHf/rDh2/aMfLT18YnJsYPfD+Ku8U2czH+w9/7xbsTE+8e/en3H7jpH35yIA6lybLzOPdOTLx7eM8/PLBj3+Foefn+JKnGh783/vovf7xjx8OPxf1JDpnsLJdct/X+56Oo/NMHt153w9+smibGj1SSXiX19qYY/6V9RyfeO/BQtur+6h8fmph4fV8Utq/730cnJhrvfo9kshi/LbqpfmL/4/HsRvT69X3b0oSfPAWgcG/8+OvPjXwpO1Ek/Pgv3kvPVal+7xfvTUy8deCh27be9Mhzr/8ynRZJTudPAgQIECBAgMAiF1jAGH999Ny723/wvpBelnzmX87c8fNTL4v/7Z6L6MURip+W97X/FaX9SffJ/et/+aYTzh1435UPRPfGb//5svXRvfHpT2dj/IZP/LeknB6d/UOn/Ft9wXwcxe888Z6GMFNcVJ9V4yvV879z0/FH7lx6e7VWOXfZv+1IpgZWPfm13C3u8fYpivCVau3ilauvXtv3neTe+L9f1rLCVrfK0I7pxRQx/uIoOX97XTSs8c+SG9f37dp4yqZaJYnx910WFcmrtRO3RDeZx9trlY/kVqonMf6OOG9Xa5XVl56268q+bZcUY/wly3ZduSLb55PrVuy6cln8JK181K9cfXm00P1TaU+W3nZl367LT6rWlnwlmgI4JTwT8YQvrA8xPnyiQucLbuevieYLdl1xyl/mSvFnX7jk4jVLr43vjf/u+pMX5t741Q1PoduxctnB1WfsiK6iZYxPn133ueQyl5/zTProu3jnD64K97d/6AersumASWSWf+i+M1Zv61v14FkrXogK+2d9rSVdezYWw3DUw3hLKBfHteiJpJaexPg0Xdcq34+e1nYoK1PHmXPiNz9purs+F+MbDrkvWjGej/EHHk9Wj0c3n8eF9FqlGh9eX9MevxWvPC/2PHeWeoqeBDyVrB+yaueBd6IV8l9OpirCKvdapZrP4VFr8QPnAk68SL5493t6xiyrR7MA8QPq0qX4N4dCfS7GJ/fGP7bv5TffK6waiM+VTROEGH/L36yq1lZ92DL7qQfXuwQIECBAgMDiEljAGD942vbiffL5XF2M6CfU7j/1y/uW3/nzM7bHK/BnHuOzJLD8nmV3T366bLd2vYizevxk+Ppq+duX3hqdbsWz26Nn1xeyX7Ievh71c9X4ai2+x/6P//myuKqfPi1vxbMNjeeObWy5eI3XfeZP6/MLxbemPnD2714YrSF/OCqANx0bBey+uy6tb6/feZ4uqk/eKuTtOOGnN5yni+qzm8/rR9UPifdJFu1nfyaPmq/vk1bvwxr75HH6uz56UrV20rYr++IXaSfrPWy+nLDlskujov3Oj56cTE4188YV/hb3zDfvOQ9bcuE8tHb28nMfPrvvZ6tOj+J09DNFjI8Prxfzo/2jJ9jHj53PPcp+Bk+qD2evVGs3nFU9uDpeF5DbWP8YtGFjMQxHI1XcUs+6ScTNUutN/ye3ODzqWHxrd4tn3ddbaDwknhfIxfgQj3NNpTE+rMmfyVlyxfDwwWvtVu9Ypfo3u/59fOK9w489WHxS/c6Gh9vFC+nThe3h/4RF7/lhymJ8cj/8oSe/HKnGj6+rv1WtVeJqfDZrEGf+DCE+V+6Jd5sffO5QesfB4T3JgojW1zX1VXuXAAECBAgQINCDAgsY41tW46M74aN/HeZj/Nn3n779xTP+btf7LvjckpV/H9XwSxfj4/L74YFTvvPxavLz+MB/PrIjiuKValxITyN97hM2aTW+Vlne99Tdxx++dkV0j/0NffFt7XEjt5zylXNXXx1+PnlWrrXJ//nbwRhfO+G6qIJdvTX76rWshy2r8cm3xNUDebG0nhbq8zF++ZY1abSI4/GKeDF8LqJHkwXL77hkycUXZj/JU+hy+9TiavzGU6+u77Pk4gtPqNbiBfn1L66L1wtM/YVza0/dGd0acGL2oLvmUVjgGJ9Uzs/aseK8Ty2/4L6ZVeNvWH7ep8LPx6MrWrVv9bKDK1dH304X/az+p2mr8TmHNMY3LEXJ7ZDPivPyuhjaoz4Xt+Sybi51R6duKK0n1fj4O9h2/fvExMThJ5PvSPtwtAo9qeev+uHhiejr3NJKclygzlfjswRbnxFIY3xc5I9OmpwlviN9srPMKcbXKtf9+NB7E+/8/u136l84l94Gnz3cLsnk7/zq6eQh/4/98Md7fhXdSvDT+7K/uemLXFaPn5AXP0gvufDcW1PG+LjU3/Rwu4//+d0/OfRu8cl57fx4zMtnTCMECBAgQIAAgXYLLGCMry359L4zs3vjPz4S3Rt/y85k7XTlgl3Ld8TRff39J300eb3zfecOvO8z8b3xTTG+9SPuLtp12pf/18kfGci+cK7wDLx88b/N/y6Mo3L6ILp0ROOUntzifl301LrjD/9d7t74aq1yQfSk+iN/d8rt66sPXFCoxleqtds//8dHvvYnL+34o6euSP8ZHX0j3Y7/9G/Xrrj13NVXr13x5P84+YHJH3H3wBf+9KnP9N16bvjCua994CttFgif44tPjr567coVD6w/5cb4C+e2rT8t/sK5JX8bJ/zk3vhrozvS+76ZLKSfRYzv++4Vy65bs2Rj+gVvyQL4XESPb2LftXHZ9WuiGL/p0lO3pWv14wXzV572lTVLr71kyepLlu1M74FfcvHFJ16/btmX4iL/x6LH7PcNrTtp05oTr53+3vh4zmLjaTdFl5n+bIrbuXrd6VsvW7rxwvCFc/WpgaDUmJHmaXtzNT7ecs5Z25af95Uzzoq/y32KanxSOU/ugT/vUytWP7ry7HgF/gX3fXDZwdV/Ft1jv2L1ox+sHsxi/CT3xm8764xHz4h2ThfVn3NOulC/Ix/CYmiPqItbJo/x2Y3u0b3xjz91KAq0yXewxzeNT7z57z++87aH90Tb0xhfiW8sn3j38FOPPHDnI89FcbSwqH7yGD8xfuiZx2+67eEn/z26Vz9ZyT/pWaq1uOw/cWjfww/9cOSmae+ND86bd0ezDPFEQ/yRi3tbv2ugWour5flvngvPC8huNAhN5bN6MluR3WCffyupxh/avfW62x7eVVxUH301faHOP/LTQ0/vuG3rdbc9Hj1isPBWm/6CaJYAAQIECBAgUBqBhYzxlepHT/z47updyZPqf1792/tPPCOD+8zS6/81ejT99n/5wAWfWXr9v0TL6be/WL32gWWtqvGtY/zZd5yaPd/+9n3L/uL6QhzqXIz/4D/ffvyRxnp7XD+/e8m9UR3y/Fs3//f0IfN3/+dnP558Jdh5917/J9EK/O1/+nhTjK9cuvTwjoY2z7vnr//bS3fHD67b/p9e+vLpUTKf5BF3X/lUfs9T7sk/wD/8u7xgNY8b+y5ceuNHT4+fDxfl+Z1XnHp1etP4kusuT7d/d+Ppd1y6JC1izyLGV7deeso34/XwD+eazX+ZXN/FJ91xxYrvJvtsPP3v156QXNr5a099INq4Ipk7uOzSU+9Ln1S/4tvrP/DJ0MNrLw9PyP/I0uuneVJ9PH1QXJyf3DWw/rLTwgP5V9z30ffn75mfR+cWTTXH+NoNZ/bFy+lPe2HlOQ9PU42vVaoXfO2svjjtLzu4+rSfrTwnvbt++bmPfvD0eE1+dc8Zqx+d7kn1XzurGtbwn/azlas+36Kr2f8OzP+LYmiP2i9umTzGV2urBr731G+iXB3999bhp3ZuTb+27cPf2vObOL2/N35g99NZNb5SrdVXhv/+5ce+F61gf/P/bG+qnzdV4w89/WRU956YeG/80L4HLkmIJj9L5bo4605ET5KfeYyvVL/85G+ikySr3LPb2sPf/fg++cb8HHc1/wy8uG+FrB4/ne6d5x5I2im8VXjE3cSbv3nu/uT5/PGig+yQ+MAHnvp9LDAx8c7vX37sq+6Nn/+/C2GgtUyAAAECBAiUT6DDMb58QP6hUw6BxnvjfdIIdJ3A5j1Ho8z8/ak7lptH6OgEx7bo++TSh8xP3cP5fzd7Hl45/temo+My/9qQCRAgQIAAgR4QEOP9I6knBMR40aIbBb6151cv7/n+wzd95YGH9r385kS0OHxH/ivWWvR5gWL8vb98Z6K4fr5F39r0vxXx7fS5h9v1wP9ndQkECBAgQIAAgbYKiPFt+oepZjsrIMZ3LnR1dmTLfV1bH/vV2++8Fy/Cf288WkM+MO3i8AWK8eV29pkkQIAAAQIECCwuATF+cY13W+eENE6AAAECBAgQIECAAAEC7RYQ48V4AgQIECBAgAABAgQIECBQGgExvjRD1e4ZHe0TIECAAAECBAgQIECAQPcLiPFiPAECBAgQIECAAAECBAgQKI2AGF+aoer+OSE9JECAAAECBAgQIECAAIF2C4jxYjwBAgQIECBAgAABAgQIECiNgBhfmqFq94yO9gkQIECAAAECBAgQIECg+wXEeDGeAAECBAgQIECAAAECBAiURkCML81Qdf+ckB4SIECAAAECBAgQIECAQLsFxHgxngABAgQIECBAgAABAgQIlEZAjC/NULV7Rkf7BAgQIECAAAECBAgQIND9AmK8GE+AAAECBAgQIECAAAECBEojIMaXZqi6f05IDwkQIECAAAECBAgQIECg3QJ33XXXcR+84LJ2n0b7BAgQIECAAAECBAgQIECAwLEL7NixQ4xXkCdAgAABAgQIECBAgAABAuUQiGL8StX4ajlG69inbbRAgAABAgQIECBAgAABAqUWEOMFeAIECBAgQIAAAQIECBAgUBoBMb40Q1Xq6SKdJ0CAAAECBAgQIECAAIF5ERDjxXgCBAgQIECAAAECBAgQIFAaATG+NEM1L9M2GiFAgAABAgQIECBAgACBUgtEMf7vLri61Neg8wQIECBAgAABAgQIECBAYJEIRDF+++CuRXK1LpMAAQIECBAgQIAAAQIECJRaIIrxjz4qxltaT4AAAQIECBAgQIAAAQIESiAQxfhHBm8q9VSEzhMgQIAAAQIECFVNcj8AACAASURBVBAgQIAAgUUiEMX4r19/2SK5WpdJgAABAgQIECBAgAABAgRKLRDF+L+7QIwvwcKJUn/OdJ4AAQIECBAgQIAAAQIE5kVAjBfgCRAgQIAAAQIECBAgQIBAaQTE+NIM1bxM22iEAAECBAgQIECAAAECBEotIMaL8QQIECBAgAABAgQIECBAoDQCYnxphqrU00U6T4AAAQIECBAgQIAAAQLzIiDGi/EECBAgQIAAAQIECBAgQKA0AmmMf/X1I68cfu3QK4df/vVvXjr0ih8CBAgQIECAAAECBAgQIECgSwRe/vVvDr1y+JXDr736+pEoxq+84LLfHnnj1dePHH71t785/PpvDr/+yuHX/BAgQIAAAQIECBAgQIAAAQILLpDk9MOv/vbV14/89sgbaYw/+sbbvzv65m+PvPH6737vhwABAgQIECBAgAABAgQIEOgqgd8eeeN3R988+sbbaYx/460//P7N0d+/OXr0jbf9ECBAgAABAgQIECBAgAABAl0lkGT2N976w/bt26NF9W+NvpP8vPn2mB8CBAgQIECAAAECBAgQIECgqwSy2J7G+Lf/8K4fAgQIECBAgAABAgQIECBAoMsF0hg/OjbuhwABAgQIECBAgAABAgQIEOhyATHe/AUBAgQIECBAgAABAgQIECiNgBhfmqHq8gkh3SNAgAABAgQIECBAgACBDgiI8WI8AQIECBAgQIAAAQIECBAojYAYX5qh6sCkjlMQIECAAAECBAgQIECAQJcLiPFiPAECBAgQIECAAAECBAgQKI1AFOMvv/KvunyyQfcIECBAgAABAgQIECBAgACB0bFxMb40My4+rwQIECBAgAABAgQIECBAQIwX4wkQIECAAAECBAgQIECAQGkExPjSDJU5JwIECBAgQIAAAQIECBAgIMaL8QQIECBAgAABAgQIECBAoDQC27Zt84i70oyWaScCBAgQIECAAAECBAgQWOQC37rvfjFejCdAgAABAgQIECBAgAABAuUQEOPLMU6LfLbJ5RMgQIAAAQIECBAgQIBAIiDGi/EECBAgQIAAAQIECBAgQKA0AmJ8aYbKzBMBAgQIECBAgAABAgQIEBDjxXgCBAgQIECAAAECBAgQIFAaATG+NENlzokAAQIECBAgQIAAAQIECIjxYjwBAgQIECBAgAABAgQIECiNgBhfmqEy50SAAAECBAgQIECAAAECBMR4MZ4AAQIECBAgQIAAAQIECJRGQIwvzVCZcyJAgAABAgQIECBAgAABAmK8GE+AAAECBAgQIECAAAECBEojEMX4Rx991HwGAQIECBAgQIAAAQIECBAg0P0CqvGlmXHp/g+THhIgQIAAAQIECBAgQIBAuwXEeDGeAAECBAgQIECAAAECBAiURsCi+tIMVbtndLRPgAABAgQIECBAgAABAt0voBovxhMgQIAAAQIECBAgQIAAgdIIiPGlGarunxPSQwIECBAgQIAAAQIECBBot4AYL8YTIECAAAECBAgQIECAAIHSCLg3vjRD1e4ZHe0TIECAAAECBAgQIECAQPcLqMaL8QQIECBAgAABAgQIECBAoDQCYnxphqr754T0kAABAgQIECBAgAABAgTaLSDGi/EECBAgQIAAAQIECBAgQKA0AmJ8aYaq3TM62idAgAABAgQIECBAgACB7hcQ48V4AgQIECBAgAABAgQIECBQGgExvjRD1f1zQnpIgAABAgQIECBAgAABAu0WKF+M3z+0uVKtVaq1/t29lcAPPLLurFqluq5/99Ew6nv74yutbBjeP9ZbF+tyCBAgQIAAAQIECBAgQGBOAgsR4w8Mr4nT6ZqhgyGvziKjHnOMD9k4ScjJn31r+9Zu3njD0PBzrx2Zk+McLqThkOy6KgN7w1uhq2L8Ag1KGIhZfD4dQoAAAQIECBAgQIAAgbYKiPFRYb/wc9H1g89m9fDZ5bcjr/zssaE7Nq67ZvDA7A6MxvjAE395Ua1y1qYbVeOFdgIECBAgQIAAAQIECBCYRGARx/i1N93/jz96LPn5/4Zvvu6qZdGa9uQnv7J9FoF8ZCA5fPNcYnyLEVKNnwV+W6e7NE6AAAECBAgQIECAAIEuEUhi/Cc62psuWVTfvFL9jUOP3bwpTfJ91wy/POsMKcZ39IPUYuJj1kOmwwQIECBAgAABAgQIECiXwDe/dd9xl18pxmfx7+hjN6xLkvyyW56Z7ViK8bMVsz8BAgQIECBAgAABAgQIzEogivErz790Vscc686TV+Nfff6Jrddd1bcqXdy+7KKrPr39R/vfyDJ29CJ7FFz0pPo3Dj12S9h/1YZ1tzTu3Kqr061UD92rrLp7X77e+8ahx2675vwPrY1D/tpl66+5+R8PZc/DCwE+W5afvNgykrYwun/P8Bc/uzm7tJM/tHnjbXtfejt3abu3JNMHuSf/texq1FT/pg3L+uJT9K3tW3/NzXtea3WlucbzF+I1AQIECBAgQIAAAQIECJRWoHti/NE9Xw0L2hueOXfWVYMv1hNpPcY/uveLFzXE5lrloi0jv63v3CrctszG+UMOfn190uxVg/83bH/x+395QdO5qrW+m/e+Go/91DF+/7evStfqN1zax4afz5L8jGL8weHPpYsF8g3mkn/ocGk/ka2GzEURIECAAAECBAgQIECAQCrQLTH++aEQdC+6fuueF1565bWX/u/Phm/ZfHKSey+4e1+Iu1mMX7ZqXWXdluHnDr30ymv7n3vii+vSmN331akXw08b48cfuyFpKjyp7si+LyYZ/oLrB/fF30h35ODwF5M4va5/9+jo2PiR37720iuv/c8vpgdufTr69aVXjibl+v1Dm09ef9PgnhdePRK5H3nlmcGQxqM1BUnknkGMP/KPNybpve+LTzz/2+i8o0cOPfvoHf3Dc/nqPoGZAAECBAgQIECAAAECBEon0B0x/siPPp0sEb+gsZb+7F1piX7jrnTdeBbjK7lsH7n/dm9/shq/b8tIyPytxmP6GB9K62mMf3Z70odNW58LkXtsfPTtZ25MTnfdE01L60P+DyXxIy8fSor29f68OHR+PENxzl0vpBtnEOOza6+H/3CKesu2ECBAgAABAgQIECBAgEDvCnRHjN+T3ha+7uGme7xffmRdUpC/YW+SVLMo27zzvq8mFfLGFF2MuNPG+NeGP5Wvxh8a/Fj86/qh54ufg7Ro35fdAD/ekP8L533j6PP7fnT/9ju+eN1V56wNd7ZXa5WB9LpGZxDjR/fdsSzRiNYsHDwy1WxFbsah2O1Cr7xFgAABAgQIECBAgAABAqUS6IoYnyXzVkXmxtQ9xc5TvJXLro0N5t5Kom8os1dveizKyWH/JD+3+HP6GP/qvrvPr38pfTQpsCx9VN4sY/zY0ZGbN9Tviu9bu+aWJ559VWInQIAAAQIECBAgQIAAgcUisBAx/um7k5Jy9mC2KeN3SNHha96n2Dm8taGw+r1xWqWxwcYYn1W8v/ijeLV82L9FgE+K9tPF+AOPrEluGVi35f59L7z0anxPe/Y8/FlV4+NrefX5J27+7Kb0qQHVWqVv0437jjZeReNVL5YPNAcCBAgQIECAAAECBAj0tsACxPiXHr4mqSd/+gdxoB0bH/2nm5ItzevkR1/5/sYkP9+8LxmJkNVr9cPTyDr6P69LcvU1w69MkVpDLA/zAoUBfvuFrZcljay78emkkfDg+pb7F9Nyy0X1z39rc3x1xcmFcG/87BbV50935NCeoev7EpyG78bL7+Y1AQIECBAgQIAAAQIECPSQQMdjfD0nX3P/yyFsZ1n9gjv2FL8lPnvE3af/Mc38WYyvfOqR/fmbw18cWpNk2mny9uQx/tV9N2aPux9Iv0ludGx8zy3JLffFR9y1+hC0jPHZxq/nvjYvZPvZLqoPYuHsjQ/VD9sLcxM2EiBAgAABAgQIECBAgECvCHQmxh+8f+DGrQ//6LGH794Yvul92cDe7AHvo2Pj4el0tcq66IvZGr9w7mOP7A/i9RhfrfV9bmjkF9FXuz2/Zyh8r3v6DXCT59gQ49fedP8//uix5Ofhof7cMvW+z32//nXuY+Oj2QL4szbf+OjP9sdfI3fk1dee3/fIzZ+98f4D9WidXcWaO5/Z/8prz377+/vGxrMOp98Sd+TQsw/fmFbRZ/mIu/3DN/UP7X0+WZY/NvrqL574dPJNeKrx4eMx+bjXh8k+BAgQIECAAAECBAgQKK9Ah2L84IZkpXr4c93de35bjFVvH/qfN+Qe3pa/Eb24c5aK+796d19yz3lu576b61X0SUYlxPjcUbmHxm34y6FnXs0X+eN8+PyusHy98ajiU/Gfvruez6M949vmf/tE+nV69WPX9Q/dna4dmM298dm11zsctbmuf7d744sfJ6meAAECBAgQIECAAAECPSrQmRh/6P7Prk2S58kfuqp/aN9LTTk5jtyj+/cM92/asCx5qHvf2r7119z86AsNoTqLsv27x1999pH+Tevih72tXbb+mpv/8VC+wj+LGL9qwzmbbtz68DP7i0v68y0cOfCjrddd1Zd8V3y1dvKHNpz/2TsG9zSe8aV/umNd+hT6tcs2DT+bfG5e3nvzZzctiycdlq27cfDp1+oV/tnE+CPPff+Ln92c78O6geGRA+ERAz36Gc2PgtcECBAgQIAAAQIECBBY5AKdifEqpQQIECBAgAABAgQIECBAgMA8CIjx84C4yKeCXD4BAgQIECBAgAABAgQIdExAjBfjCRAgQIAAAQIECBAgQIBAaQTE+NIMVcemdpyIAAECBAgQIECAAAECBLpWQIwX4wkQIECAAAECBAgQIECAQGkExPjSDFXXTgXpGAECBAgQIECAAAECBAh0TOCb3/rWcSvPv7Rj53MiAgQIECBAgAABAgQIECBAYM4CYrxqPAECBAgQIECAAAECBAgQKI2AGF+aoZrzVI0DCRAgQIAAAQIECBAgQKBnBMR4MZ4AAQIECBAgQIAAAQIECJRGQIwvzVD1zNSRCyFAgAABAgQIECBAgACBOQuI8WI8AQIECBAgQIAAAQIECBAojYAYX5qhmvNUjQMJECBAgAABAgQIECBAoGcExHgxngABAgQIECBAgAABAgQIlEZAjC/NUPXM1JELIUCAAAECBAgQIECAAIE5C4jxYjwBAgQIECBAgAABAgQIECiNgBhfmqGa81SNAwkQIECAAAECBAgQIECgZwTEeDGeAAECBAgQIECAAAECBAiURkCML81Q9czUkQshQIAAAQIECBAgQIAAgTkLiPFiPAECBAgQIECAAAECBAgQKI2AGF+aoZrzVI0DCRAgQIAAAQIECBAgQKBnBMR4MZ4AAQIECBAgQIAAAQIECJRGQIwvzVD1zNSRCyFAgAABAgQIECBAgACBOQuI8WI8AQIECBAgQIAAAQIECBAojYAYX5qhmvNUjQMJECBAgAABAgQIECBAoGcExHgxngABAgQIECBAgAABAgQIlEZAjC/NUPXM1JELIUCAAAECBAgQIECAAIE5C4jxYjwBAgQIECBAgAABAgQIECiNgBhfmqGa81SNAwkQIECAAAECBAgQIECgZwTu/eY3j1t5/qU9cz0uhAABAgQIECBAgAABAgQI9LCAGK8aT4AAAQIECBAgQIAAAQIESiMgxpdmqHp4MsmlESBAgAABAgQIECBAgMAMBcR4MZ4AAQIECBAgQIAAAQIECJRGQIwvzVDNcGLGbgQIECBAgAABAgQIECDQwwJivBhPgAABAgQIECBAgAABAgRKIyDGl2aoengyyaURIECAAAECBAgQIECAwAwFxHgxngABAgQIECBAgAABAgQIlEZAjC/NUM1wYsZuBAgQIECAAAECBAgQINDDAmK8GE+AAAECBAgQIECAAAECBEojIMaXZqh6eDLJpREgQIAAAQIECBAgQIDADAXEeDGeAAECBAgQIECAAAECBAiURkCML81QzXBixm4ECBAgQIAAAQIECBAg0MMCYrwYT4AAAQIECBAgQIAAAQIESiMgxpdmqHp4MsmlESBAgAABAgQIECBAgMAMBcR4MZ4AAQIECBAgQIAAAQIECJRGQIwvzVDNcGLGbgQIECBAgAABAgQIECDQwwJivBhPgAABAgQIECBAgAABAgRKIyDGl2aoengyyaURIECAAAECBAgQIECAwAwFxHgxngABAgQIECBAgAABAgQIlEZAjC/NUM1wYsZuBAgQIECAAAECBAgQINDDAmK8GE+AAAECBAgQIECAAAECBEojIMaXZqh6eDLJpREgQIAAAQIECBAgQIDADAXEeDGeAAECBAgQIECAAAECBAiURkCML81QzXBixm4ECBAgQIAAAQIECBAg0MMCYrwYT4AAAQIECBAgQIAAAQIESiMgxpdmqHp4MsmlESBAgAABAgQIECBAgMAMBcR4MZ4AAQIECBAgQIAAAQIECJRGQIwvzVDNcGLGbgQIECBAgAABAgQIECDQwwJivBhPgAABAgQIECBAgAABAgRKIyDGl2aoengyyaURIECAAAECBAgQIECAwAwFxHgxngABAgQIECBAgAABAgQIlEZAjC/NUM1wYsZuBAgQIECAAAECBAgQINDDAlGMv+/+oR6+QpdGgAABAgQIECBAgAABAgR6RiCK8UP/8EDPXI8LIUCAAAECBAgQIECAAAECPSwQxfhvP/hQD1+hSyNAgAABAgQIECBAgAABAj0jEMX4h4Z39sz1uBACBAgQIECAAAECBAgQINDDAlGMH975cPmv8ODghlplYG/5L8Qj9wgQIECAAAECBAgQIECAwKQCUYzf+Z3vdiD97h/aXNkwvH8s7sqB4TXVWqXws2UkeWvaP4vHrhk6GHdejJ90jDswuE5BgAABAgQIECBAgAABAp0RiGL8dx5ekBi/efBAPXlGIb9aC5m8vr1RYfeWSjV34IHh/jTGT37ItPMCdiBAgAABAgQIECBAgAABAiUR6JYYH8X1hojeSnBkYAZRv9WBjdMB9iFAgAABAgQIECBAgAABAiUUWMBF9bmiegoXLYxPCvJxcb7FMvuRgVp9ZX6Bu+HY4or9cM98UvNPFvP3704L+JO3qcJPgAABAgQIECBAgAABAgS6S2Dw3gW7N745xo9HiTqO3JPF+NGxvf3RHfXNCb8e4/OF96idcEN+/vVofIN9kuTF+LyY1wQIECBAgAABAgQIECDQzQLdFeOjpB0q51OoRcG7Mcy3ivGFVfp7+/M31Y/VpwymOJG3CBAgQIAAAQIECBAgQIBAVwl0V4zPqvEzMUrCfFgb3xzjo7p9/Zl5xefbpw/Jn8GUwUx6Yh8CBAgQIECAAAECBAgQINAZga6K8VEUD7F8Rvce5NbJN8b4xhmBKMY3L8Wf0Vk6MxLOQoAAAQIECBAgQIAAAQIEphXoohify+QzTtfRsvkknBdjfH171lRUnJ/VHMG0dnYgQIAAAQIECBAgQIAAAQIdFuiSGB+F8BDIo+AdRfpWxfORgXxFPT4qXRifi/G5x9flNeNF+PXD9w9tSb64PtoeHoOX399rAgQIECBAgAABAgQIECDQbQILGOML3wlXv4k9/hq5yWP8ZEdlMT6ZESjslj02L7mdvuHGeDG+2z6U+kOAAAECBAgQIECAAAECkwl0LsZP1gPbCRAgQIAAAQIECBAgQIAAgRkKiPHZzfNeECBAgAABAgQIECBAgACBbhcQ47t9hGY4H2M3AgQIECBAgAABAgQIEFgMAmK8GE+AAAECBAgQIECAAAECBEojIMaXZqgWw6ySayRAgAABAgQIECBAgACBqQXEeDGeAAECBAgQIECAAAECBAiURkCML81QTT0f410CBAgQIECAAAECBAgQWAwCYrwYT4AAAQIECBAgQIAAAQIESiMgxpdmqBbDrJJrJECAAAECBAgQIECAAIGpBcR4MZ4AAQIECBAgQIAAAQIECJRGQIwvzVBNPR/jXQIECBAgQIAAAQIECBBYDAJivBhPgAABAgQIECBAgAABAgRKIyDGl2aoFsOskmskQIAAAQIECBAgQIAAgakFxHgxngABAgQIECBAgAABAgQIlEZAjC/NUE09H+NdAgQIECBAgAABAgQIEFgMAp2J8QcHN9Qq1ZY/mwcPdFGQHhkInRzYuxiG3zUSIECAAAECBAgQIECAQLkEFkuM3z+0OZpHmCac7+2vzzVsGRnrovmFcn2q9JYAAQIECBAgQIAAAQIE2iTQmRhfz8NpnK52OCSH5QBTxvi0bxs2r4nDfP/uerfbpK9ZAgQIECBAgAABAgQIECAwK4GFj/H1dexxeF4zdDC9gAPDIU4nRfJ0+X19/w3DI0mNPTcpUH+3WkubCu1kq/rrpyjU29Oov2boYNrIlJl/Vsp2JkCAAAECBAgQIECAAAEC8yKw4DE+1Mnrq9kni99RjM+n9CyWV9IYP0lTM4zx6W7xZMHuLXHj3XXf/ryMt0YIECBAgAABAgQIECBAoNQCCx7jCwvX05S+YXj/2PhoFr+TX3NbQjk9u5U9XqLfkL2TX9NjQ8KfvMAeVtTHpx5LWw4nKnSy1OOt8wQIECBAgAABAgQIECBQaoGFj/HhbvnwiPhqrVKM8fUs3RDUx8bDsVGMD69z7UQV/uQm/GljfGNuL0woFNbei/QECBAgQIAAAQIECBAgQGDBBBY6xqfJPH2GfCE8h2p89qi5ENTra93DliirT7LePtl5uhifdSO3tt+6+lJPUOk8AQIECBAgQIAAAQIEelJggWN8msPTte4hbBer8VmMHw1hO9TnC4vqQ6Svh/zcgIWWJ1lUP8kUQFTYD+dasImW3FXoAwECBAgQIECAAAECBAgsdoHuiPENNfDJYvxYSOMN+6cr57NUX19Xn00B5IN6UzIPBxZCfjhXenf9Yv+gmE0gQIAAAQIECBAgQIAAgW4QWOAYP5pbDF//prdJY/z4aHj4XFInDxX45Ab48dGmnJ/F+IYD8/ShkVpu5yi0T7Y9f6zXBAgQIECAAAECBAgQIECgkwKdjvHzem0K5tYIECBAgAABAgQIECBAgMDiEohi/Ce2fnde03UbBUcGssJ7vVretEi+jR0oC5R+EiBAgAABAgQIECBAgEBPCpQuxtfve4+fJB++nc53whEgQIAAAQIECBAgQIAAgUUgUO4Yrw7fk3NLLooAAQIECBAgQIAAAQIEJhMoWYyf7DJsJ0CAAAECBAgQIECAAAECi0FAjHcjPQECBAgQIECAAAECBAgQKI2AGF+aoVoMs0qukQABAgQIECBAgAABAgSmFhDjxXgCBAgQIECAAAECBAgQIFAagcF77z3uEzffPnXW9y4BAgQIECBAgAABAgQIECDQDQJRjP/QxZd3Q1f0gQABAgQIECBAgAABAgQIEJhaIIrxKy/5wtQ7eZcAAQIECBAgQIAAAQIECBDoBoEoxl/+lQe6oSv6QIAAAQIECBAgQIAAAQIECEwtEN8bv/W7U+/kXQIECBAgQIAAAQIECBAgQKAbBMT40jyNsBs+LvpAgAABAgQIECBAgAABAgsrEMX4TbfsXNhOODsBAgQIECBAgAABAgQIECAwE4Eoxq/8i/8xk13tQ4AAAQIECBAgQIAAAQIECCysQBzjz790YTvh7AQIECBAgAABAgQIECBAgMBMBOJ74//aF865Q54AAQIECBAgQIAAAQIECJRAII7xnlQ/VoKhmsmsjH0IECBAgAABAgQIECBAoLcFohi/8zu+cE6MJ0CAAAECBAgQIECAAAECJRAQ40swSL09k+TqCBAgQIAAAQIECBAgQGDmAmK8GE+AAAECBAgQIECAAAECBEojIMaXZqhmPjdjTwIECBAgQIAAAQIECBDoVQExXownQIAAAQIECBAgQIAAAQKlERDjSzNUvTqT5LoIECBAgAABAgQIECBAYOYCYrwYT4AAAQIECBAgQIAAAQIESiMgxpdmqGY+N2NPAgQIECBAgAABAgQIEOhVATFejCdAgAABAgQIECBAgAABAqURiGL88M6He3WWwnURIECAAAECBAgQIECAAIFeEvjG4KAYX5pJl1765LkWAgQIECBAgAABAgQIEJiDgBgvwxMgQIAAAQIECBAgQIAAgdIIiPGlGao5TNI4hAABAgQIECBAgAABAgR6TECMF+MJECBAgAABAgQIECBAgEBpBMT40gxVj00guRwCBAgQIECAAAECBAgQmIOAGC/GEyBAgAABAgQIECBAgACB0giI8aUZqjlM0jiEAAECBAgQIECAAAECBHpMQIwX4wkQIECAAAECBAgQIECAQGkExPjSDFWPTSC5HAIECBAgQIAAAQIECBCYg4AYL8YTIECAAAECBAgQIECAAIHSCPRYjN/bX61VqrX+3fM7AG1qdn47qTUCBAgQIECAAAECBAgQ6H2BzsX4kYEoYDf8zHPe3r0laX/N0ME5rEyY9JA2NTvW+x+vSUldOwECBAgQIECAAAECBAjMSWCBY3ycureMzKnro2Pj+4c2Ry0M7A1xcX7K5m1qNnRSeidAgAABAgQIECBAgAABAnMU6HiM3zC8Pw3tBwc3hOJ8PYfP6jJCC3M8fLJztanZyU5nOwECBAgQIECAAAECBAgQmKnAAsb48dGxEJir9YJ8fu19bm18tmec/DcM7z8wvKa4RD/aOWxM1uqnTRV23jx4IKXJn6hSraXnCi1ki/+bm42L6mnZP92tPo+Qbl8zdDAt6VdrlfrMRfJuvQ/q8wQIECBAgAABAgQIECBAYFYCCxvjw6r4apJsi1k9Tulxum7aXkjmaUm/OW+HGL+5EPjTUN3UZpLkZxLjw63yWdSPXqTNhhi/IV7tHyYakjmCLNgnv85qnOxMgAABAgQIECBAgAABAgRGx8a7Kcan8TgUq5Nfo3gcsnHjg+tCFM+K4SGEF6rx4cH1ofwe2s/dkB8Cf7Lgf+pmw7tZjT2k+vikaVcriYN3GAAAIABJREFU6fqC8Gsh5LfogM8iAQIECBAgQIAAAQIECBCYiUAXxfisWF2ocsd5OCTwsKK+4e76qWN8Y95OU3SL06V7hqDeutnmOYX8lvzraPV+cYJgprc6zGTk7EOAAAECBAgQIECAAAECi1BgYWN8oVhdyOphOXolXW+fLb9PltAnUXzqvN0UofPV/lBCT55yXwzbUzYbCv65hfH56J5/LcabtiBAgAABAgQIECBAgACBeRZYwBgfMnx4vFwoj0+55jyk6HgF+5R5u7kSnovx6bnSentoZ0bV+Iadx0fDjEB+UX0W8osTBMklT3mBuaX+i3BWySUTIECAAAECBAgQIECAwNQCUYx/aPg7U+80L+9OUmxv8a3v+UX1+Wyc254+2T7fZpScCyF/qmp8mDJIH4+XthyW30/dbJbbc/1pesRduI2/EOND4M9C/rzAaoQAAQIECBAgQIAAAQIEFo/Ajm8sZIyvf89cEA+17rCovlWMzx9VLOnPOMbX71qP1wIUwnZUD5+q2air4URJks/F8vTAbEuxZdX4eV5MEj42miVAgAABAgQIECBAgMBiEehcjJe4CBAgQIAAAQIECBAgQIAAgWMUEOMXy4TNMX5QHE6AAAECBAgQIECAAAEC3SAgxovxBAgQIECAAAECBAgQIECgNAJifGmGqhtmffSBAAECBAgQIECAAAECBBZWQIwX4wkQIECAAAECBAgQIECAQGkExPjSDNXCzvc4OwECBAgQIECAAAECBAh0g4AYL8YTIECAAAECBAgQIECAAIHSCIjxpRmqbpj10QcCBAgQIECAAAECBAgQWFgBMV6MJ0CAAAECBAgQIECAAAECpREQ40szVAs73+PsBAgQIECAAAECBAgQINANAmK8GE+AAAECBAgQIECAAAECBEojIMaXZqi6YdZHHwgQIECAAAECBAgQIEBgYQXEeDGeAAECBAgQIECAAAECBAiURkCML81QLex8j7MTIECAAAECBAgQIECAQDcIdC7GjwzUKtXiz4bh/WO9lqL3D22uDOzthqHVBwIECBAgQIAAAQIECBDoPYEFjfFRqt8y0lNJfm9/dfPggV6bm+i9z70rIkCAAAECBAgQIECAQEkFOh7jQwU+qlrHxfn+3T0UendvqYQLLOkHQrcJECBAgAABAgQIECBAoJsFFizGjx4YXhPH+DVDB7PX/bv39kcbs4J28mtYil9crF5fpb9heCSdFIhr+6HlxtbC9nj6oL4KIJtQiLenp261saFvzbMPBwc31HpqVqKnFko0j5ctBAgQIECAAAECBAgQKJ/AgsX4LCdHubcQsEOM372l8V76ai2rddczfDwXEPYsxPiwMU7mLVqLds66kd956o3RvEPLfBtdRX12oPU+LQ+0kQABAgQIECBAgAABAgQIzEyg4zG+kLpDLM9ifH1FelTZjqJ1tiXk8HzsD4k6K9oXY3x27FhoLa3np7/27x5PpwPqe0YzMS03jo5NU40fGaiF/pRvOsekAwECBAgQIECAAAECBAiUQmD7jm8c99DwdzrQ1+b6eT30hhhf35Jm5nwwTrN6tE8a6bO191lRvRDjm1sLJfd0lX6uqWRLaDBMGcT7h43TzIt4uJ3JCwIECBAgQIAAAQIECBBou0DHY3yx7p1OH4QYX7+xPGxpjuJrhg6GRe/1gB22FGJ8c2sNMT79ZrhwruTd9IwtN06e5KMOFG/d78DMiFMQIECAAAECBAgQIECAwGIT6NYYny2Dz2J/qJBH4Ty8DiG/9aL6eowPtf0pk3bDwvtkBiW/cYpF9dFuudO1ffZlsX1MXS8BAgQIECBAgAABAgQIJAJdG+PrWb1QQk9TfUjXDXfaJ0+YC4X0fK4O5frw0Ptw133zUv/6DfO5xlvNHeSyuu+Zm3ydgr9pBAgQIECAAAECBAgQIDCPAl0c48can2Afau9Jfs4q8NH98yGlT7KoPgmZoYafzgvEMwINMT5J/i03TvGIOw+3m8dPpKYIECBAgAABAgQIECBAYAqBzsX4KTpxzG+F4ny2Ar+TxeGo+B9PH3TypM5FgAABAgQIECBAgAABAotSoKwxfmSgnpxDKT7/WPvcivc2j2tUuvdwuzYjH/NET+c+D7pKgAABAgQIECBAgACBtgqUN8bn7nJPbmJfkFK8+EqAAAECBAgQIECAAAECBDoo0CMxvnjbvNIrAQIECBAgQIAAAQIECBDoTYGyxvi2LlHQOAECBAgQIECAAAECBAgQ6E4BMb43p2e689OmVwQIECBAgAABAgQIECBwjAJivBhPgAABAgQIECBAgAABAgRKIyDGl2aojnHCxuEECBAgQIAAAQIECBAg0AMCYrwYT4AAAQIECBAgQIAAAQIESiMgxpdmqHpg0sglECBAgAABAgQIECBAgMAxCkQxfuV5lxxjKw4nQIAAAQIECBAgQIAAAQIEOiCgGq8aT4AAAQIECBAgQIAAAQIESiMgxpdmqDowqeMUBAgQIECAAAECBAgQINDlAmK8GE+AAAECBAgQIECAAAECBEojUOoYv7e/WqtUa2uGDnb5ZInuESBAgAABAgQIECBAgACBeRGIYvzK8/rnpa2pGxkZiCJ3ZcPw/rH6JMf+oc3RxuqWkdzGqdvJvSvG1yVzLDYSIECAAAECBAgQIECAQM8KRDH+1k934kn1YrykTYAAAQIECBAgQIAAAQIEjlGgc4vqxfhjHCqHEyBAgAABAgQIECBAgACBLovxu7fEa+zj5ffFFfhh+X3y1ubBA+OjY/VF9fV3s0X7SVPZr3NZtN+zazB87gkQIECAAAECBAgQIECgpAJJjB/sQO/Tanz8ULpCVs/dG19P49lucQ5v2l6I8Q2txU+8Ozi4IR/4BXICBAgQIECAAAECBAgQINALAlGMX3leB++Nz/J54UWrR9yllfkosbdckJ9V48MT8tLifGVgbzQroRpvAQIBAgQIECBAgAABAgQI9JxAly2qPzC8phDva5VqXHgvLLZPSvGFRfXxaoJQgbeQvuc+ph1YLeIUBAgQIECAAAECBAgQKIVAV8X4UE5Pvn8uV42PKIsJP145X783PrYW43thfUgp/troJAECBAgQIECAAAECBBZKoJtifBrU0wX24X74rPaeZNSQ1aOV81PGeIvq1eQJECBAgAABAgQIECBAoOcEujDGh8fUp6vrc/fG59bb9++eZlF9eKJewyyAejUBAgQIECBAgAABAgQIECixQDfF+Oy5dMlXzeUW1YdMnib8OMNPE+M94m6hFng4LwECBAgQIECAAAECBAi0T6BzMb5916BlAgQIECBAgAABAgQIECCwSATE+BIvpVgkn1GXSYAAAQIECBAgQIAAAQKZgBgvxhMgQIAAAQIECBAgQIAAgdIIiPGlGaps6sULAgQIECBAgAABAgQIEFi0AmK8GE+AAAECBAgQIECAAAECBEojIMaXZqgW7VSTCydAgAABAgQIECBAgACBTECMF+MJECBAgAABAgQIECBAgEBpBMT40gxVNvXiBQECBAgQIECAAAECBAgsWgExXownQIAAAQIECBAgQIAAAQKlERDjSzNUi3aqyYUTIECAAAECBAgQIECAQCYQxfgHH9qZ/e4FAQIECBAgQIAAAQIECBAg0LUC23fsEOMV5AkQIECAAAECBAgQIECAQDkExPhyjFPXzgPpGAECBAgQIECAAAECBAh0UiCK8WevH+jkKZ2LAAECBAgQIECAAAECBAgQmJtAHOPPu2RuBzuKAAECBAgQIECAAAECBAgQ6KRAsqh+a5tPeXBwQ61SbfmzefBAFyxr372luXv9u7ugY2P6QIAAAQIECBAgQIAAAQIE6gKduTd+4WP8/qHNUVAf2Nt6wqJVjK9Ua2uGDrbeX7omQIAAAQIECBAgQIAAAQILIdCZGF+fNkjjdHXLSEevNswjTBPjw9KAA8NrkrUDk+3f0c7X9cwpECBAgAABAgQIECBAgMAiF+jMovp6EG2O8SMDhcX29QJ4yNL9u/f2R6E6zdj1/TcMjyQ19tykQP3drJYe2smWzddPkaXxtBofYnwozltXv8j/erh8AgQIECBAgAABAgQIdJtAFOPP7uAj7ppifKiT5+6cT2N2Y/yOMnY+pWexvJLG+Emaamyn1VL5kNub2qxPQHTbyOkPAQIECBAgQIAAAQIECCxCgSjGX3bDNzp25U0xvpCT05S+YXj/2PhoFr+TX3NbQjk9qdLX0hjfsqKeHhsS/mSL5FvE+Hr9v2M4TkSAAAECBAgQIECAAAECBKYWSBbVL2SMD8E+t7S+GONDaB8fbQjqY+Ph2OhO+/A6105U4U9uwp9hjA+L6sfCBEE2g5Atv/eCAAECBAgQIECAAAECBAgsnEAU47ff8LGps/48vhvCdnjEXVYGj+vkLavx2Q3q4dgsbGfRPWptkvX2yc6zjfFZa6GfCzdC84ivKQIECBAgQIAAAQIECBAou8AC3xufJvN0rXsI28VqfBbjQzU+u7k91MzjkntzyM+NTWh5mkX12QRBoeVcO4VbAGwnQIAAAQIECBAgQIAAAQIdFuiOGJ97vl30kLnJYvxYSOMN+6cr57PsXV9Xn00B5Gv19VX6WY09WxRQbLnFntkhXhAgQIAAAQIECBAgQIAAgY4LJPfG7+zY5EGomdcXq2cBe83QwakX1cedrGf1NUMHm1przPlZjB/NbnfPvogub90qxueOVYQnQIAAAQIECBAgQIAAAQJdIdDpGD+v8wUhtHsQXX5KwmsCBAgQIECAAAECBAgQ6F2BksX4kYF6GT+U4rNb5btiXmRe5ylcEQECBAgQIECAAAECBAgQKAiULsbX73uP7qLPbqTv3YkW8wIECBAgQIAAAQIECBAgQCATKHeM9wi6bCC9IECAAAECBAgQIECAAIHFIFCyGL8YhsQ1EiBAgAABAgQIECBAgACByQTE+MI9BpMx2U6AAAECBAgQIECAAAECBLpB4J7t24978KHOfeFcN1yzPhAgQIAAAQIECBAgQIAAgZIKiPGq8QQIECBAgAABAgQIECBAoDQCYnxphqqkE0W6TYAAAQIECBAgQIAAAQLzKCDGi/EECBAgQIAAAQIECBAgQKA0AmJ8aYZqHidvNEWAAAECBAgQIECAAAECJRUQ48V4AgQIECBAgAABAgQIECBQGgExvjRDVdKJIt0mQIAAAQIECBAgQIAAgXkUEOPFeAIECBAgQIAAAQIECBAgUBoBMb40QzWPkzeaIkCAAAECBAgQIECAAIGSCojxYjwBAgQIECBAgAABAgQIECiNgBhfmqEq6USRbhMgQIAAAQIECBAgQIDAPAqI8WI8AQIECBAgQIAAAQIECBAojYAYX5qhmsfJG00RIECAAAECBAgQIECAQEkFxHgxngABAgQIECBAgAABAgQIlEZAjC/NUJV0oki3CRAgQIAAAQIECBAgQGAeBcR4MZ4AAQIECBAgQIAAAQIECJRGQIwvzVDN4+SNpggQIECAAAECBAgQIECgpAJivBhPgAABAgQIECBAgAABAgRKIyDGl2aoSjpRpNsECBAgQIAAAQIECBAgMI8CYrwYT4AAAQIECBAgQIAAAQIESiMgxpdmqOZx8kZTBAgQIECAAAECBAgQIFBSATFejCdAgAABAgQIECBAgAABAqUREONLM1QlnSjSbQIECBAgQIAAAQIECBCYRwExXownQIAAAQIECBAgQIAAAQKlERDjSzNU8zh5oykCBAgQIECAAAECBAgQKKmAGC/GEyBAgAABAgQIECBAgACB0giI8aUZqpJOFOk2AQIECBAgQIAAAQIECMyjwD33bD/uwYd2zmOLmiJAgAABAgQIECBAgAABAgTaJHD3PfeI8QryBAgQIECAAAECBAgQIECgHAJifDnGqU2zOJolQIAAAQIECBAgQIAAgXIJiPFiPAECBAgQIECAAAECBAgQKI1AEuO/Ua65B70lQIAAAQIECBAgQIAAAQKLUyCK8Zedd8nivHhXTYAAAQIECBAgQIAAAQIEyiXQYzF+b3+1VqnW+nfP73KINjU7v53UGgECBAgQIECAAAECBAj0vsBdd0dPqu/EovqRgShgN/zMc97evSVpf83QwfmcTWlTs2O9//Gaz1HARYAAAQIECBAgQIAAAQJj43fdffdCxvg4dW8ZmetI7B/aHLUwsDfExfkpm7ep2dBJ6Z0AAQIECBAgQIAAAQIECMxR4Ot3dTjGbxjen4b2g4MbQnG+nsNndRmhhTkePtm52tTsZKeznQABAgQIECBAgAABAgQIzFTg63fd1dlqfD3Gj4+OhcBcrRfk82vvc2vjsz3j5L9heP+B4TXFJfrRzmFjslY/baqw8+bBAylN/kSVai09V2ghW/zf3GxcVE/L/ulu9XmEdPuaoYNpSb9aq9QvOXm33gf1eQIECBAgQIAAAQIECBAgMCuBbV//+nEPPrRzVsfMbed6qM4toQ9ZN0m2xawep/Q4XTdtLyTztKTfnLfDGTcXAn8aqpvaTJL8TGJ8uFU+i/rRi7TZEOM3xKv9w0RDMkcQLjZMGeQc5kbqKAIECBAgQIAAAQIECBBYbALbtnVPjE/jcShWJ79G8Thk48YH14UonhXDQwgvVOPDg+tD+T20n0vRIfAnC/6nbja8m9XYQ6qPT5p2tZKuLwi/FkJ+iw4sto+d6yVAgAABAgQIECBAgACBuQls27atW6rxWbG6UOWO83BI4GFFfcPd9VPH+Ma8naboFqdL9wxBvXWzzXMK+S3519Hq/eIEwUxvdZjbWDqKAAECBAgQIECAAAECBHpe4M4FjfGFYnUhq4fl6JVqy9SdbJw6bzdF6Hy1P5TQk6fcF8P2lM2Ggn+yTj7+fOSje/61GG/aggABAgQIECBAgAABAgTmWeCOOxesGh8yfHi8XCiPT7nmPKToeAX7lHm7uRKei/HpudJ6e2hnRtX4hp3HR8OMQH5RfRbyixMEySVPeYG5pf49P4fkAgkQIECAAAECBAgQIEBgtgK333FHZxfV18vszd82Vw/22br6fDbONoY7z0O9PXsYXiHkh3dbLaoPUwahD0mvwp75dQHNT87LcnuuP02PuAu38RdifAj8Wcif7WjZnwABAgQIECBAgAABAgQWucANN3xpAWN8/XvmwjCEWndI+61ifP6oevJvztuFCD2Wlc3TYniW1dcMHWzcMzxUL/0iuuLsQNTVsCVJ8rlYnvYn21JsWTV+nheThI+NZgkQIECAAAECBAgQILBYBO68884OxXiJiwABAgQIECBAgAABAgQIEDhGATF+sUzYHOMHxeEECBAgQIAAAQIECBAg0A0CYrwYT4AAAQIECBAgQIAAAQIESiMgxpdmqLph1kcfCBAgQIAAAQIECBAgQGBhBcR4MZ4AAQIECBAgQIAAAQIECJRGQIwvzVAt7HyPsxMgQIAAAQIECBAgQIBANwiI8WI8AQIECBAgQIAAAQIECBAojYAYX5qh6oZZH30gQIAAAQIECBAgQIAAgYUVEOPFeAIECBAgQIAAAQIECBAgUBoBMb40Q7Ww8z3OToAAAQIECBAgQIAAAQLdICDGi/EECBAgQIAAAQIECBAgQKA0AmJ8aYaqG2Z99IEAAQIECBAgQIAAAQIEFlYgivG3fPqShe2EsxMgQIAAAQIECBAgQIAAAQIzEYhi/NnnifFq8gQIECBAgAABAgQIECBAoAQCYnwJBmkm8zH2IUCAAAECBAgQIECAAIHFIJDE+I914FJHBmqVavFnw/D+sV5L0fuHNlcG9nbA0ykIECBAgAABAgQIECBAYBEKLGiMj1L9lpGeSvJ7+6ubBw/02tzEIvyL4ZIJECBAgAABAgQIECDQnQKdW1SfVuNDBT6qWsfF+f7dPRR6d2+phAvszvHWKwIECBAgQIAAAQIECBAotcCCxfjRA8Nr4hi/Zuhg9rp/997+aGNW0E5+DUvxi4vV66v0NwyPpJMCcW0/tNzYWtgeTx/UVwFkEwrx9vTUrTY29K159uHg4IZaT81K9NRCiebxsoUAAQIECBAgQIAAAQLlE7jjjjuO+3hHnlQ/VTW+ELBDjN+9pfFe+motq3XXM3w8FxD2LMT4sDFO5i1ai3YuxvX01FNvjOYdWubb6CrqswOt92l5oI0ECBAgQIAAAQIECBAgQGBmAlGMf/ChnR3InK2Dd7IEPYvx9RXpUWU7yuHZlpDDo3J32D8k6qxoX4zx2bFjobW0np/+2r97vGFyIXFouXF0bJpq/MhALfSnfNM5HfgAOAUBAgQIECBAgAABAgQIHLtAFONvWaAYXw+9jbF8PGTmfDBOs3p0VBrps7X3WVG9EOPr7acJPCzODwX8XFPJW6HBMGUQ1/PDxmnmRTzczuQFAQIECBAgQIAAAQIECLRdIIrxZy/EovrCDESI8fUby8OW5ii+ZuhgWPReD9hhSyHGN7cWltmHPJ8U58O5knfTM7bcOHmSjzpQvHW/cIGTH2g3AgQIECBAgAABAgQIECAwc4FujfHZMvhsYXyokEfhPLwOIb/1ovp6jM+q8VMl7YaF98kMSn7jFIvqo91yp2v77MvMB9ieBAgQIECAAAECBAgQINBLAh2/Nz6L5fkCdSh9F5JwyOqFEnp6eEjXYXl82GeSanyLR9mld90337Ffv2E+13iruYNcVvc9c/nR9JoAAQIECBAgQIAAAQIE2ibQxTF+rP4ou8Jy99Qiq8BH989Ps6g+OaRhXiCeEWiI8ck8QsuN4Xb9+kr+bDrHw+0yCi8IECBAgAABAgQIECBAoK0CnYvx7byMUJxvWepv2xRIekXRUoJ4FUC7T6R9AgQIECBAgAABAgQIEFj0AmWN8SMD9eQcSvH5x9rnVry3eYyj0v1Ut9x3riftnChxFQQIECBAgAABAgQIECDQFQLljfHhafPZHewLUopv8xyBZE6AAAECBAgQIECAAAECBPICPRLjwyPru2JqJO/rNQECBAgQIECAAAECBAgQmEeBssb4eSTQFAECBAgQIECAAAECBAgQKIuAGK+AT4AAAQIECBAgQIAAAQIESiMgxpdmqMoyM6SfBAgQIECAAAECBAgQINA+ATFejCdAgAABAgQIECBAgAABAqURuOeee4578KGt7Zsn0DIBAgQIECBAgAABAgQIECAwXwJifGlmXOZryLVDgAABAgQIECBAgAABAuUVEOPFeAIECBAgQIAAAQIECBAgUBoBMb40Q1XeuSI9J0CAAAECBAgQIECAAIH5EhDjxXgCBAgQIECAAAECBAgQIFAagVLH+L391VqlWlszdHC+ZjW0Q4AAAQIECBAgQIAAAQIEulmgczF+ZCCK3JUNw/vH6pMc+4c2RxurW0ZyG2fsJcbXJWeM5hACBAgQIECAAAECBAgQKLGAGF/iwRPdCRAgQIAAAQIECBAgQGCxCYjxYjwBAgQIECBAgAABAgQIECiNQJfF+N1b4jX28fL74gr8sPw+eWvz4IHx0bH6ovr6u9mi/aSp7Ne5LNovzSgutskn10uAAAECBAgQIECAAIFFK9DxGB8/lK6Q1XP3xtfTeLZbnMObthdifENr8RPvDg5uyAd+gZwAAQIECBAgQIAAAQIECPSCQHfF+MJsSlqZjxJ7y8fjZdX48IS8tDhfGdgbtaMabwECAQIECBAgQIAAAQIECPScQBLjdxbyc3susmUUD2X28KT6A8Nrsjp8+iIuvBcW2yel+MKi+rj/oQJvIX17RrADHxKnIECAAAECBAgQIECAAIGpBboqxodyevL9c7lqfHQNxYQfr5yv3xsfX6QY3wvrQ6b+vHqXAAECBAgQIECAAAECi1ygm2J8GtTTynwo1Ge19ySjhqwerZyfMsZbVK8mT4AAAQIECBAgQIAAAQI9J9CFMT48pj63qD5dkJ9bb9+/e5pF9eGQhlkA9WoCBAgQIECAAAECBAgQIFBigW6K8dlz6ZKvmsstqg+ZPE34cYafJsZ7xN0iX2fi8gkQIECAAAECBAgQINCTAldcccVxDz7UiUfc9SSfiyJAgAABAgQIECBAgAABAp0UEONLvJSikx8U5yJAgAABAgQIECBAgACBbhDo3KL6brhafSBAgAABAgQIECBAgAABAqUWEONV4wkQIECAAAECBAgQIECAQGkExPjSDFWpp4t0ngABAgQIECBAgAABAgTmRUCMF+MJECBAgAABAgQIECBAgEBpBMT40gzVvEzbaIQAAQIECBAgQIAAAQIESi0gxovxBAgQIECAAAECBAgQIECgNAJifGmGqtTTRTpPgAABAgQIECBAgAABAvMiIMaL8QQIECBAgAABAgQIECBAoDQCYnxphmpepm00QoAAAQIECBAgQIAAAQKlFhDjxXgCBAgQIECAAAECBAgQIFAaATG+NENV6ukinSdAgAABAgQIECBAgACBeRGIYvzZ6wfmpS2NECBAgAABAgQIECBAgAABAm0ViGP8eZe09RwaJ0CAAAECBAgQIECAAAECBOZFIFlUv3Ve2ur5RkYGapVqrbJheP9YW5bi7x/aHLVfra0ZOphgtvuMPT9kLpAAAQIECBAgQIAAAQI9JtC5e+OzjJok1fDn5sEDbYnEzeMUd2Cy0x0c3BBH9DhFh77ltgzsHT0wvCa827+7LX3OiNIY3/4zNivZQoAAAQIECBAgQIAAAQLdLLBYYnxa1q4eQ4wfG293bbwxxrf/jN380dQ3AgQIECBAgAABAgQIEGgWuPfee4978KFOLKpvzqjNvWnflulifK66ntXA27Z4frLLXFiiyXplOwECBAgQIECAAAECBAh0j0AU48/uyCPuJs+o9QXtucXq2cZ6/TxE8Xit+8DegFjYM7dPOHD3luZF8rkT5QJ8csf7pDF+b3+6qH7LSLTn1OfNdq5Vqsn+uRMVulR/t4koa2QmZ5y+/SCW27M9N/k7EQECBAgQIECAfnjYAAAgAElEQVSAAAECBAi0SSCK8Zfd8I02tZ5vtimj1sNk9lYlC+eNWToLtLn71dNqeRanc2/l83YhM6f7zGuMbz5v05bsurJ18uE2+3iKIZ1xyBzCI+6yq26I8U3t52YKchMZ2W5hRkNoJ0CAAAECBAgQIECAAIGSCySL6jsa4wu18SSKN4b28YZAm0XTNH6HZB7H3VyMT4N9ln5rWVwPLcwg0DZ1JkxGZM02heokpWcHVmvpfER9Syi5h56HCYvQZtzzhqseHQvvpil9Blc6ZfvhQuoTKLYQIECAAAECBAgQIECAQLkEohi//YaPdaDTWUZtEeOLC9Rz69Xj9JuF4XpNO+TbaEs93GahPTtXKGuHp9NN+oi7XLLNTpdOCmRvhZM2hepw3uaeZFuS6YPs15Dq68X5aEtTt6c9Y8Mh07TfgVF2CgIECBAgQIAAAQIECBBoq0A33Bsf5eRigg3xNcntWYW5sBA9XjEeJe0su9Yr7cXWovbbWY3Pztvck4Yt4bqaLySeX2jqdrZ/EvsbWpvcbZL22/pJ0jgBAgQIECBAgAABAgQIdECgW2J8fQH5wN7RkNsbltAXyvhJUhXjhzYnLPG6gyz2Z3fFZy+yuYZscYEXBAgQIECAAAECBAgQIFA+geTe+J0dmDBoKjU3YoWC+Zb+gSR8hpXn2Sr3+qL6/LHT1qijnUPjM0iz2elmuqg+a7O5Jw1bsl/DpRWfrNBElMXyGVbjp2m/A6PsFAQIECBAgAABAgQIECDQVoEuivFZET6tutdDe5ZO64+si5P5DMNtPsbXsrvlJ2VtY4yv3zsQHnEXz0fs3pKsOzjmGD9N+5NecnE2wW4ECBAgQIAAAQIECBAg0LUCCxDjG9bG53J1VnyOqvHhuXFx0M2ideGu71nE+IY5gkLjDSE2O9f8V+Pz3zafLXevX+yxx/j8A//yzlNdb8Pl+5UAAQIECBAgQIAAAQIEuljgtttuO+7Bhzq6qD4fLyvVQnk8LH2vVXJfhB6mQAohP3dgVqvPFrfXi9K5OYL6xsY5gobhaW+MLywNSCnCfMF8xPip2g+S8cxIw1X7lQABAgQIECBAgAABAgTKIPDJT37yuG8/OCzgESBAgAABAgQIECBAgAABAt0vcO2114rxqtMECBAgQIAAAQIECBAgQKAcAldddZUYX46h6v45IT0kQIAAAQIECBAgQIAAgXYL3HXXXWK8GE+AAAECBAgQIECAAAECBMohMDg4KMaXY6jaPaOjfQIECBAgQIAAAQIECBDofgExXoYnQIAAAQIECBAgQIAAAQKlERDjSzNU3T8npIcECBAgQIAAAQIECBAg0G4BMV6MJ0CAAAECBAgQIECAAAECpREQ40szVO2e0dE+AQIECBAgQIAAAQIECHS/gBgvxhMgQIAAAQIECBAgQIAAgdIIiPGlGarunxPSQwIECBAgQIAAAQIECBBot4AYL8YTIECAAAECBAgQIECAAIHSCIjxpRmqds/oaJ8AAQIECBAgQIAAAQIEul9AjBfjCRAgQIAAAQIECBAgQIBAaQTE+NIMVffPCekhAQIECBAgQIAAAQIECLRb4O+uuea4bz843O7TaL/tAgeG11Q3Dx6Y5azE7i2V6paRsVkeZX8CBAgQIECAAAECBAgQWCCBW6+/vkMxfv/Q5kq1tmboYDHQHhzc0LxRqpy9gBi/QH+Fip/n2Q+cbhMgQIAAAQIECBAgQGA2Ap1bVJ/E+EpjxbibY/ze/mqtf3dJgpkYP5vPvexNgAABAgQIECBAgACBkgp0NsZvGB4cqFU2DO+vJy4xfp6mCcT4+odqnkg1SIAAAQIECBAgQIAAge4TmEuMH7j17lPO+fAp53x44Na7Zz57EVXjowAflbhzS+ubYnx0t3Yt/SkE/sZsNjIQdgsV/mjLwN5clwqNN+8f7ZncHB5l4LS1tPye70aoyedaaFmlT063d3BD1FTaTq7lYt/Gw/KE+LxZt/PnzV9+ktJ3J/1M72bPtbB5MHorf2985NySMXcVW0aSy+++z2VuEBvH3VsECBAgQIAAAQIECBBYzAJf/9rXZndv/MCtd9djdrU28yQfYnySnLPAWUjacS7N3hqPA2frB7BFbxWib3xUQyjN/dp6/zTG1xcIxB3IzlhYVF/vf3xUq8X20bUU7hooVMjjd0Ofi5e2tz/ePtXlJ9MBuWDf3NXcqQs9j84VDsy/Hk2nGLLrFZgJECBAgAABAgQIECBAoNsFomr8gw/tnPlMxinnfDgf408558MzPDYfg3NhMh/jC+EzbrZ5Swwa5c98+MwaKewfnSWJzZPu3zCnMD4aLxYIEX2S1iatXReC+uhYNA2RW3cQKv9j43F+rs9WBMDC6RovP47coWMN/cxM0jYj6jBfELUTHRu/lb3ILiE30xG60e0fWf0kQIAAAQIECBAgQIDAYha49957FyDGJ2k5jrhZAk/SZj6cR3myMQkn+TMKn2HFeHiRBOZcgt3bny0yn3z/dFF9Fmsnj/Ghdt0cv7Pcm7uWqME41YfuhQ7HF7h7S1Yer3/4GucaipffkMCbd87tEM1fNJ437nbzecX4+tBn4+gFAQIECBAgQIAAAQIEuldg1jF+HhbV16P45sEDuejbHE2niPFhlXg9BifNZo3kI2v+dUNsa8yx+ZJ4/nUYwnRGoGWYz11LdJbo11z9PLSQrORv7n/W81wP67MYuZQeXXLzzrkd6kflmoqOanZovPxcJxuO9SsBAgQIECBAgAABAgQIdIHArGP86Nj4sT3irh4Uk6X1g/WV582xuXlLfHgusjbG+BCeC1F2iv0bc2z+jPnX9W4n+bywWj4dyIYYH9/bn1/cno136/40ny63peGQ6NfiHEF0IenkQv7+hYJPbp9ke7Rn4faE/GV6TYAAAQIECBAgQIAAAQJdJzCXGF9Ihlk0ne5Fq2wZxdRK7sH1caqsF7pzt9A3wEWBOb8ufWQgtxp/95bKwJb+QjqdfP+pYnwhludOUdie02jaHjWeC9sHhvuHDib7x+vesz5P/oi7rGjfEOPjdQq5BJ5IBro45OcmGtL203X+hTZruUYakP1KgAABAgQIECBAgAABAl0nsLAxPnnqW+E5cHGSD7d2tyxl50rf2R3guciaPv6t8Iy36JA4yYc7xuv7TxXj0+4lUTx/w3n98MLkRVOMz56En543y+3R5yDfYLb2ftLLb4rxxRa2jDTsECf54BPifYPDhuH9jZffdR/Q3CyJvhEgQIAAAQIECBAgQIDAeOdivDxGgAABAgQIECBAgAABAgQIHKOAGG8uhwABAgQIECBAgAABAgQIlEZAjC/NUB3jhI3DCRAgQIAAAQIECBAgQKAHBMR4MZ4AAQIECBAgQIAAAQIECJRG4Nprrz3uwYd29sCEhEsgQIAAAQIECBAgQIAAAQI9L/CFL3xBjC/NpEvPfxxdIAECBAgQIECAAAECBAhMLdC5RfX/+uu3vvDEodXf3H/mjhf9EMgEVn9z/xeeOPSvv35r6k+qdwkQIECAAAECBAgQIEBgdCz9wrlvtNviX3/9lgCfBVcvmgVWf3O/JN/uv4baJ0CAAAECBAgQIECgBwT+6q/+6rjLzruk3VfyhScONSc3WwjkBb7wxKF2fw61T4AAAQIECBAgQIAAgbILRI+460CMV4rP51WvWwqs/ub+sv910n8CBAgQIECAAAECBAi0WyC5N77ti+pbxjYbCTQItPvjrn0CBAgQIECAAAECBAiUXUCM97y9LhIo+18n/SdAgAABAgQIECBAgEC7BcT4LgqxDaXpRfhruz/u2idAgAABAgQIECBAgEDZBcR4Mb6LBMr+10n/CRAgQIAAAQIECBAg0G6BJMbvbPdpFmFh2SXPQaDdn0PtEyBAgAABAgQIECBAoOwCUYz/9oPD7b6MOSQ6hyxCgXZ/DrVPgAABAgQIECBAgACBsgsMDg6K8V20qnwRRvf8JZf9r5P+EyBAgAABAgQIECBAoN0CYrwM30UC7f64a58AAQIECBAgQIAAAQJlF/jSX/yFanwX5dh8aXoRvi77Xyf9J0CAAAECBAgQIECAQLsF7rz1VjFejO8WgXZ/3LVPgAABAgQIECBAgACBsgtYVN8tCXYR1t6bL7nsf530nwABAgQIECBAgAABAu0WEOMnjfGPH52YOPpGc9Tsxi0/GX1r4j+e+Umra5nirR2t9j/2jcdwxnZ/3LVPgAABAgQIECBAgACBsgv0XIyPMmT+v3cfn2subXOMf+NX+W5GryfJ4TPp/xTJeYq3ZtLyHPY5hjOW/a+T/hMgQIAAAQIECBAgQKDdAj0Z4+t5OIri747eM4csuuPFmcX4KI3/6oU5lLWbDnzh3SjLz63+P0VynuKtObFMvxjhGM7Y7o+79gkQIECAAAECBAgQIFB2gR6P8WdGkXKOBflOx/gdL8a9ndOkwBTJeYq3xPix8bL/BdZ/AgQIECBAgAABAgQWm0Cvx/ioxF2P8VEyD/8VS+ivPxPXwpM3k7fyMf6eX//HxMTEW79+vVCLTurnTQ0mO6ebJ62uN1Xj41CdP2mS6tN28msK8udN2k+zen2hfr2r6Vu5C2zoUr61/Fl2vJi/kMYGX0huXkhtc3v+xzPRW/UFEQWx6SYOFttfP9dLgAABAgQIECBAgACB2Qp84hOf6OYvnHv9mV/P8iFzheJzMSr/ZPRXWQ6PsmsWNeP0m4XbF95tjPGFnRvWzxdPkSzFr08cxOG5mI1DrG08MNke5eGw/+NHswmIuJ1CYk+68cav6hsn6hMW+Q5HIPkb7wsXG8fvzCG+j6De+dB4wzKBpMHQyTPTtJ91NW6/btvANc2vs/342p8AAQIECBAgQIAAAQKLTeCaa67p2hj/+jPv1hNmSL/T5MBCBTsKtpPdGF9P0fnknD9LWhiPi9XF0n2+D/V2omMLkwjxbs1b0op08cCsTP3Cuy37XO9k1J8sM4eexNE618ko9qf188a3Xjyz3kJzH5q3JKeYosGmQya95NDb7GKbXiy2v36ulwABAgQIECBAgAABArMV6NpF9XH9OaxXb/V/m6JskgkbMmS+Lh2qyllrWdW9vmI8FyyjGP/uf7w1zRPsiiG2RQiPLiQXsLMoWzwwnLce1+MtUR+y/9IpiVSm0OeGq97RkLqLsyHZztGLRsbHj4b8H3Ug6mT2X25eINdgcyNZ++Gi8pMjU7+e7cfX/gQIECBAgAABAgQI/P/t3c1vVNcZB+D5i/gDWolNZKlFQkZdoLQSLAwqjBobyV/IBqNQIbVsAosUDMYG6to4IaKNSPho+UpKwEBpxLK1orQVLKKiRAihKGxa3ZnB82Hc1L6+4/veeaLZZJg595znXCN+7zn3mECnCeQ2xv/9jSSLNsTF/zMTtmbIeqCtROLFBuspujm4Lsbsyg7zSoxvCsyt3ai3kwTU1DG+3plkIPWD61vi/WLAfn20XosYn1yxXsKoM7buOBDjnZNHgAABAgQIECBAgACBNgrkOcZXknyqZ+OrtYDq8nJz3q6sM1cXyZck5FqSr22qr8Tp5ZN8c7OtRYTXbbOvFQKav1h9s77dvXK8XMMTAa/tZP3N1usun7qrj7LXWl7ah8V3GlpI+tbwvy3Xqvg0bTdo2QHRWvioF0qWrsx3WhXNeAkQIECAAAECBAgQILBSgZzH+P8V+ZaGwOSdlpBZj5QNQbR2EN3iXvcku9Z/YfvSI+4qSXWZJN/U7BuvPeJu8fC8pkC7GJgbqgaNJ8M1RPraA//V7P2qe7Wz5apvtoy6NXU3nH7XPJbKkvviDoXqBoTaaQK1Kkalz5WPvdps33qtJQfjJbvw622+fpqaKOqzvNLb1+cJECBAgAABAgQIECDQaQKFjPGLT3M3xNfmB+P/+beWFF1J8rXv1R4Xb8yxlWPhljkwL8nbyX+LK9KV3fu1tpYJ/62PnSefXpL26+189+LS4gn2ry6XfGVxub41WjcUF6p/VPv9cMmXWrpUjei17jb1oW7y/Mmz5jPzWlN6vav/+e5Sa2fqKf17I32n/fgZLwECBAgQIECAAAECBFYqULgYv8wy7/cGSB/Ig8BKb1+fJ0CAAAECBAgQIECAQKcJJDH+cO/WrIedh4ioD/kXyPo+1D4BAgQIECBAgAABAgSiCyQxvmuzGL+Cjd/5D8Nxexj9x0n/CRAgQIAAAQIECBAgkLWAGC/A50gg69td+wQIECBAgAABAgQIEIguUI3xO7IeRtz1YT1vp0DW96H2CRAgQIAAAQIECBAgEF3g+Lvvlro2i/E5WpFuZ2zO27Wi/zjpPwECBAgQIECAAAECBLIWsKlegM+RQNa3u/YJECBAgAABAgQIECAQXaC6Gu+IuxxF2bytkLezP9F/nPSfAAECBAgQIECAAAECWQskq/G7nFTvt83nQyDr2137BAgQIECAAAECBAgQiC6QxPiZ2bmsh9HOFV3XiiuQ9X2ofQIECBAgQIAAAQIECEQXSGL8YTE+H2vRceP3WvU8+o+T/hMgQIAAAQIECBAgQCBrgb6+vlJX9pvqN00trFXS005RBTZNLWR9u2ufAAECBAgQIECAAAEC0QX6+/vbEeNHrzwuavg0rrUSGL3yOPqPk/4TIECAAAECBAgQIEAga4E2PRv/6MlzC/JrFXcL2c6mqYVHT55nfbtrnwABAgQIECBAgAABAtEF2hTjX3z78tGT56NXHgvzhQzhaQa1aWph9MpjGT76XyX6T4AAAQIECBAgQIBAewTaF+PbMx5XIUCAAAECBAgQIECAAAECBRYQ418WeHYNjQABAgQIECBAgAABAgQKJpCcVN+G3xtfMDXDIUCAAAECBAgQIECAAAEC6yIwMDAgxluQJ0CAAAECBAgQIECAAAECMQRsqo8xT+tS43FRAgQIECBAgAABAgQIEMibgBgvxhMgQIAAAQIECBAgQIAAgTACRw4csKk+zGzlrQikPwQIECBAgAABAgQIECDQZoEjY2Olmdl32nxVlyNAgAABAgQIECBAgAABAgRWIVDdVC/GW5AnQIAAAQIECBAgQIAAAQIBBMT4AJO0ivKMrxAgQIAAAQIECBAgQIBAIQXEeDGeAAECBAgQIECAAAECBAiEERDjw0xVIctIBkWAAAECBAgQIECAAAECKxIQ48V4AgQIECBAgAABAgQIECAQRkCMDzNVKyrP+DABAgQIECBAgAABAgQIFFJAjBfjCRAgQIAAAQIECBAgQIBAGAExPsxUFbKMZFAECBAgQIAAAQIECBAgsCIBMV6MJ0CAAAECBAgQIECAAAECYQTE+DBTtaLyjA8TIECAAAECBAgQIECAQCEFxHgxngABAgQIECBAgAABAgQIhBGoxvi5QpYoDIoAAQIECBAgQIAAAQIECBRMQIwPU3Ep2J1nOAQIECBAgAABAgQIECCwCgExXownQIAAAQIECBAgQIAAAQJhBMT4MFO1iiKNrxAgQIAAAQIECBAgQIBAwQTEeDGeAAECBAgQIECAAAECBAiEERDjw0xVwQpIhkOAAAECBAgQIECAAAECqxAQ48V4AgQIECBAgAABAgQIECAQRmDPnj2lmVm/cC7MhK2iVOMrBAgQIECAAAECBAgQIFAYgf3794vxMjwBAgQIECBAgAABAgQIEIghYFN9jHkqTN3IQAgQIECAAAECBAgQIEAgjYAYL8YTIECAAAECBAgQIECAAIEwAqOjozbVh5mtNAUb3yVAgAABAgQIECBAgACBAgh4Nl6GJ0CAAAECBAgQIECAAAECYQQmJiasxoeZrQLUjQyBAAECBAgQIECAAAECBNIIiPEyPAECBAgQIECAAAECBAgQCCNQLpetxoeZrTQFG98lQIAAAQIECBAgQIAAgQIIDA8Pi/FiPAECBAgQIECAAAECBAgQiCFgU32MeSpAxcgQCBAgQIAAAQIECBAgQCC9gBgvxhMgQIAAAQIECBAgQIAAgTACNtWHmar0NRstECBAgAABAgQIECBAgEB0gZGRkVLXtrejD0P/CRAgQIAAAQIECBAgQIBAJwgkm+q7Nm/thKEaIwECBAgQIECAAAECBAgQiC4gxttUT4AAAQIECBAgQIAAAQIEwgiI8WGmKnrFSP8JECBAgAABAgQIECBAIL2AGC/GEyBAgAABAgQIECBAgACBMAJJjJ+ZnUtfD9ACAQIECBAgQIAAAQIECBAgkLVAEuMP9w5kfRntEyBAgAABAgQIECBAgAABAukFfvnWW6WuzWJ8mO0T6adcCwQIECBAgAABAgQIECAQV+DIoUOlN8cm4g5AzwkQIECAAAECBAgQIECAQOcIeDbeOjwBAgQIECBAgAABAgQIEAgjIMaHmarOqS0ZKQECBAgQIECAAAECBAgsJyDGi/EECBAgQIAAAQIECBAgQCCMgBgfZqqWq8R4nwABAgQIECBAgAABAgQ6R0CMF+MJECBAgAABAgQIECBAgEAYATE+zFR1Tm3JSAkQIECAAAECBAgQIEBgOYHt27eXZmbnlvtj7xMgQIAAAQIECBAgQIAAAQL5ERgbGxPjLcgTIECAAAECBAgQIECAAIEYAjbVx5in/BR+9IQAAQIECBAgQIAAAQIE1lFAjBfjCRAgQIAAAQIECBAgQIBAGAExPsxUrWOxx6UJECBAgAABAgQIECBAICcCYrwYT4AAAQIECBAgQIAAAQIEwgj09PQ44i7MbOWk9qMbBAgQIECAAAECBAgQILBeAvv27RPjxXgCBAgQIECAAAECBAgQIBBDwKb6GPO0XmUe1yVAgAABAgQIECBAgACBXAmI8WI8AQIECBAgQIAAAQIECBAII7Bnz55kU/2GjVu8CBAgQIAAAQIECBAgQIAAgZwL1J6Nz3kvdY8AAQIECBAgQIAAAQIECBDYsHFLbVM9CwIECBAgQIAAAQIECBAgQCD/AkmMP9y7Nf8d1UMCBAgQIECAAAECBAgQIEAgifFdve+AIECAAAECBAgQIECAAAECBPIvUFmNd8SdE/4IECBAgAABAgQIECBAgEAEgcpq/Gab6h3UT4AAAQIECBAgQIAAAQIEAggkMf6E1fgIFZf8b+3QQwIECBAgQIAAAQIECBDIWiCJ8aMn/d74ABWXrG8F7RMgQIAAAQIECBAgQIBA/gUqm+q3vZ3/juohAQIECBAgQIAAAQIECBAgMLx1a2l0m2fjrcYTIECAAAECBAgQIECAAIEAAr/eu7c049l4z8YTIECAAAECBAgQIECAAIEIAuVyWYwPUG6xb4QAAQIECBAgQIAAAQIECGzYuGVoaEiMF+MJECBAgAABAgQIECBAgEAMgeSIO5vqVXQIECBAgAABAgQIECBAgEAIATE+RrklxM2kkwQIECBAgAABAgQIECCQtYAYL8YTIECAAAECBAgQIECAAIEwAkmM7x4Zz7paoH0CBAgQIECAAAECBAgQIEAgvYAYH6bikn6ytUCAAAECBAgQIECAAAEC0QXEeDGeAAECBAgQIECAAAECBAiEERDjw0xV9IqR/hMgQIAAAQIECBAgQIBAegExXownQIAAAQIECBAgQIAAAQJhBMT4MFOVvmajBQIECBAgQIAAAQIECBCILiDGi/EECBAgQIAAAQIECBAgQCCMgBgfZqqiV4z0nwABAgQIECBAgAABAgTSC4jxYjwBAgQIECBAgAABAgQIEAgjUC6XS90j4+nrAVogQIAAAQIECBAgQIAAAQIEshYYGhoS48MUXbK+G7RPgAABAgQIECBAgAABAjkX2LlzpxgvxhMgQIAAAQIECBAgQIAAgRgCAwMDYnyMqcp5QUj3CBAgQIAAAQIECBAgQKANAo64k+EJECBAgAABAgQIECBAgEAYATE+zFS1oajjEgQIECBAgAABAgQIECCQc4He3l6b6iV5AgQIECBAgAABAgQIECAQQ+DQoUNifIypynlBSPcIECBAgAABAgQIECBAoA0CNtXL8AQIECBAgAABAgQIECBAIIyAGB9mqtpQ1HEJAgQIECBAgAABAgQIEMi5gBgvxhMgQIAAAQIECBAgQIAAgTACYnyYqcp5QUj3CBAgQIAAAQIECBAgQKANAmK8GE+AAAECBAgQIECAAAECBMIIJDH+VyPjbSgYuAQBAgQIECBAgAABAgQIECCQUsBqfJiKS8qZ9nUCBAgQIECAAAECBAgQKICAGC/GEyBAgAABAgQIECBAgACBMAJifJipKkDRyBAIECBAgAABAgQIECBAIKWAGC/GEyBAgAABAgQIECBAgACBMALlcrnU7Yi7jWEmLGXZxtcJECBAgAABAgQIECBAILTA8PCwGC/DEyBAgAABAgQIECBAgACBGAI21ceYp9C1Ip0nQIAAAQIECBAgQIAAgbUSEOPFeAIECBAgQIAAAQIECBAgEEZAjA8zVWtVudEOAQIECBAgQIAAAQIECMQVEOPFeAIECBAgQIAAAQIECBAgEEZAjA8zVXFrRXpOgAABAgQIECBAgAABAmslIMaL8QQIECBAgAABAgQIECBAIIyAGB9mqtaqcqMdAgQIECBAgAABAgQIEIgrIMaL8QQIECBAgAABAgQIECBAIIyAGB9mquLWivScAAECBAgQIECAAAECBNZKQIwX4wkQIECAAAECBAgQIECAQBiBcrlc6h4ZX6uqgHYIECBAgAABAgQIECBAgACB7ASGhobE+DBFl+zuAy0TIECAAAECBAgQIECAQAgBm+pleAIECBAgQIAAAQIECBAgEEYgifEzs3MhSg46SYAAAQIECBAgQIAAAQIEOlwgifGz597rcAXDJ0CAAAECBAgQIECAAAECIQTE+DAbJ0LcTzpJgAABAgQIECBAgAABApkKJDH+vffP//DHP830MhonQIAAAQIECBAgQIAAAQIEUgr84EdvTk5Olv7w4cWfbP9FyrZ8nQABAgQIECBAgAABAgQIEMhUoPtnPyO6OLwAAAGjSURBVJ+eni5duvLHP382/+Lbl14ECBAgQIAAAQIECBAgQIBAbgVu3Pp0bm6udOvT2+fm3v/q31/ntqM6RoAAAQIECBAgQIAAAQIEOlzgH/96snv37h07dpTm7/3l8tU/Xbt+s8NFDJ8AAQIECBAgQIAAAQIECORW4Njx8aNHj+7du7d07/7DO/P3L/z+w2vXb1mTz+2E6RgBAgQIECBAgAABAgQIdKbAV0+/uXb95q5du/r7+w8cOFC6/+Cvd+89+OzuvY8vX52ZOffg4ecLX3z59Otnnalj1AQIECBAgAABAgQIECBAIA8CT79+tvDFlw8efj4zc+7jy1e7u7sHBwcPHjyYrMbfvffgzvz923fmb9z85OJHl85/cOG30zNnzk5PnT47OXVmBa/J05OZvU6dmgr6mpiYDPo6cXIi4mv8xEmvNgscOz7u1U6B3xw77kWAAIEoAu386zHKtY6Pn8ju1eZ/A6zh5SL+szPrPmcaIoJmq1OnprKLnJm3vJJwPXX67Jmz09O/mz3/wYWLH126cfOT23fme3p6BgcH+/r6/guNYv6RXSINJAAAAABJRU5ErkJggg==;" vertex="1" parent="1">
          <mxGeometry x="1480" y="50" width="1346" height="921" as="geometry" />
        </mxCell>
        <mxCell id="phIce4MepkweM39JQGYu-14" value="&lt;font style=&quot;font-size: 28px;&quot;&gt;Pending&lt;/font&gt;" style="rounded=0;whiteSpace=wrap;html=1;strokeWidth=15;" vertex="1" parent="1">
          <mxGeometry x="1760" y="400" width="370" height="480" as="geometry" />
        </mxCell>
        <mxCell id="phIce4MepkweM39JQGYu-15" value="&lt;font style=&quot;font-size: 28px;&quot;&gt;Copied&lt;/font&gt;" style="rounded=0;whiteSpace=wrap;html=1;strokeWidth=15;" vertex="1" parent="1">
          <mxGeometry x="2200" y="405" width="560" height="470" as="geometry" />
        </mxCell>
        <mxCell id="phIce4MepkweM39JQGYu-18" value="&lt;span style=&quot;font-size: 18px;&quot;&gt;Transactions View&lt;/span&gt;" style="rounded=1;whiteSpace=wrap;html=1;strokeWidth=7;" vertex="1" parent="1">
          <mxGeometry x="1850" y="350" width="190" height="30" as="geometry" />
        </mxCell>
        <mxCell id="phIce4MepkweM39JQGYu-19" value="&lt;font style=&quot;font-size: 25px;&quot;&gt;Service Health Info : Uptime, PID, what else ?&lt;/font&gt;" style="rounded=1;whiteSpace=wrap;html=1;strokeWidth=9;strokeColor=#E6E6E6;" vertex="1" parent="1">
          <mxGeometry x="1910" y="180" width="390" height="90" as="geometry" />
        </mxCell>
        <mxCell id="phIce4MepkweM39JQGYu-20" value="&lt;font style=&quot;font-size: 25px;&quot;&gt;Service Health Info : Uptime, PID, what else ?&lt;/font&gt;" style="rounded=1;whiteSpace=wrap;html=1;strokeWidth=9;strokeColor=#E6E6E6;" vertex="1" parent="1">
          <mxGeometry x="540" y="210" width="390" height="90" as="geometry" />
        </mxCell>
      </root>
    </mxGraphModel>
  </diagram>
</mxfile>
